<svg width="24" height="30" viewBox="0 0 24 30" fill="none" xmlns="http://www.w3.org/2000/svg">
<path d="M20.0454 15.954C20.06 14.8041 20.3603 13.6766 20.9185 12.6765C21.4766 11.6764 22.2745 10.8361 23.2378 10.2338C22.6258 9.34502 21.8185 8.61356 20.8799 8.09756C19.9414 7.58155 18.8975 7.29521 17.8311 7.26128C15.5563 7.01844 13.3509 8.6456 12.1917 8.6456C11.0101 8.6456 9.22531 7.28539 7.30339 7.3256C6.06025 7.36644 4.84871 7.73408 3.78682 8.39268C2.72493 9.05129 1.8489 9.9784 1.24408 11.0837C-1.37578 15.6967 0.578406 22.4762 3.08806 26.2051C4.3437 28.031 5.81117 30.0705 7.73135 29.9982C9.61036 29.9189 10.3121 28.7797 12.5802 28.7797C14.8273 28.7797 15.4857 29.9982 17.4448 29.9522C19.4611 29.9189 20.7314 28.1182 21.943 26.275C22.8452 24.974 23.5394 23.5361 24 22.0146C22.8286 21.5107 21.829 20.6673 21.1257 19.5896C20.4225 18.5119 20.0468 17.2474 20.0454 15.954Z" fill="black"/>
<path d="M16.345 4.80891C17.4443 3.46678 17.9859 1.74169 17.8548 0C16.1752 0.179399 14.6238 0.995745 13.5096 2.28638C12.9648 2.91689 12.5476 3.65041 12.2817 4.44501C12.0159 5.2396 11.9067 6.07969 11.9602 6.91725C12.8003 6.92605 13.6314 6.74087 14.3909 6.37567C15.1504 6.01047 15.8186 5.47477 16.345 4.80891Z" fill="black"/>
</svg>
