<svg width="57" height="97" viewBox="0 0 57 97" fill="none" xmlns="http://www.w3.org/2000/svg">
<path d="M3.15448 55.7051V40.9791C3.15448 38.6554 5.0382 36.7717 7.36189 36.7717H49.436C51.7597 36.7717 53.6434 38.6555 53.6434 40.9791V55.7051H3.15448Z" fill="#E3E8F6"/>
<path d="M49.4367 36.7716H7.36258C7.00709 36.7761 6.65362 36.826 6.31073 36.9199V44.1914C6.31073 47.6455 9.11088 50.4457 12.565 50.4457H53.6441V40.979C53.6441 38.6553 51.7603 36.7716 49.4367 36.7716Z" fill="#FAFAFA"/>
<path d="M7.36163 36.7721V24.1499C7.36163 21.8262 9.24535 19.9425 11.569 19.9425H45.2283C47.552 19.9425 49.4357 21.8262 49.4357 24.1499V36.7721H7.36163Z" fill="#E3E8F6"/>
<path d="M45.2304 19.942H11.5711C10.8304 19.9459 10.1042 20.1474 9.46741 20.5258L9.46741 27.1167C9.46741 31.2871 12.8482 34.6679 17.0187 34.6679L49.4378 34.6679V24.1494C49.4378 21.8257 47.5541 19.942 45.2304 19.942Z" fill="#FAFAFA"/>
<path d="M56.8001 59.9127H6.10352e-05V57.809C6.10352e-05 55.4853 1.88378 53.6016 4.20747 53.6016H52.5927C54.9163 53.6016 56.8001 55.4853 56.8001 57.809V59.9127Z" fill="#20B978"/>
<path d="M49.436 36.7717H7.36189C5.0382 36.7717 3.15448 38.6555 3.15448 40.9791C4.50154 40.9791 5.79325 41.5142 6.74563 42.4666L7.97827 43.6992C9.96151 45.6826 13.1771 45.6826 15.1603 43.6992L16.3931 42.4665C18.3763 40.4831 21.5919 40.4831 23.5751 42.4665L24.8079 43.6992C26.7911 45.6826 30.0067 45.6826 31.9899 43.6992L33.2227 42.4665C35.206 40.4831 38.4215 40.4831 40.4048 42.4665L41.6375 43.6992C43.6208 45.6826 46.8363 45.6826 48.8196 43.6992L50.0523 42.4665C51.0048 41.5141 52.2965 40.9791 53.6434 40.9791C53.6434 38.6554 51.7597 36.7717 49.436 36.7717Z" fill="#20B978"/>
<path d="M49.4383 36.7714H7.36422C5.84497 36.7753 4.44682 37.6011 3.71008 38.9298C4.85623 39.0476 5.92787 39.5529 6.74783 40.3624L7.9806 41.5952C9.96384 43.5785 13.1794 43.5785 15.1626 41.5952L16.3954 40.3624C18.3787 38.3791 21.5942 38.3791 23.5775 40.3624L24.8102 41.5952C26.7935 43.5785 30.009 43.5785 31.9923 41.5952L33.225 40.3624C35.2083 38.3791 38.4239 38.3791 40.4071 40.3624L41.6399 41.5952C43.6231 43.5785 46.8387 43.5785 48.8219 41.5952L50.0547 40.3624C50.8746 39.5529 51.9463 39.0476 53.0924 38.9298C52.3557 37.6011 50.9575 36.7753 49.4383 36.7714Z" fill="#1CA567"/>
<path d="M45.2283 19.9425H11.569C9.24535 19.9425 7.36163 21.8262 7.36163 24.1499V26.2536L7.97802 26.87C9.96126 28.8533 13.1768 28.8533 15.1601 26.87L16.3928 25.6372C18.3761 23.6539 21.5916 23.6539 23.5749 25.6372L24.8076 26.87C26.7909 28.8533 30.0065 28.8533 31.9897 26.87L33.2225 25.6372C35.2057 23.6539 38.4213 23.6539 40.4045 25.6372L41.6373 26.87C43.6205 28.8533 46.8361 28.8533 48.8193 26.87L49.4357 26.2536V24.1499C49.4357 21.8262 47.552 19.9425 45.2283 19.9425Z" fill="#20B978"/>
<path d="M45.2283 19.9425H11.569C9.24535 19.9425 7.36163 21.8262 7.36163 24.1499L7.97802 24.7663C9.96126 26.7496 13.1768 26.7496 15.1601 24.7663L16.3928 23.5335C18.3761 21.5502 21.5916 21.5502 23.5749 23.5335L24.8076 24.7663C26.7909 26.7496 30.0065 26.7496 31.9897 24.7663L33.2225 23.5335C35.2057 21.5502 38.4213 21.5502 40.4045 23.5335L41.6373 24.7663C43.6205 26.7496 46.8361 26.7496 48.8193 24.7663L49.4357 24.1499C49.4357 21.8262 47.552 19.9425 45.2283 19.9425Z" fill="#1CA567"/>
<path d="M10.5178 39.9275H12.6215V42.0312H10.5178V39.9275Z" fill="#F7C3C2"/>
<path d="M27.3478 39.9277H29.4515V42.0314H27.3478V39.9277Z" fill="#F7C3C2"/>
<path d="M44.1777 39.9275H46.2814V42.0312H44.1777V39.9275Z" fill="#F7C3C2"/>
<path d="M10.5178 23.098H12.6215V25.2017H10.5178V23.098Z" fill="#F7C3C2"/>
<path d="M27.3478 23.098H29.4515V25.2017H27.3478V23.098Z" fill="#F7C3C2"/>
<path d="M44.1777 23.098H46.2814V25.2017H44.1777V23.098Z" fill="#F7C3C2"/>
<path d="M52.5915 53.601H4.20633C3.85084 53.6055 3.49737 53.6553 3.15448 53.7493L3.15448 54.0143C3.15448 56.1097 4.85313 57.8084 6.94851 57.8084H56.7989C56.7989 55.4847 54.9152 53.601 52.5915 53.601Z" fill="#1CA567"/>
<path d="M27.7078 9.06445H31.3336V19.942H27.7078V9.06445Z" fill="#F6B940"/>
<path d="M36.7716 11.7843H40.3975V19.9425H36.7716V11.7843Z" fill="#F6B940"/>
<path d="M18.6432 11.7838H22.2691V19.942H18.6432V11.7838Z" fill="#F6B940"/>
<path d="M29.5207 0.00012207L28.0704 2.17563C27.4467 3.119 27.6391 4.38148 28.5155 5.09625C29.1078 5.55305 29.9337 5.55305 30.526 5.09625C31.4024 4.38148 31.5948 3.119 30.9711 2.17563L29.5207 0.00012207Z" fill="#F9D266"/>
<path d="M28.6137 5.14868V9.06459H30.4266V5.14868C29.8783 5.51678 29.1619 5.51678 28.6137 5.14868Z" fill="#E3E8F6"/>
<path d="M38.5849 2.7196L37.1346 4.89511C36.5108 5.83848 36.7032 7.10097 37.5796 7.81573C38.172 8.27253 38.9978 8.27253 39.5902 7.81573C40.4666 7.10097 40.659 5.83848 40.0352 4.89511L38.5849 2.7196Z" fill="#F9D266"/>
<path d="M37.7624 7.91281V11.7843H39.5753V7.82397C39.0447 8.218 38.3289 8.25307 37.7624 7.91281Z" fill="#E3E8F6"/>
<path d="M20.4553 2.71912L19.005 4.89462C18.3812 5.83799 18.5736 7.10048 19.45 7.81524C20.0424 8.27204 20.8682 8.27204 21.4606 7.81524C22.337 7.10048 22.5294 5.83799 21.9056 4.89462L20.4553 2.71912Z" fill="#F9D266"/>
<path d="M42.4713 2.08264L44.2837 0.270268L45.5655 1.552L43.7531 3.36438L42.4713 2.08264Z" fill="#F9D266"/>
<path d="M42.4713 8.80237L43.7531 7.52063L45.5655 9.33301L44.2837 10.6147L42.4713 8.80237Z" fill="#F9D266"/>
<path d="M44.0226 4.53223H46.7419V6.34515H44.0226V4.53223Z" fill="#F9D266"/>
<path d="M13.4679 1.54846L14.7496 0.266726L16.562 2.0791L15.2803 3.36084L13.4679 1.54846Z" fill="#F9D266"/>
<path d="M13.4678 9.32983L15.2801 7.51746L16.5619 8.79919L14.7495 10.6116L13.4678 9.32983Z" fill="#F9D266"/>
<path d="M12.2971 4.53198H15.0164V6.3449H12.2971V4.53198Z" fill="#F9D266"/>
<path d="M19.548 18.1289C19.548 18.6295 19.9539 19.0354 20.4545 19.0354H22.2674V11.7837H19.548V18.1289Z" fill="#F9D266"/>
<path d="M28.6137 18.1291C28.6137 18.6297 29.0195 19.0355 29.5201 19.0355H31.3331V9.06445H28.6137V18.1291Z" fill="#F9D266"/>
<path d="M37.6779 18.1295C37.6779 18.6302 38.0838 19.036 38.5844 19.036H40.3973V11.7843H37.6779V18.1295Z" fill="#F9D266"/>
<path d="M4.46344 91.993V81.4901H8.10358C8.92389 81.4901 9.62457 81.7489 10.2056 82.2665C10.7867 82.7792 11.0772 83.3969 11.0772 84.1195C11.0772 84.681 10.9063 85.184 10.5645 85.6283C10.2227 86.0726 9.79791 86.3436 9.2901 86.4413C9.94928 86.5096 10.5035 86.7977 10.9527 87.3055C11.4068 87.8134 11.6339 88.4115 11.6339 89.1C11.6339 89.9056 11.3336 90.5892 10.733 91.1508C10.1373 91.7123 9.41217 91.993 8.55768 91.993H4.46344ZM5.58405 86.0677H8.07428C8.59186 86.0677 9.03131 85.8944 9.39264 85.5477C9.75397 85.1962 9.93463 84.7689 9.93463 84.266C9.93463 83.7972 9.75153 83.3993 9.38531 83.0721C9.02399 82.7401 8.58698 82.5741 8.07428 82.5741H5.58405V86.0677ZM5.58405 90.9164H8.49908C9.06549 90.9164 9.53668 90.7284 9.91266 90.3524C10.2886 89.9764 10.4766 89.5126 10.4766 88.9608C10.4766 88.4139 10.2862 87.9525 9.90533 87.5765C9.52936 87.2006 9.06549 87.0126 8.51373 87.0126H5.58405V90.9164ZM19.3389 84.7054H20.4376V91.993H19.3389V90.3011C19.0704 90.8871 18.6797 91.3412 18.1671 91.6635C17.6592 91.9808 17.0611 92.1395 16.3726 92.1395C15.7134 92.1395 15.1055 91.9711 14.5489 91.6342C13.9971 91.2972 13.5601 90.8358 13.2379 90.2499C12.9156 89.6639 12.7545 89.0243 12.7545 88.3309C12.7545 87.6376 12.9156 87.0004 13.2379 86.4193C13.5601 85.8383 13.9971 85.3817 14.5489 85.0497C15.1055 84.7177 15.7134 84.5516 16.3726 84.5516C17.0611 84.5516 17.6617 84.7128 18.1744 85.035C18.6871 85.3524 19.0753 85.8016 19.3389 86.3827V84.7054ZM16.5777 91.1068C17.3736 91.1068 18.0328 90.8456 18.5552 90.3231C19.0777 89.7958 19.3389 89.1317 19.3389 88.3309C19.3389 87.535 19.0777 86.8759 18.5552 86.3534C18.0328 85.8309 17.3736 85.5697 16.5777 85.5697C15.8062 85.5697 15.1544 85.8383 14.6221 86.3754C14.0948 86.9125 13.8311 87.5643 13.8311 88.3309C13.8311 89.1122 14.0948 89.7714 14.6221 90.3085C15.1544 90.8407 15.8062 91.1068 16.5777 91.1068ZM28.7725 91.993H27.3223L23.6309 88.4261V91.993H22.5323V81.4901H23.6309V87.9574L27.1539 84.7054H28.5381L24.7369 88.1844L28.7725 91.993ZM36.2286 88.1259C36.2286 88.3456 36.2237 88.4847 36.2139 88.5433H30.1055C30.1592 89.3246 30.4278 89.9545 30.9112 90.433C31.3946 90.9115 32.0172 91.1508 32.7789 91.1508C33.3648 91.1508 33.8677 91.0189 34.2877 90.7552C34.7125 90.4867 34.9737 90.1302 35.0714 89.6859H36.17C36.0284 90.4232 35.6426 91.0165 35.0128 91.4657C34.3829 91.9149 33.6285 92.1395 32.7496 92.1395C31.69 92.1395 30.8038 91.7733 30.0909 91.0409C29.3829 90.3085 29.0289 89.3954 29.0289 88.3016C29.0289 87.2518 29.3878 86.3656 30.1055 85.6429C30.8233 84.9154 31.6998 84.5516 32.7349 84.5516C33.3843 84.5516 33.9752 84.7054 34.5074 85.0131C35.0396 85.3158 35.4595 85.7406 35.7672 86.2875C36.0748 86.8344 36.2286 87.4471 36.2286 88.1259ZM30.1568 87.6132H35.0567C35.003 87.0077 34.7564 86.5121 34.317 86.1263C33.8824 85.7357 33.3404 85.5404 32.691 85.5404C32.0464 85.5404 31.4947 85.7284 31.0357 86.1044C30.5767 86.4803 30.2838 86.9833 30.1568 87.6132ZM41.0626 84.5516C41.253 84.5516 41.48 84.5809 41.7437 84.6395V85.6649C41.5045 85.5819 41.2676 85.5404 41.0333 85.5404C40.462 85.5404 39.981 85.743 39.5904 86.1483C39.2047 86.5487 39.0118 87.0565 39.0118 87.6718V91.993H37.9131V84.7054H39.0118V85.87C39.2266 85.4598 39.5123 85.1376 39.8687 84.9032C40.2252 84.6688 40.6231 84.5516 41.0626 84.5516ZM48.3355 84.7054H49.5074L45.2886 94.7543H44.1168L45.3765 91.8612L42.3663 84.7054H43.5528L45.9332 90.5795L48.3355 84.7054Z" fill="black"/>
</svg>
