<svg width="28" height="27" viewBox="0 0 28 27" fill="none" xmlns="http://www.w3.org/2000/svg">
<path fill-rule="evenodd" clip-rule="evenodd" d="M17.75 0.5H20.25C22.607 0.5 23.7855 0.5 24.5178 1.23223C25.25 1.96447 25.25 3.14298 25.25 5.5V24.5625H26.5C27.0178 24.5625 27.4375 24.9822 27.4375 25.5C27.4375 26.0178 27.0178 26.4375 26.5 26.4375H1.5C0.982233 26.4375 0.5625 26.0178 0.5625 25.5C0.5625 24.9822 0.982233 24.5625 1.5 24.5625H2.75V9.25C2.75 6.89298 2.75 5.71447 3.48223 4.98223C4.21447 4.25 5.39298 4.25 7.75 4.25H12.75C15.107 4.25 16.2855 4.25 17.0178 4.98223C17.75 5.71447 17.75 6.89298 17.75 9.25V24.5625H19.625V9.25L19.625 9.13814C19.6251 8.0561 19.6253 7.06401 19.5168 6.25698C19.3973 5.36828 19.1162 4.42897 18.3436 3.65641C17.571 2.88385 16.6317 2.60273 15.743 2.48325C14.9474 2.37627 13.9718 2.37488 12.9075 2.37499C13.0129 1.89093 13.1887 1.52573 13.4822 1.23223C14.2145 0.5 15.393 0.5 17.75 0.5ZM5.5625 8C5.5625 7.48223 5.98223 7.0625 6.5 7.0625H14C14.5178 7.0625 14.9375 7.48223 14.9375 8C14.9375 8.51777 14.5178 8.9375 14 8.9375H6.5C5.98223 8.9375 5.5625 8.51777 5.5625 8ZM5.5625 11.75C5.5625 11.2322 5.98223 10.8125 6.5 10.8125H14C14.5178 10.8125 14.9375 11.2322 14.9375 11.75C14.9375 12.2678 14.5178 12.6875 14 12.6875H6.5C5.98223 12.6875 5.5625 12.2678 5.5625 11.75ZM5.5625 15.5C5.5625 14.9822 5.98223 14.5625 6.5 14.5625H14C14.5178 14.5625 14.9375 14.9822 14.9375 15.5C14.9375 16.0178 14.5178 16.4375 14 16.4375H6.5C5.98223 16.4375 5.5625 16.0178 5.5625 15.5ZM10.25 20.8125C10.7678 20.8125 11.1875 21.2322 11.1875 21.75V24.5625H9.3125V21.75C9.3125 21.2322 9.73223 20.8125 10.25 20.8125Z" fill="#495057"/>
</svg>
