<svg width="25" height="24" viewBox="0 0 25 24" fill="none" xmlns="http://www.w3.org/2000/svg">
<path fill-rule="evenodd" clip-rule="evenodd" d="M21.75 8.5C21.75 7.09554 21.75 6.39331 21.4129 5.88886C21.267 5.67048 21.0795 5.48298 20.8611 5.33706C20.4199 5.04224 19.8274 5.00529 18.746 5.00066C18.7501 5.29206 18.75 5.59655 18.75 5.91051L18.75 6V7.25H19.75C20.1642 7.25 20.5 7.58579 20.5 8C20.5 8.41421 20.1642 8.75 19.75 8.75H18.75V10.25H19.75C20.1642 10.25 20.5 10.5858 20.5 11C20.5 11.4142 20.1642 11.75 19.75 11.75H18.75V13.25H19.75C20.1642 13.25 20.5 13.5858 20.5 14C20.5 14.4142 20.1642 14.75 19.75 14.75H18.75V21.25H17.25V6C17.25 4.11438 17.25 3.17157 16.6642 2.58579C16.0784 2 15.1356 2 13.25 2H11.25C9.36438 2 8.42157 2 7.83579 2.58579C7.25 3.17157 7.25 4.11438 7.25 6V21.25H5.75V14.75H4.75C4.33579 14.75 4 14.4142 4 14C4 13.5858 4.33579 13.25 4.75 13.25H5.75V11.75H4.75C4.33579 11.75 4 11.4142 4 11C4 10.5858 4.33579 10.25 4.75 10.25H5.75V8.75H4.75C4.33579 8.75 4 8.41421 4 8C4 7.58579 4.33579 7.25 4.75 7.25H5.75V6L5.74999 5.9105C5.74996 5.59655 5.74992 5.29206 5.75403 5.00066C4.67262 5.00529 4.08008 5.04224 3.63886 5.33706C3.42048 5.48298 3.23298 5.67048 3.08706 5.88886C2.75 6.39331 2.75 7.09554 2.75 8.5V21.25H2.25C1.83579 21.25 1.5 21.5858 1.5 22C1.5 22.4142 1.83579 22.75 2.25 22.75H22.25C22.6642 22.75 23 22.4142 23 22C23 21.5858 22.6642 21.25 22.25 21.25H21.75V8.5ZM9.5 11.75C9.5 11.3358 9.83579 11 10.25 11H14.25C14.6642 11 15 11.3358 15 11.75C15 12.1642 14.6642 12.5 14.25 12.5H10.25C9.83579 12.5 9.5 12.1642 9.5 11.75ZM9.5 14.75C9.5 14.3358 9.83579 14 10.25 14H14.25C14.6642 14 15 14.3358 15 14.75C15 15.1642 14.6642 15.5 14.25 15.5H10.25C9.83579 15.5 9.5 15.1642 9.5 14.75ZM12.25 18.25C12.6642 18.25 13 18.5858 13 19V21.25H11.5V19C11.5 18.5858 11.8358 18.25 12.25 18.25ZM9.5 6.25C9.5 5.83579 9.83579 5.5 10.25 5.5H14.25C14.6642 5.5 15 5.83579 15 6.25C15 6.66421 14.6642 7 14.25 7H10.25C9.83579 7 9.5 6.66421 9.5 6.25ZM9.5 9.25C9.5 8.83579 9.83579 8.5 10.25 8.5H14.25C14.6642 8.5 15 8.83579 15 9.25C15 9.66421 14.6642 10 14.25 10H10.25C9.83579 10 9.5 9.66421 9.5 9.25Z" fill="white"/>
</svg>
