<svg width="96" height="97" viewBox="0 0 185 179" fill="none" xmlns="http://www.w3.org/2000/svg">
<path d="M97.7182 25.6812L102.898 33.064L98.1529 34.6775C97.8905 33.7564 96.3727 31.5528 95.4582 30.1793C94.4696 28.6947 93.7136 28.1393 92.9229 27.5354L97.7182 25.6812Z" fill="#F4AA73"/>
<path d="M99.2129 33.1975C97.8785 29.7818 95.5654 27.3964 94.5898 26.5518L90.2554 28.2987C91.0459 28.9028 92.1548 29.895 93.1433 31.3797C94.0579 32.7533 94.4025 33.7933 94.8011 34.9728L97.6232 35.7409L99.2129 33.1975Z" fill="#EA9F6C"/>
<path d="M114.512 27.1007C114.275 24.5641 113.875 20.2783 113.639 17.7415L118.986 15.7383C119.044 17.3706 119.247 19.4693 119.979 21.5041C121.022 24.4016 122.49 26.1787 123.687 27.299L114.512 27.1007Z" fill="#FFEAD8"/>
<path d="M116.502 26.4165C116.268 23.9089 115.876 19.6953 115.638 17.1484L111.544 18.8732C111.781 21.41 112.181 25.6956 112.417 28.2324L116.502 26.4165Z" fill="#FFE3CB"/>
<path d="M115.577 59.2873L124.659 56.3335C124.659 49.235 126.322 41.9492 126.514 34.9081C126.748 26.354 119.217 23.142 113.551 26.62C112.242 27.4239 111.18 28.3232 110.324 29.2722L115.577 59.2873Z" fill="#F5F8F9"/>
<path d="M118.327 54.7196C119.505 52.1984 121.18 48.8828 121.18 44.6546C121.18 40.6373 119.491 34.9596 116.228 32.5156C116.228 32.5156 113.54 30.0141 110.325 29.2725C108.203 31.6261 107.359 34.287 107.206 36.5648C106.676 44.4658 106.652 51.8848 111.603 58.3764L117.725 56.4665C117.915 55.7818 118.111 55.1841 118.327 54.7196Z" fill="#E8EDF2"/>
<path d="M106.25 8.67319C106.468 4.87808 107.062 4.64583 108.467 2.51614C108.581 2.34364 109.199 1.67242 109.379 1.58998C112.075 0.351114 114.342 0.527316 116.088 1.2849C118.064 2.1428 119.621 3.85816 120.558 5.95688C121.345 7.71956 121.6 9.82091 121.341 11.8429L118.874 13.0588L106.25 8.67319Z" fill="#C19B81"/>
<path d="M108.653 6.62563C108.538 5.51847 108.593 4.4135 108.82 3.35868C108.952 2.74808 109.134 2.15819 109.381 1.59033C109.196 1.67494 109.017 1.76239 108.829 1.86031C106.335 3.15675 104.823 5.38545 104.282 7.89808L106.479 8.16652C106.473 8.15235 108.653 6.62563 108.653 6.62563Z" fill="#B89175"/>
<path d="M106.121 9.87517L108.33 7.62248C108.487 7.57581 108.494 6.65227 108.652 6.62196C110.416 6.28373 112.24 6.94754 113.372 8.37548L114.025 9.19827C115.551 11.1234 117.945 12.1499 120.392 11.9285L121.342 11.8428C121.207 12.8996 120.931 13.9346 120.519 14.8884C119.813 16.5181 110.341 21.8733 108.091 16.3079C107.257 14.2447 106.121 9.87517 106.121 9.87517Z" fill="#FFEAD8"/>
<path d="M109.414 9.67812C109.013 8.68458 108.759 7.65441 108.652 6.62598C108.493 6.65629 108.336 6.69162 108.179 6.7385L104.28 7.89843C103.842 9.93348 104.041 12.1548 104.875 14.2175C107.125 19.7829 109.223 23.3375 117.21 18.7669C118.706 17.9108 119.813 16.5188 120.518 14.8892C113.541 18.4067 111.544 14.9452 109.414 9.67812Z" fill="#FFE3CB"/>
<path d="M51.678 100.624C51.678 100.624 46.4626 96.5481 44.705 103.251C44.1816 105.247 43.6425 108.08 41.9814 110.784C41.9814 110.784 42.599 112.266 43.0803 112.313C44.4596 112.448 45.8599 112.089 47.0167 111.269L49.0555 109.825C50.4804 108.041 52.8755 104.275 52.8755 104.275C52.8755 104.275 52.0065 102.169 51.678 100.624Z" fill="#12A567"/>
<path d="M43.0805 112.313C44.486 110.98 45.3842 108.046 46.1403 106.133C47.3901 102.97 48.5746 102.336 50.1528 102.367C50.392 101.716 52.1148 101.124 52.3737 100.594C52.6356 100.056 51.4338 99.5826 51.6782 99.1748C51.6782 99.1748 45.6282 94.8916 43.8706 101.594C43.3472 103.59 42.2093 106.459 40.7977 107.786C39.4293 109.073 39.8901 111.347 41.6552 111.99C42.1201 112.159 42.599 112.266 43.0805 112.313Z" fill="#1FB978"/>
<path d="M49.0554 109.824L81.3109 86.9741L101.416 73.0796C101.416 73.0796 82.4785 74.9432 81.9075 75.9564C81.3828 76.8874 79.7739 78.1038 79.285 79.1869L78.8153 80.2278C78.4528 81.0312 77.7646 81.6416 76.9239 81.9059L73.8912 83.0069C70.0745 84.1675 66.1634 86.751 63.6304 89.6751L54.0243 99.0876L52.1459 100.809L50.152 102.367C49.8169 103.281 49.5214 104.312 49.3162 105.451C49.0126 107.137 48.9856 108.632 49.0554 109.824Z" fill="#F4AA73"/>
<path d="M50.3802 102.377C52.6817 102.548 54.9298 101.615 56.5586 99.9805L64.0309 92.4803C66.5638 89.5562 70.4749 87.6033 74.2916 86.4427L77.7217 85.3648C78.5626 85.1005 79.6132 83.6867 79.6132 83.6867L79.3197 75.0942C78.795 76.0252 78.302 77.0233 77.8133 78.1065L77.3435 79.1473C76.9811 79.9507 76.2929 80.5611 75.452 80.8254L72.0219 81.9033C68.2052 83.0639 64.2941 85.6474 61.7612 88.5716L51.6773 99.1731C51.1936 99.9818 50.6323 101.055 50.1519 102.366C50.2295 102.367 50.3069 102.371 50.3802 102.377Z" fill="#EA9F6C"/>
<path d="M144.298 103.944L137.162 82.6329L135.069 76.4512C134.775 75.5809 134.404 74.7356 133.924 73.9521C133.292 72.9193 132.508 71.9812 131.594 71.171C130.816 70.4806 129.952 69.8918 129.025 69.4188L113.75 60.9316L101.417 73.0798L127.201 77.6247C127.575 77.7173 127.85 78.0359 127.887 78.4195L128.058 80.2066C128.246 82.1767 128.894 84.0752 129.948 85.75L136.458 97.9965C137.984 99.9618 134.062 99.6674 137.501 102.652C139.094 103.782 142.745 104.298 142.745 104.298L144.298 103.944Z" fill="#F4AA73"/>
<path d="M137.44 100.194C137.435 100.198 137.443 100.192 137.44 100.194C138.819 99.1828 139.243 97.2991 138.383 95.8212L131.941 84.7637C130.702 82.7956 129.941 80.5647 129.72 78.2496L129.519 76.1494C129.476 75.6986 129.153 75.3242 128.713 75.2154L105.167 69.3867L101.417 73.0804L125.914 79.1444C126.288 79.237 126.563 79.5554 126.6 79.939L126.771 81.7264C126.959 83.6964 127.607 85.5949 128.661 87.2698L135.319 97.8423L135.671 99.745L137.44 100.194Z" fill="#EA9F6C"/>
<path d="M135.357 100.034C135.357 100.034 133.231 103.084 135.26 104.602L140.182 108.697C143.74 111.71 145.319 111.424 145.656 110.771C146.004 110.098 146.089 109.291 145.83 108.518L144.298 103.943C143.881 103.865 143.303 103.734 142.637 103.505C142.296 103.388 140.963 102.912 139.244 101.682C138.743 101.324 138.114 100.825 137.439 100.193L135.357 100.034Z" fill="#12A567"/>
<path d="M137.109 103.839C135.776 102.477 136.393 100.915 137.439 100.193C136.878 99.6352 135.905 98.6124 135.318 97.8413L133.263 99.8234C131.44 101.583 131.627 104.557 133.656 106.075L141.275 111.712C142.048 112.291 143.059 112.498 143.978 112.198C144.208 112.123 145.082 111.86 145.656 110.771L137.109 103.839Z" fill="#1FB978"/>
<path d="M108.854 81.0778L120.676 106.65L107.158 108.643C102.208 110.024 97.0255 110.077 92.1143 108.857C89.8479 108.294 88.027 106.717 85.9259 105.617C80.333 102.687 79.2391 96.8042 79.6137 90.5015C79.8203 87.0292 81.8115 76.8644 81.8115 76.8644C82.6341 75.8045 85.8931 71.6308 86.9898 70.6947C88.1133 69.7358 88.8629 68.4108 89.113 66.9549C89.113 66.9549 88.9392 61.2759 97.5751 59.079C100.082 58.4412 101.677 54.5782 101.416 52.0041C101.041 48.3054 100.46 45.2131 97.8053 36.8795L99.2121 33.1965C102.473 31.8841 106.206 32.2108 109.101 34.2046C109.221 34.2875 109.34 34.3727 109.457 34.4606C112.721 36.9046 114.959 40.6362 114.959 44.6535C114.959 48.8818 113.66 52.324 112.235 54.7134C111.884 55.3009 111.546 55.9484 111.48 56.5852L113.749 60.9313L108.854 81.0778Z" fill="#1FB978"/>
<path d="M91.6655 108.628C86.0725 105.698 82.7929 99.6839 83.1678 93.3812C83.3743 89.9091 83.5809 86.4367 83.7874 82.9644C83.9038 81.0065 84.2141 79.7829 85.4478 77.3649C86.2695 75.7542 87.3081 74.5406 87.3081 74.5406C88.1307 73.4808 89.0593 72.5034 90.156 71.5672C91.2795 70.6084 92.029 69.2834 92.2791 67.8275C93.2275 63.0234 95.6756 62.0861 99.6011 60.9312C102.126 60.1884 105.029 57.7022 104.836 53.2167C104.677 49.5024 104.527 47.5998 99.2116 33.1963L94.7998 34.9716C97.4546 43.3053 98.5092 49.0146 98.8848 52.7133C99.146 55.2875 97.1964 57.5408 94.6131 57.6821C90.5496 58.163 87.0995 60.7537 86.1511 65.558C85.9009 67.0139 85.1512 68.3387 84.0279 69.2977C82.9312 70.2339 82.0027 71.2113 81.1801 72.2712C81.1801 72.2712 80.1414 73.4847 79.3197 75.0954C78.0861 77.5134 77.7758 78.7368 77.6593 80.6949C77.4528 84.1672 77.2463 87.6394 77.0398 91.1118C76.6649 97.4145 79.9445 103.429 85.5374 106.359C87.6385 107.46 89.8472 108.294 92.1136 108.857C91.964 108.781 91.8142 108.706 91.6655 108.628Z" fill="#12A567"/>
<path d="M124.307 32.0117L133.13 41.7874C133.354 42.0354 133.759 41.9649 133.887 41.6564L137.698 32.411L145.838 28.2104L139.757 47.396C139.333 48.708 138.524 49.7196 137.515 50.4009C135.237 51.9394 129.572 47.2118 127.374 45.0068C124.964 42.5891 120.443 36.5897 120.443 36.5897L124.307 32.0117Z" fill="#FFEAD8"/>
<path d="M134.278 48.6775C132.386 46.7788 125.388 38.9044 122.47 35.6108L120.443 39.583C120.443 39.583 127.329 47.1674 129.739 49.5851C131.936 51.7903 135.237 51.9399 137.515 50.4014C136.346 50.1785 135.212 49.6146 134.278 48.6775Z" fill="#FFE3CB"/>
<path d="M141.718 24.147L106.279 35.7787C106.065 35.8489 105.862 35.9364 105.667 36.0347L104.627 39.458L107.771 41.9787L144.897 27.6462L145.679 25.839C144.98 24.3746 143.29 23.6308 141.718 24.147Z" fill="#F4AA73"/>
<path d="M145.68 25.8403L111.356 38.7382C109.048 39.6055 106.479 38.3967 105.677 36.0651C105.674 36.0564 105.671 36.045 105.668 36.0361C103.723 37.0185 102.762 39.3255 103.531 41.4375C104.374 43.7546 106.964 44.9186 109.256 44.011L143.937 30.2836C145.58 29.6333 146.407 27.7934 145.803 26.133C145.766 26.0325 145.725 25.935 145.68 25.8403Z" fill="#EA9F6C"/>
<path d="M91.8637 12.0396C89.7505 11.5173 87.4499 11.8051 85.2238 13.1897C84.9878 13.3364 84.7641 13.4889 84.5506 13.6444L82.0146 18.3076L84.1491 22.8034L89.2579 24.8614L91.8637 12.0396Z" fill="#73737F"/>
<path d="M94.7346 26.5506L90.7282 25.4346C90.7282 25.4346 89.0676 23.7918 89.0045 23.0176C88.7426 19.8068 89.4132 16.5701 90.962 13.7075L91.8648 12.0386C94.0093 12.5687 95.9608 13.9332 97.4452 15.8341C99.3126 18.2255 100.743 20.3242 100.569 22.4203L99.2136 24.5361L94.7346 26.5506Z" fill="#F4AA73"/>
<path d="M86.1568 20.4182C84.6855 18.3984 84.0162 15.949 84.5509 13.6436C80.2891 16.7454 80.4494 21.4848 82.9793 24.9576C84.598 27.1797 87.4013 28.7854 90.2225 29.1779L90.9391 26.2405L89.004 23.0178C87.8824 22.3174 86.8956 21.4324 86.1568 20.4182Z" fill="#626272"/>
<path d="M98.4623 23.7863C96.9619 24.6525 95.1768 24.8871 93.399 24.6398C91.8658 24.4266 90.3384 23.8528 89.0029 23.0185C89.0662 23.7926 89.183 24.565 89.3555 25.3307L90.2215 29.1786C91.9995 29.4259 93.7844 29.1919 95.2847 28.3257C98.939 26.2161 100.411 24.3197 100.568 22.4214C99.9652 22.8676 99.2669 23.3216 98.4623 23.7863Z" fill="#EA9F6C"/>
<path d="M83.5367 23.5888C82.9813 24.5931 82.1199 25.2623 81.5045 25.6176C79.2832 26.9 76.4426 26.139 75.1601 23.9177C73.8776 21.6964 74.6387 18.8558 76.86 17.5733C78.5261 16.6114 80.6629 16.7091 82.2492 18.0553L83.5367 23.5888Z" fill="#626272"/>
<path d="M100.649 55.1688L99.095 55.5563C98.5108 55.7019 97.919 55.3465 97.7733 54.7621L96.6147 50.1147C96.469 49.5305 96.8245 48.9386 97.4089 48.793L98.9633 48.4055C100.758 47.958 102.575 49.0501 103.023 50.8444L103.089 51.1093C103.536 52.9041 102.444 54.7215 100.649 55.1688Z" fill="#FFE3CB"/>
<path d="M116.189 82.5873C115.826 82.1257 115.8 81.483 116.124 80.9932L123.966 69.1584C126.05 65.6739 126.471 61.4409 125.114 57.6141L124.659 56.3325L117.724 56.4653L114.076 59.9815C113.529 62.2996 108.723 79.9458 109.782 82.0792L120.677 106.649L123.513 105.758L121.029 92.1431C120.499 89.2349 119.266 86.5002 117.439 84.1764L116.189 82.5873Z" fill="#73737F"/>
<path d="M112.557 78.3903L117.724 56.4653L111.481 56.5848L106.316 78.4538C105.768 80.7719 106.048 83.2084 107.107 85.3418L117.271 105.822L120.739 107.007L123.513 105.758L113.349 85.2782C112.29 83.145 112.01 80.7085 112.557 78.3903Z" fill="#626272"/>
<path d="M123.513 105.758H111.257C108.75 105.758 106.718 107.791 106.718 110.298V111.206C106.718 111.832 107.226 112.34 107.853 112.34H120.79C122.294 112.34 123.513 111.121 123.513 109.617V105.758Z" fill="#565668"/>
<path d="M8.87695 151.416C10.3125 151.416 11.665 151.68 12.9346 152.207C14.2139 152.725 15.3125 153.442 16.2305 154.36C17.1484 155.269 17.8711 156.372 18.3984 157.671C18.9355 158.96 19.2041 160.347 19.2041 161.831C19.2041 163.315 18.9355 164.717 18.3984 166.035C17.8711 167.344 17.1484 168.467 16.2305 169.404C15.3125 170.332 14.2139 171.069 12.9346 171.616C11.665 172.153 10.3125 172.422 8.87695 172.422H2.37305V151.416H8.87695ZM8.99414 170.269C11.2402 170.269 13.1104 169.468 14.6045 167.866C16.1084 166.255 16.8604 164.243 16.8604 161.831C16.8604 159.438 16.1133 157.466 14.6191 155.913C13.1348 154.36 11.2598 153.584 8.99414 153.584H4.61426V170.269H8.99414ZM34.6436 157.847H36.8408V172.422H34.6436V169.038C34.1064 170.21 33.3252 171.118 32.2998 171.763C31.2842 172.397 30.0879 172.715 28.7109 172.715C27.3926 172.715 26.1768 172.378 25.0635 171.704C23.96 171.03 23.0859 170.107 22.4414 168.936C21.7969 167.764 21.4746 166.484 21.4746 165.098C21.4746 163.711 21.7969 162.437 22.4414 161.274C23.0859 160.112 23.96 159.199 25.0635 158.535C26.1768 157.871 27.3926 157.539 28.7109 157.539C30.0879 157.539 31.2891 157.861 32.3145 158.506C33.3398 159.141 34.1162 160.039 34.6436 161.201V157.847ZM29.1211 170.649C30.7129 170.649 32.0312 170.127 33.0762 169.082C34.1211 168.027 34.6436 166.699 34.6436 165.098C34.6436 163.506 34.1211 162.188 33.0762 161.143C32.0312 160.098 30.7129 159.575 29.1211 159.575C27.5781 159.575 26.2744 160.112 25.21 161.187C24.1553 162.261 23.6279 163.564 23.6279 165.098C23.6279 166.66 24.1553 167.979 25.21 169.053C26.2744 170.117 27.5781 170.649 29.1211 170.649ZM48.208 157.539C50.0928 157.539 51.5869 158.125 52.6904 159.297C53.8037 160.459 54.3604 162.036 54.3604 164.028V172.422H52.1631V164.233C52.1631 162.837 51.7578 161.719 50.9473 160.879C50.1465 160.039 49.082 159.619 47.7539 159.619C46.3867 159.619 45.2881 160.044 44.458 160.894C43.6377 161.733 43.2275 162.847 43.2275 164.233V172.422H41.0303V157.847H43.2275V160.688C43.6963 159.692 44.3604 158.921 45.2197 158.374C46.0791 157.817 47.0752 157.539 48.208 157.539ZM65.2148 172.715C63.0957 172.715 61.3086 171.987 59.8535 170.532C58.4082 169.067 57.6855 167.266 57.6855 165.127C57.6855 162.988 58.4082 161.191 59.8535 159.736C61.3086 158.271 63.0957 157.539 65.2148 157.539C66.8652 157.539 68.335 158.022 69.624 158.989C70.9131 159.946 71.6943 161.152 71.9678 162.607H69.7412C69.4971 161.738 68.9502 161.025 68.1006 160.469C67.251 159.902 66.2891 159.619 65.2148 159.619C63.7012 159.619 62.4268 160.146 61.3916 161.201C60.3564 162.256 59.8389 163.564 59.8389 165.127C59.8389 166.68 60.3564 167.988 61.3916 169.053C62.4268 170.117 63.7012 170.649 65.2148 170.649C66.2988 170.649 67.2705 170.356 68.1299 169.771C68.999 169.185 69.5361 168.428 69.7412 167.5H71.9678C71.7432 169.023 70.9814 170.273 69.6826 171.25C68.3936 172.227 66.9043 172.715 65.2148 172.715ZM88.5498 164.688C88.5498 165.127 88.54 165.405 88.5205 165.522H76.3037C76.4111 167.085 76.9482 168.345 77.915 169.302C78.8818 170.259 80.127 170.737 81.6504 170.737C82.8223 170.737 83.8281 170.474 84.668 169.946C85.5176 169.409 86.04 168.696 86.2354 167.808H88.4326C88.1494 169.282 87.3779 170.469 86.1182 171.367C84.8584 172.266 83.3496 172.715 81.5918 172.715C79.4727 172.715 77.7002 171.982 76.2744 170.518C74.8584 169.053 74.1504 167.227 74.1504 165.039C74.1504 162.939 74.8682 161.167 76.3037 159.722C77.7393 158.267 79.4922 157.539 81.5625 157.539C82.8613 157.539 84.043 157.847 85.1074 158.462C86.1719 159.067 87.0117 159.917 87.627 161.011C88.2422 162.104 88.5498 163.33 88.5498 164.688ZM76.4062 163.662H86.2061C86.0986 162.451 85.6055 161.46 84.7266 160.688C83.8574 159.907 82.7734 159.517 81.4746 159.517C80.1855 159.517 79.082 159.893 78.1641 160.645C77.2461 161.396 76.6602 162.402 76.4062 163.662ZM106.187 172.715C103.999 172.715 102.188 172.075 100.752 170.796C99.3262 169.507 98.6133 167.881 98.6133 165.918H100.84C100.84 167.285 101.343 168.408 102.349 169.287C103.354 170.156 104.634 170.591 106.187 170.591C107.651 170.591 108.862 170.234 109.819 169.521C110.776 168.799 111.255 167.876 111.255 166.753C111.255 166.167 111.138 165.649 110.903 165.2C110.679 164.751 110.366 164.39 109.966 164.116C109.575 163.843 109.116 163.594 108.589 163.369C108.071 163.135 107.515 162.949 106.919 162.812C106.333 162.676 105.728 162.52 105.103 162.344C104.478 162.168 103.867 161.997 103.271 161.831C102.686 161.655 102.129 161.421 101.602 161.128C101.084 160.835 100.625 160.503 100.225 160.132C99.834 159.761 99.5215 159.282 99.2871 158.696C99.0625 158.11 98.9502 157.446 98.9502 156.704C98.9502 155.083 99.5996 153.75 100.898 152.705C102.207 151.65 103.857 151.123 105.85 151.123C107.988 151.123 109.688 151.704 110.947 152.866C112.207 154.019 112.837 155.469 112.837 157.217H110.537C110.488 156.064 110.024 155.122 109.146 154.39C108.276 153.647 107.158 153.276 105.791 153.276C104.424 153.276 103.311 153.594 102.451 154.229C101.602 154.863 101.177 155.688 101.177 156.704C101.177 157.29 101.318 157.798 101.602 158.228C101.885 158.657 102.261 158.999 102.729 159.253C103.208 159.507 103.755 159.731 104.37 159.927C104.985 160.112 105.635 160.288 106.318 160.454C107.002 160.61 107.681 160.781 108.354 160.967C109.038 161.152 109.688 161.396 110.303 161.699C110.918 162.002 111.46 162.363 111.929 162.783C112.407 163.193 112.788 163.74 113.071 164.424C113.354 165.098 113.496 165.874 113.496 166.753C113.496 168.481 112.803 169.907 111.416 171.03C110.039 172.153 108.296 172.715 106.187 172.715ZM123.735 159.883H119.663V167.5C119.663 169.521 120.684 170.532 122.725 170.532C123.135 170.532 123.472 170.493 123.735 170.415V172.422C123.296 172.52 122.827 172.568 122.329 172.568C120.806 172.568 119.614 172.148 118.755 171.309C117.896 170.459 117.466 169.199 117.466 167.529V159.883H114.595V157.847H117.466V153.818H119.663V157.847H123.735V159.883ZM137.622 157.847H139.819V172.422H137.622V169.595C137.153 170.581 136.489 171.348 135.63 171.895C134.78 172.441 133.784 172.715 132.642 172.715C130.767 172.715 129.272 172.129 128.159 170.957C127.046 169.785 126.489 168.213 126.489 166.24V157.847H128.687V166.006C128.687 167.422 129.087 168.55 129.888 169.39C130.688 170.229 131.758 170.649 133.096 170.649C134.473 170.649 135.571 170.229 136.392 169.39C137.212 168.55 137.622 167.422 137.622 166.006V157.847ZM156.313 151.416H158.511V172.422H156.313V169.038C155.776 170.21 154.995 171.118 153.97 171.763C152.954 172.397 151.758 172.715 150.381 172.715C149.062 172.715 147.847 172.378 146.733 171.704C145.63 171.03 144.756 170.107 144.111 168.936C143.467 167.764 143.145 166.484 143.145 165.098C143.145 163.711 143.467 162.437 144.111 161.274C144.756 160.112 145.63 159.199 146.733 158.535C147.847 157.871 149.062 157.539 150.381 157.539C151.758 157.539 152.959 157.861 153.984 158.506C155.01 159.141 155.786 160.039 156.313 161.201V151.416ZM150.791 170.649C152.383 170.649 153.701 170.127 154.746 169.082C155.791 168.027 156.313 166.699 156.313 165.098C156.313 163.506 155.791 162.188 154.746 161.143C153.701 160.098 152.383 159.575 150.791 159.575C149.248 159.575 147.944 160.112 146.88 161.187C145.825 162.261 145.298 163.564 145.298 165.098C145.298 166.66 145.825 167.979 146.88 169.053C147.944 170.117 149.248 170.649 150.791 170.649ZM163.813 151.475C164.233 151.475 164.604 151.631 164.927 151.943C165.249 152.256 165.41 152.622 165.41 153.042C165.41 153.472 165.249 153.848 164.927 154.17C164.604 154.482 164.233 154.639 163.813 154.639C163.384 154.639 163.018 154.482 162.715 154.17C162.412 153.857 162.261 153.481 162.261 153.042C162.261 152.622 162.412 152.256 162.715 151.943C163.018 151.631 163.384 151.475 163.813 151.475ZM162.7 157.847H164.897V172.422H162.7V157.847ZM170.391 159.736C171.846 158.271 173.633 157.539 175.752 157.539C177.871 157.539 179.658 158.271 181.113 159.736C182.578 161.191 183.311 162.988 183.311 165.127C183.311 167.266 182.578 169.067 181.113 170.532C179.658 171.987 177.871 172.715 175.752 172.715C173.633 172.715 171.846 171.987 170.391 170.532C168.945 169.067 168.223 167.266 168.223 165.127C168.223 162.988 168.945 161.191 170.391 159.736ZM175.752 159.619C174.238 159.619 172.964 160.146 171.929 161.201C170.894 162.256 170.376 163.564 170.376 165.127C170.376 166.68 170.894 167.988 171.929 169.053C172.964 170.117 174.238 170.649 175.752 170.649C177.266 170.649 178.545 170.117 179.59 169.053C180.635 167.979 181.157 166.67 181.157 165.127C181.157 163.574 180.635 162.271 179.59 161.216C178.555 160.151 177.275 159.619 175.752 159.619Z" fill="black"/>
</svg>
