<svg width="26" height="26" viewBox="0 0 26 26" fill="none" xmlns="http://www.w3.org/2000/svg">
<path fill-rule="evenodd" clip-rule="evenodd" d="M9.9905 2.00034C9.6861 2.25975 9.53388 2.38947 9.37133 2.49842C8.9987 2.74818 8.58022 2.92152 8.14012 3.0084C7.94814 3.04631 7.74879 3.06222 7.3501 3.09403C6.34837 3.17397 5.8475 3.21394 5.42963 3.36154C4.46314 3.70291 3.70291 4.46314 3.36154 5.42963C3.21394 5.8475 3.17397 6.34837 3.09403 7.3501C3.06222 7.74879 3.04631 7.94814 3.0084 8.14012C2.92152 8.58022 2.74818 8.9987 2.49842 9.37133C2.38947 9.53388 2.25976 9.68609 2.00034 9.9905C1.34854 10.7554 1.02263 11.1378 0.83152 11.5376C0.389494 12.4624 0.389494 13.5376 0.83152 14.4624C1.02263 14.8622 1.34853 15.2446 2.00034 16.0095C2.25973 16.3139 2.38948 16.4661 2.49842 16.6287C2.74818 17.0013 2.92152 17.4198 3.0084 17.8599C3.04631 18.0519 3.06222 18.2512 3.09403 18.6499C3.17397 19.6516 3.21394 20.1525 3.36154 20.5704C3.70291 21.5369 4.46314 22.2971 5.42963 22.6385C5.8475 22.7861 6.34837 22.826 7.3501 22.906C7.74879 22.9378 7.94814 22.9537 8.14012 22.9916C8.58022 23.0785 8.9987 23.2518 9.37133 23.5016C9.53388 23.6105 9.68609 23.7402 9.9905 23.9997C10.7554 24.6515 11.1378 24.9774 11.5376 25.1685C12.4624 25.6105 13.5376 25.6105 14.4624 25.1685C14.8622 24.9774 15.2446 24.6515 16.0095 23.9997C16.3139 23.7402 16.4661 23.6105 16.6287 23.5016C17.0013 23.2518 17.4198 23.0785 17.8599 22.9916C18.0519 22.9537 18.2512 22.9378 18.6499 22.906C19.6516 22.826 20.1525 22.7861 20.5704 22.6385C21.5369 22.2971 22.2971 21.5369 22.6385 20.5704C22.7861 20.1525 22.826 19.6516 22.906 18.6499C22.9378 18.2512 22.9537 18.0519 22.9916 17.8599C23.0785 17.4198 23.2518 17.0013 23.5016 16.6287C23.6105 16.4661 23.7402 16.3139 23.9997 16.0095C24.6515 15.2446 24.9774 14.8622 25.1685 14.4624C25.6105 13.5376 25.6105 12.4624 25.1685 11.5376C24.9774 11.1378 24.6515 10.7554 23.9997 9.9905C23.7402 9.68609 23.6105 9.53388 23.5016 9.37133C23.2518 8.9987 23.0785 8.58022 22.9916 8.14012C22.9537 7.94814 22.9378 7.74879 22.906 7.3501C22.826 6.34837 22.7861 5.8475 22.6385 5.42963C22.2971 4.46314 21.5369 3.70291 20.5704 3.36154C20.1525 3.21394 19.6516 3.17397 18.6499 3.09403C18.2512 3.06222 18.0519 3.04631 17.8599 3.0084C17.4198 2.92152 17.0013 2.74818 16.6287 2.49842C16.4661 2.38947 16.3139 2.25976 16.0095 2.00034C15.2446 1.34853 14.8622 1.02263 14.4624 0.83152C13.5376 0.389494 12.4624 0.389494 11.5376 0.83152C11.1378 1.02263 10.7554 1.34854 9.9905 2.00034ZM17.7886 8.21199C18.1859 8.60928 18.1859 9.25341 17.7886 9.6507L9.65004 17.7893C9.25275 18.1866 8.60862 18.1866 8.21133 17.7893C7.81404 17.392 7.81404 16.7479 8.21133 16.3506L16.3499 8.21199C16.7472 7.8147 17.3913 7.8147 17.7886 8.21199ZM17.7475 16.3917C17.7475 17.1409 17.1402 17.7482 16.3911 17.7482C15.6419 17.7482 15.0346 17.1409 15.0346 16.3917C15.0346 15.6426 15.6419 15.0353 16.3911 15.0353C17.1402 15.0353 17.7475 15.6426 17.7475 16.3917ZM9.6089 10.966C10.358 10.966 10.9653 10.3587 10.9653 9.60956C10.9653 8.86042 10.358 8.25313 9.6089 8.25313C8.85976 8.25313 8.25247 8.86042 8.25247 9.60956C8.25247 10.3587 8.85976 10.966 9.6089 10.966Z" fill="#495057"/>
</svg>
