<svg width="182" height="182" viewBox="0 0 182 182" fill="none" xmlns="http://www.w3.org/2000/svg">
<rect opacity="0.203637" x="72.0384" y="20.333" width="104.165" height="104.165" rx="29" transform="rotate(30 72.0384 20.333)" fill="#00CF84"/>
<path fill-rule="evenodd" clip-rule="evenodd" d="M93.7482 16.8224C92.2326 15.3068 89.7757 15.3068 88.2601 16.8224C86.7449 18.3376 86.7445 20.7949 88.2601 22.3105C89.7757 23.8261 92.233 23.8257 93.7482 22.3105C95.2638 20.7949 95.2638 18.338 93.7482 16.8224Z" fill="#00CF84"/>
<path fill-rule="evenodd" clip-rule="evenodd" d="M69.9356 40.6349C68.4201 39.1193 65.9631 39.1193 64.4475 40.6349C62.9323 42.1501 62.932 44.6074 64.4475 46.123C65.9631 47.6386 68.4204 47.6382 69.9356 46.123C71.4512 44.6074 71.4512 42.1505 69.9356 40.6349Z" fill="#00CF84"/>
<path fill-rule="evenodd" clip-rule="evenodd" d="M46.123 64.4477C44.6075 62.9321 42.1505 62.9321 40.635 64.4477C39.1194 65.9632 39.1194 68.4202 40.635 69.9357C42.1505 71.4513 44.6075 71.4513 46.123 69.9357C47.6386 68.4202 47.6386 65.9632 46.123 64.4477Z" fill="#00CF84"/>
<path fill-rule="evenodd" clip-rule="evenodd" d="M22.3105 88.2602C20.7949 86.7446 18.3376 86.745 16.8224 88.2602C15.3068 89.7757 15.3068 92.2327 16.8224 93.7482C18.338 95.2638 20.7949 95.2638 22.3105 93.7482C23.8257 92.233 23.8261 89.7757 22.3105 88.2602Z" fill="#00CF84"/>
<path fill-rule="evenodd" clip-rule="evenodd" d="M117.561 40.6352C116.045 39.1196 113.589 39.1196 112.073 40.6352C110.558 42.1504 110.557 44.6077 112.073 46.1232C113.589 47.6388 116.046 47.6384 117.561 46.1232C119.077 44.6077 119.077 42.1507 117.561 40.6352Z" fill="#00CF84"/>
<path fill-rule="evenodd" clip-rule="evenodd" d="M93.7485 64.4479C92.2329 62.9323 89.7759 62.9323 88.2604 64.4479C86.7452 65.9631 86.7448 68.4204 88.2604 69.936C89.7759 71.4516 92.2333 71.4512 93.7485 69.936C95.264 68.4204 95.264 65.9635 93.7485 64.4479Z" fill="#00CF84"/>
<path fill-rule="evenodd" clip-rule="evenodd" d="M69.9359 88.2604C68.4203 86.7448 65.9634 86.7448 64.4478 88.2604C62.9322 89.776 62.9322 92.2329 64.4478 93.7485C65.9634 95.2641 68.4203 95.2641 69.9359 93.7485C71.4515 92.2329 71.4515 89.776 69.9359 88.2604Z" fill="#00CF84"/>
<path fill-rule="evenodd" clip-rule="evenodd" d="M46.1233 112.073C44.6077 110.557 42.1504 110.558 40.6352 112.073C39.1197 113.588 39.1197 116.045 40.6352 117.561C42.1508 119.077 44.6077 119.077 46.1233 117.561C47.6385 116.046 47.6389 113.588 46.1233 112.073Z" fill="#00CF84"/>
<path fill-rule="evenodd" clip-rule="evenodd" d="M141.374 64.4479C139.858 62.9323 137.401 62.9323 135.886 64.4479C134.37 65.9631 134.37 68.4204 135.886 69.936C137.401 71.4516 139.858 71.4512 141.374 69.936C142.889 68.4204 142.889 65.9635 141.374 64.4479Z" fill="#00CF84"/>
<path fill-rule="evenodd" clip-rule="evenodd" d="M117.561 88.2604C116.045 86.7448 113.589 86.7448 112.073 88.2604C110.558 89.7756 110.557 92.2329 112.073 93.7485C113.589 95.2641 116.046 95.2637 117.561 93.7485C119.077 92.2329 119.077 89.776 117.561 88.2604Z" fill="#00CF84"/>
<path fill-rule="evenodd" clip-rule="evenodd" d="M93.7485 112.073C92.2329 110.557 89.7759 110.557 88.2604 112.073C86.7448 113.588 86.7448 116.045 88.2604 117.561C89.7759 119.077 92.2329 119.077 93.7485 117.561C95.264 116.045 95.264 113.588 93.7485 112.073Z" fill="#00CF84"/>
<path fill-rule="evenodd" clip-rule="evenodd" d="M69.9359 135.886C68.4203 134.37 65.963 134.37 64.4478 135.886C62.9322 137.401 62.9322 139.858 64.4478 141.374C65.9634 142.889 68.4203 142.889 69.9359 141.374C71.4511 139.859 71.4515 137.401 69.9359 135.886Z" fill="#00CF84"/>
<path fill-rule="evenodd" clip-rule="evenodd" d="M165.186 88.2604C163.671 86.7448 161.214 86.7448 159.698 88.2604C158.183 89.7756 158.183 92.2329 159.698 93.7485C161.214 95.2641 163.671 95.2637 165.186 93.7485C166.702 92.2329 166.702 89.776 165.186 88.2604Z" fill="#00CF84"/>
<path fill-rule="evenodd" clip-rule="evenodd" d="M141.374 112.073C139.858 110.557 137.401 110.557 135.886 112.073C134.37 113.588 134.37 116.045 135.886 117.561C137.401 119.077 139.858 119.076 141.374 117.561C142.889 116.045 142.889 113.588 141.374 112.073Z" fill="#00CF84"/>
<path fill-rule="evenodd" clip-rule="evenodd" d="M117.561 135.886C116.045 134.37 113.589 134.37 112.073 135.886C110.557 137.401 110.557 139.858 112.073 141.374C113.589 142.889 116.045 142.889 117.561 141.374C119.077 139.858 119.077 137.401 117.561 135.886Z" fill="#00CF84"/>
<path fill-rule="evenodd" clip-rule="evenodd" d="M93.7485 159.698C92.2329 158.183 89.7756 158.183 88.2604 159.698C86.7448 161.214 86.7448 163.671 88.2604 165.186C89.7759 166.702 92.2329 166.702 93.7485 165.186C95.2637 163.671 95.264 161.214 93.7485 159.698Z" fill="#00CF84"/>
</svg>
