<svg width="128" height="45" viewBox="0 0 128 45" fill="none" xmlns="http://www.w3.org/2000/svg">
<path d="M33.2321 0.886719H5.63405C2.62577 0.886719 0.187073 3.62825 0.187073 7.0101V38.0352C0.187073 41.4171 2.62577 44.1586 5.63405 44.1586H33.2321C36.2403 44.1586 38.679 41.4171 38.679 38.0352V7.0101C38.679 3.62825 36.2403 0.886719 33.2321 0.886719Z" fill="#F8FAF9"/>
<path d="M13.295 12.6147V14.0223L2.36053 12.6147H13.295ZM13.295 15.6175V17.025L2.36053 15.6175H13.295ZM13.295 18.6202V20.0277L2.36053 18.6202H13.295ZM13.295 21.6229V23.0304L2.36053 21.6229H13.295ZM13.295 24.6256V26.0331L2.36053 24.6256H13.295ZM13.295 27.6283V29.0358L2.36053 27.6283H13.295ZM13.295 30.6623V32.0698L2.36053 30.6623H13.295ZM23.1723 32.1636V24.9696H22.8662L20.5569 32.1636H14.1297V12.6147H19.6665L19.1657 23.5309H19.3327L22.9497 12.6147H27.151V23.5309H27.3179L30.295 12.6147H35.8318L30.1837 32.1636H23.1723Z" fill="#212429"/>
<path d="M68.2798 12.1262L62.806 31.0602H59.9427L56.8479 19.3685L53.7321 31.0602H50.8688L45.395 12.1262H48.8477L52.4057 24.3623L55.4795 12.1262H58.1743L61.248 24.386L64.8481 12.1262H68.2798ZM80.7011 17.3567L75.2273 33.6163C74.8203 34.8312 74.2869 35.7069 73.6273 36.2434C72.9676 36.7799 72.1816 37.0481 71.2693 37.0481C71.129 37.0481 70.9746 37.0363 70.8062 37.0126C70.6377 36.9889 70.4763 36.9534 70.3219 36.9061L69.3114 33.7347C69.55 33.8609 69.7956 33.9595 70.0482 34.0305C70.3009 34.1015 70.5395 34.137 70.764 34.137C71.2413 34.137 71.6763 34.0147 72.0693 33.7702C72.4623 33.5256 72.7641 33.072 72.9746 32.4093L73.3957 31.0366L68.7008 17.3567H72.0062L74.8062 26.1611L77.4379 17.3567H80.7011ZM93.2698 17.3804L88.7013 31.0839H85.7118L81.1222 17.3804H84.4486L87.2065 26.5634L89.9645 17.3804H93.2698ZM104.533 31.0602H101.481V30.3265C100.947 30.7368 100.382 31.0208 99.7858 31.1786C99.1893 31.3363 98.5752 31.4152 97.9436 31.4152C97.3542 31.4152 96.8208 31.3166 96.3436 31.1194C95.8664 30.9222 95.4524 30.6382 95.1015 30.2674C94.7506 29.8966 94.4804 29.4587 94.2909 28.9538C94.1014 28.4489 94.0067 27.8888 94.0067 27.2734C94.0067 26.5003 94.1576 25.8258 94.4594 25.2499C94.7611 24.6739 95.1717 24.1927 95.691 23.8061C96.2103 23.4196 96.8173 23.1316 97.5121 22.9423C98.2068 22.7529 98.9542 22.6583 99.7542 22.6583H101.502C101.502 21.8536 101.27 21.2145 100.807 20.7412C100.344 20.2678 99.677 20.0312 98.8068 20.0312C98.3858 20.0312 97.9507 20.1179 97.5015 20.2915C97.0524 20.4651 96.6033 20.7806 96.1541 21.2382L94.3646 19.2028C95.0102 18.5086 95.7576 17.9721 96.6068 17.5934C97.4559 17.2147 98.3296 17.0254 99.2279 17.0254C100.07 17.0254 100.821 17.1753 101.481 17.4751C102.14 17.7749 102.674 18.1614 103.081 18.6348C103.614 19.2344 103.989 19.9049 104.207 20.6465C104.424 21.3881 104.533 22.3348 104.533 23.4866V31.0602ZM101.481 27.6521V25.1197H100.091C99.67 25.1197 99.2735 25.1512 98.9016 25.2144C98.5296 25.2775 98.2068 25.384 97.9331 25.5339C97.6594 25.6838 97.4419 25.877 97.2805 26.1137C97.1191 26.3504 97.0384 26.6344 97.0384 26.9657C97.0384 27.4391 97.2033 27.8257 97.5331 28.1255C97.8629 28.4252 98.2875 28.5751 98.8068 28.5751C99.256 28.5751 99.7016 28.4962 100.144 28.3385C100.586 28.1807 101.031 27.9519 101.481 27.6521ZM113.628 30.7525C113.319 30.9734 112.962 31.1391 112.555 31.2496C112.147 31.36 111.74 31.4152 111.333 31.4152C110.618 31.4152 110.014 31.3166 109.523 31.1194C109.032 30.9222 108.639 30.6184 108.344 30.2082C108.049 29.798 107.835 29.2773 107.702 28.6461C107.568 28.015 107.502 27.2734 107.502 26.4214V20.4335H105.902V18.8951C106.884 18.4376 107.681 17.7591 108.291 16.8597C108.902 15.9604 109.319 14.7928 109.544 13.3569H110.533V17.3567H113.607V20.4335H110.533V26.6581C110.533 27.0052 110.572 27.2892 110.649 27.5101C110.726 27.731 110.828 27.9046 110.954 28.0308C111.081 28.157 111.225 28.2438 111.386 28.2911C111.547 28.3385 111.719 28.3621 111.902 28.3621C112.14 28.3621 112.428 28.3148 112.765 28.2201C113.102 28.1255 113.39 27.9677 113.628 27.7468V30.7525ZM127.986 24.1966C127.986 24.4175 127.976 24.6463 127.955 24.883C127.934 25.1197 127.909 25.3642 127.881 25.6167H118.155C118.267 26.0112 118.425 26.3859 118.628 26.7409C118.832 27.0959 119.081 27.4036 119.376 27.6639C119.67 27.9243 120.004 28.1294 120.376 28.2793C120.748 28.4292 121.158 28.5041 121.607 28.5041C122.155 28.5041 122.702 28.3976 123.25 28.1846C123.797 27.9716 124.253 27.6837 124.618 27.3208L126.534 29.4745C125.692 30.1845 124.867 30.6855 124.06 30.9774C123.253 31.2693 122.4 31.4152 121.502 31.4152C120.59 31.4152 119.737 31.2259 118.944 30.8472C118.151 30.4685 117.463 29.9557 116.881 29.3088C116.298 28.6619 115.839 27.9006 115.502 27.0249C115.165 26.1492 114.997 25.2144 114.997 24.2203C114.997 23.2263 115.165 22.2914 115.502 21.4157C115.839 20.54 116.302 19.7787 116.891 19.1318C117.481 18.4849 118.169 17.9721 118.955 17.5934C119.741 17.2147 120.583 17.0254 121.481 17.0254C122.337 17.0254 123.158 17.2029 123.944 17.5579C124.73 17.9129 125.425 18.406 126.029 19.0371C126.632 19.6683 127.109 20.4217 127.46 21.2974C127.811 22.1731 127.986 23.1395 127.986 24.1966ZM124.807 22.8713C124.569 22.0035 124.144 21.3053 123.534 20.7767C122.923 20.2481 122.232 19.9838 121.46 19.9838C120.702 19.9838 120.021 20.2481 119.418 20.7767C118.814 21.3053 118.393 22.0035 118.155 22.8713H124.807Z" fill="#F8FAF9"/>
</svg>
