<svg width="24" height="31" viewBox="0 0 24 31" fill="none" xmlns="http://www.w3.org/2000/svg">
<path d="M10.745 14.3895L0.0979614 27.428C0.0989614 27.4303 0.0989613 27.4326 0.0999613 27.4349C0.425961 28.8518 1.54696 29.8938 2.87696 29.8938C3.40896 29.8938 3.90796 29.7276 4.33596 29.4368L4.36996 29.4138L16.354 21.4349L10.745 14.3895Z" fill="#EB4335"/>
<path d="M21.5161 12.1696L21.5061 12.1615L16.3321 8.69995L10.5031 14.685L16.3521 21.4326L21.4991 18.0069C22.4011 17.445 23.0131 16.3476 23.0131 15.0819C23.0131 13.8253 22.4091 12.7326 21.5161 12.1696Z" fill="#FABC13"/>
<path d="M0.0979996 2.68152C0.0339996 2.95383 0 3.23883 0 3.53536V26.5742C0 26.8708 0.0329996 27.1569 0.0979996 27.4281L11.111 14.7231L0.0979996 2.68152Z" fill="#547DBF"/>
<path d="M10.823 15.0542L16.334 8.69762L4.36296 0.689929C3.92796 0.388775 3.42096 0.215698 2.87696 0.215698C1.54696 0.215698 0.424961 1.25993 0.0979614 2.67801V2.68147L10.823 15.0542Z" fill="#30A851"/>
</svg>
