<svg width="96" height="97" viewBox="0 0 120 179" fill="none" xmlns="http://www.w3.org/2000/svg">
<path d="M76.4842 36.0499C71.2918 40.9255 64.4953 46.4717 57.0671 51.7989C49.6387 57.1261 42.2056 61.7844 35.9221 65.1386L27.4238 53.2884C32.6165 48.4126 39.4127 42.8666 46.8411 37.5394C54.2696 32.2122 61.7026 27.5539 67.9861 24.1997L76.4842 36.0499Z" fill="#20B978"/>
<path d="M30.4424 57.4986L27.4238 53.2893C32.6165 48.4136 39.4127 42.8676 46.8411 37.5404C54.2696 32.2131 61.7026 27.5549 67.9861 24.2007L71.0047 28.41C64.7212 31.7642 57.2882 36.4225 49.8597 41.7497C42.4312 47.0769 35.6351 52.6229 30.4424 57.4986Z" fill="#23CB83"/>
<path d="M6.35789 60.1978L1.78841 63.4746C-0.23898 64.9286 -0.596859 67.9325 0.993492 70.1498L11.4744 84.7647C13.0648 86.9823 16.0244 87.6068 18.0521 86.1528L22.6216 82.8757L6.35789 60.1978Z" fill="#24C782"/>
<path d="M15.6024 81.8048L5.12142 67.1899C3.53107 64.9726 3.88895 61.9687 5.9166 60.5146L1.78846 63.4748C-0.23893 64.9288 -0.59681 67.9327 0.993288 70.1501L11.4742 84.765C13.0646 86.9826 16.0245 87.607 18.0519 86.153L22.1797 83.1928C20.1524 84.6469 17.1925 84.0221 15.6024 81.8048Z" fill="#20B978"/>
<path d="M81.2881 6.46292L85.8576 3.18586C87.8849 1.73183 90.8448 2.35654 92.4352 4.57387L102.916 19.1888C104.506 21.4064 104.149 24.41 102.121 25.864L97.5517 29.1411L81.2881 6.46292Z" fill="#20B978"/>
<path d="M85.9372 3.13623C85.9112 3.15419 85.8834 3.16835 85.8576 3.18707L81.2881 6.46413L97.5515 29.1423L102.121 25.8652C102.147 25.8468 102.169 25.825 102.195 25.8061L85.9372 3.13623Z" fill="#1CA567"/>
<path d="M100.786 37.9706L87.9016 47.2105C86.5452 48.1832 84.6392 47.8693 83.6665 46.5129L60.379 14.0405C59.4063 12.6841 59.7201 10.7781 61.0765 9.80538L73.961 0.565516C75.3174 -0.407208 77.2234 -0.0933355 78.1961 1.26306L101.483 33.7355C102.456 35.0919 102.142 36.9976 100.786 37.9706Z" fill="#20B978"/>
<path d="M87.8434 43.4154L64.6536 11.0788C63.6541 9.68493 63.9765 7.72659 65.3704 6.72705L61.1466 9.756C59.7528 10.7555 59.4301 12.7139 60.4299 14.1077L83.6197 46.4443C84.6192 47.8382 86.5776 48.1606 87.9714 47.1611L92.1951 44.1322C90.8013 45.1317 88.843 44.8092 87.8434 43.4154Z" fill="#23CB83"/>
<path d="M42.8307 79.5341L29.9462 88.774C28.5898 89.7467 26.6838 89.4328 25.7111 88.0764L2.42391 55.604C1.45119 54.2476 1.76506 52.3416 3.12146 51.3689L16.0059 42.129C17.3623 41.1563 19.2683 41.4701 20.241 42.8265L43.5282 75.299C44.5012 76.6556 44.1873 78.5614 42.8307 79.5341Z" fill="#20B978"/>
<path d="M29.8691 84.993L6.6793 52.6564C5.67976 51.2626 6.00223 49.3042 7.39607 48.3047L3.19155 51.32C1.79772 52.3195 1.475 54.2779 2.47478 55.6717L25.6646 88.0083C26.6641 89.4021 28.6225 89.7249 30.0163 88.7251L34.2208 85.7098C32.827 86.7093 30.8687 86.3869 29.8691 84.993Z" fill="#20B978"/>
<path d="M98.1908 80.9018C91.1298 79.9657 82.3748 79.4194 73.2336 79.4194C64.0924 79.4194 55.3373 79.9657 48.2764 80.9018V95.4843C55.3376 96.4203 64.0924 96.9667 73.2336 96.9667C82.3748 96.9667 91.1298 96.4203 98.1908 95.4843V80.9018Z" fill="#C3C8D1"/>
<path d="M48.2764 90.3037V95.4835C55.3376 96.4195 64.0924 96.9658 73.2336 96.9658C82.3748 96.9658 91.1298 96.4195 98.1908 95.4835V90.3037C91.1298 91.2398 82.3748 91.7861 73.2336 91.7861C64.0924 91.7861 55.3376 91.2398 48.2764 90.3037Z" fill="#B4B8BF"/>
<path d="M27.1302 74.2388H21.507C19.012 74.2388 16.9707 76.4713 16.9707 79.2V97.1845C16.9707 99.9133 19.012 102.146 21.507 102.146H27.1302V74.2388Z" fill="#E4EAF8"/>
<path d="M22.0513 97.1845V79.2C22.0513 76.4713 24.0926 74.2388 26.5876 74.2388H21.508C19.013 74.2388 16.9717 76.4713 16.9717 79.2V97.1845C16.9717 99.9133 19.013 102.146 21.508 102.146H26.5876C24.0926 102.146 22.0513 99.9133 22.0513 97.1845Z" fill="#D8DCE5"/>
<path d="M116.819 111.207H100.964C99.295 111.207 97.9292 109.842 97.9292 108.172V68.2128C97.9292 66.5435 99.295 65.1777 100.964 65.1777H116.819C118.489 65.1777 119.854 66.5435 119.854 68.2128V108.172C119.854 109.842 118.489 111.207 116.819 111.207Z" fill="#E4EAF8"/>
<path d="M103.127 108.089V68.2967C103.127 66.5814 104.53 65.1782 106.245 65.1782H101.048C99.3324 65.1782 97.9292 66.5817 97.9292 68.2967V108.089C97.9292 109.804 99.3326 111.208 101.048 111.208H106.245C104.53 111.208 103.127 109.804 103.127 108.089Z" fill="#D8DCE5"/>
<path d="M45.4986 111.208H29.6434C27.9742 111.208 26.6084 109.842 26.6084 108.173V68.2132C26.6084 66.544 27.9742 65.1782 29.6434 65.1782H45.4986C47.1679 65.1782 48.5336 66.544 48.5336 68.2132V108.173C48.5336 109.842 47.1679 111.208 45.4986 111.208Z" fill="#E4EAF8"/>
<path d="M31.7824 108.089V68.2972C31.7824 66.5819 33.1858 65.1787 34.9008 65.1787H29.7269C28.0116 65.1787 26.6084 66.5822 26.6084 68.2972V108.09C26.6084 109.805 28.0118 111.208 29.7269 111.208H34.9008C33.1858 111.208 31.7824 109.805 31.7824 108.089Z" fill="#D8DCE5"/>
<path d="M48.8408 161.046C48.8994 161.437 48.9287 161.916 48.9287 162.482C48.9287 164.367 48.4941 166.076 47.625 167.609C46.7559 169.142 45.5596 170.343 44.0361 171.212C42.5127 172.072 40.8232 172.501 38.9678 172.501C37.0146 172.501 35.2324 172.028 33.6211 171.081C32.0195 170.124 30.7598 168.815 29.8418 167.155C28.9238 165.495 28.4648 163.659 28.4648 161.647C28.4648 160.153 28.7383 158.742 29.2852 157.414C29.832 156.085 30.5693 154.948 31.4971 154C32.4248 153.043 33.5381 152.292 34.8369 151.745C36.1357 151.188 37.5127 150.91 38.9678 150.91C40.374 150.91 41.7461 151.203 43.084 151.789C44.4316 152.365 45.5742 153.146 46.5117 154.132C47.459 155.119 48.1035 156.193 48.4453 157.355H45.8965C45.4375 156.134 44.5391 155.119 43.2012 154.308C41.873 153.498 40.4619 153.092 38.9678 153.092C37.4639 153.092 36.0869 153.468 34.8369 154.22C33.5869 154.962 32.6006 155.993 31.8779 157.311C31.165 158.62 30.8086 160.065 30.8086 161.647C30.8086 163.258 31.165 164.728 31.8779 166.056C32.6006 167.375 33.5967 168.415 34.8662 169.176C36.1357 169.938 37.542 170.319 39.085 170.319C41.1162 170.319 42.8447 169.655 44.2705 168.327C45.7061 166.989 46.5068 165.304 46.6729 163.273H39.4512V161.046H48.8408ZM62.8594 157.633H65.2031L56.7656 177.731H54.4219L56.9414 171.945L50.9209 157.633H53.2939L58.0547 169.381L62.8594 157.633ZM84.8467 157.326C86.6631 157.326 88.1035 157.877 89.168 158.981C90.2422 160.075 90.7793 161.574 90.7793 163.478V172.208H88.5967V163.874C88.5967 162.477 88.2305 161.383 87.498 160.592C86.7754 159.801 85.7793 159.406 84.5098 159.406C83.9922 159.406 83.499 159.489 83.0303 159.655C82.5615 159.821 82.1221 160.075 81.7119 160.417C81.3115 160.758 80.9893 161.227 80.7451 161.823C80.5107 162.418 80.3936 163.102 80.3936 163.874V172.208H78.2109V163.874C78.2109 162.477 77.8447 161.383 77.1123 160.592C76.3896 159.801 75.3936 159.406 74.124 159.406C73.6162 159.406 73.1279 159.489 72.6592 159.655C72.2002 159.811 71.7656 160.06 71.3555 160.402C70.9551 160.734 70.6328 161.198 70.3887 161.793C70.1445 162.389 70.0225 163.083 70.0225 163.874V172.208H67.8252V157.633H70.0225V160.153C70.501 159.196 71.1699 158.488 72.0293 158.029C72.8887 157.56 73.8066 157.326 74.7832 157.326C77.293 157.326 78.9678 158.375 79.8076 160.475C80.2178 159.479 80.8818 158.708 81.7998 158.161C82.7178 157.604 83.7334 157.326 84.8467 157.326Z" fill="black"/>
</svg>
