<svg width="371" height="513" viewBox="0 0 371 513" fill="none" xmlns="http://www.w3.org/2000/svg">
<mask id="mask0_340_1838" style="mask-type:luminance" maskUnits="userSpaceOnUse" x="0" y="0" width="371" height="513">
<path d="M370.547 0H-6.10352e-05V512.177H370.547V0Z" fill="white"/>
</mask>
<g mask="url(#mask0_340_1838)">
<mask id="mask1_340_1838" style="mask-type:luminance" maskUnits="userSpaceOnUse" x="-1" y="-1" width="372" height="514">
<path d="M370.566 -0.0218506H-0.0212708V512.182H370.566V-0.0218506Z" fill="white"/>
</mask>
<g mask="url(#mask1_340_1838)">
<path d="M303.397 217.701C303.397 217.701 275.427 273.655 247.015 312.28C235.71 327.653 224.335 340.279 214.626 345.544C205.123 350.697 197.078 358.703 190.421 367.574C173.18 390.544 165.223 419.302 165.223 419.302L92.5711 309.388C92.5711 309.388 95.0502 201.946 103.773 183.974C116.487 157.784 122.628 104.866 127.513 94.3312C131.136 86.5159 141.484 46.1464 142.476 43.1796C142.907 41.9014 146.35 39.9412 150.821 39.9447C154.409 39.9447 160.501 43.4128 162.038 50.5396C169.807 86.5618 160.455 110.322 160.561 111.378C163.302 139.063 155.063 159.613 160.84 165.055C161.056 165.256 161.455 165.161 162.02 164.801C172.036 158.37 234.199 67.7421 241.855 65.7854C249.942 63.723 303.397 217.701 303.397 217.701Z" fill="#EFA26F"/>
<path d="M192.401 403.429V484.5C192.401 484.5 133.896 468.119 93.3374 445.049C52.7785 421.979 30.1656 392.22 30.1656 392.22C32.2115 387.857 78.3079 347.664 78.3079 347.664" fill="#626272"/>
<path d="M366.917 28.3301L344.418 61.3123L322.341 93.6798C320.995 95.3037 319.437 95.8685 317.751 95.7061C312.453 95.2033 305.898 87.5619 300.79 83.3316L300.272 82.906C293.535 77.3335 292.584 67.2637 298.156 60.531L331.9 19.7411V19.7373L341.908 7.64126C347.481 0.904774 357.55 -0.0465468 364.283 5.52568L364.801 5.95126C371.538 11.5238 372.489 21.5936 366.917 28.3301Z" fill="#FFB27D"/>
<path d="M344.42 61.3121L322.343 93.6796C320.997 95.3035 319.438 95.8683 317.753 95.7059L331.902 19.741C331.933 20.1666 334.338 54.2508 344.42 61.3121Z" fill="#EFA26F"/>
<path d="M247.014 312.28C235.71 327.653 224.334 340.278 214.626 345.544C205.122 350.697 197.078 358.703 190.42 367.574C182.763 364.005 174.034 359.817 165.503 355.67C155.114 350.621 154.715 335.869 164.891 330.402C164.991 330.349 165.088 330.295 165.184 330.24C174.719 324.784 184.49 305.519 184.49 305.519L247.014 312.28Z" fill="#D38254"/>
<path d="M141.97 44.8506L136.083 68.6163C136.083 68.6163 141.229 70.7213 144.534 69.0868C147.839 67.452 150.536 46.13 141.97 44.8506Z" fill="#FFC197"/>
<path d="M311.258 323.51H184.676C172.226 323.51 162.039 313.323 162.039 300.872V22.6383C162.039 10.1874 172.226 0.00012207 184.676 0.00012207H311.258C323.709 0.00012207 333.896 10.1874 333.896 22.6383V300.872C333.896 313.323 323.709 323.51 311.258 323.51Z" fill="black"/>
<path d="M325.379 24.7811V296.566C325.379 305.786 317.889 313.328 308.739 313.328H187.195C178.045 313.328 170.558 305.786 170.558 296.566V24.7811C170.558 15.5608 178.045 8.01892 187.195 8.01892H308.739C317.889 8.01892 325.379 15.5608 325.379 24.7811Z" fill="#F2F2F2"/>
<path d="M308.738 8.01892L188.698 313.328H187.194C178.044 313.328 170.557 305.786 170.557 296.566V24.7811C170.557 15.5608 178.044 8.01892 187.194 8.01892H308.738Z" fill="white"/>
<path d="M273.369 18.126H222.57C218.432 18.126 215.046 14.7404 215.046 10.6023V9.41957C215.046 5.28181 218.432 1.89624 222.57 1.89624H273.369C277.506 1.89624 280.892 5.28181 280.892 9.41957V10.6023C280.892 14.7404 277.506 18.126 273.369 18.126Z" fill="black"/>
<path d="M355.717 152.883L352.362 154.158L329.801 162.731C329.273 162.932 328.737 163.104 328.202 163.238C320.731 165.18 312.783 161.198 309.982 153.826L309.651 152.959C306.649 145.059 310.656 136.138 318.556 133.136L339.589 125.144L341.118 124.562L344.473 123.287C352.373 120.285 361.291 124.293 364.292 132.193L364.623 133.06C367.625 140.96 363.618 149.881 355.717 152.883Z" fill="#FFB27D"/>
<path d="M337.396 153.4C333.631 154.827 326.814 157.359 323.169 157.883C322.138 158.032 320.237 157.471 318.463 155.528C317.399 154.366 316.381 152.708 315.626 150.41C315.271 149.33 314.979 148.254 314.855 147.144C314.715 145.845 314.752 144.546 314.979 143.26C315.185 142.101 315.977 141.045 317.131 140.488C317.136 140.485 317.144 140.485 317.148 140.48C321.024 138.628 326.249 136.373 330.831 135.115C333.998 134.241 337.203 135.638 338.205 138.41L338.679 139.705L341.099 146.336C342.102 149.091 340.473 152.241 337.396 153.4Z" fill="#FFD3B6"/>
<path d="M337.396 153.4C333.631 154.827 326.814 157.359 323.168 157.883C322.137 158.032 320.236 157.471 318.463 155.528C318.273 155.087 318.1 154.621 317.935 154.122C317.58 153.041 317.287 151.965 317.164 150.856C317.023 149.557 317.06 148.258 317.287 146.971C317.493 145.812 318.286 144.757 319.44 144.2C319.444 144.196 319.452 144.196 319.457 144.191C323.333 142.34 328.558 140.084 333.14 138.826C335.169 138.266 337.21 138.637 338.678 139.705L341.099 146.336C342.101 149.091 340.472 152.241 337.396 153.4Z" fill="#FFC197"/>
<path d="M345.48 184.602L328.082 189.339C322.795 190.778 317.292 187.63 315.852 182.343L315.316 180.374C313.877 175.087 317.025 169.585 322.311 168.145L339.71 163.408C344.996 161.969 350.5 165.117 351.939 170.404L352.475 172.373C353.914 177.66 350.766 183.163 345.48 184.602Z" fill="#FFB27D"/>
<path d="M336.072 183.749C332.876 184.602 327.098 186.108 324.071 186.272C322.97 186.334 320.764 185.402 319.324 182.507C318.97 181.806 318.669 180.994 318.434 180.053C318.223 179.2 318.062 178.354 318.046 177.497C318.026 176.486 318.153 175.492 318.434 174.519C318.685 173.641 319.415 172.882 320.401 172.532C320.409 172.527 320.413 172.527 320.417 172.523C323.733 171.352 328.187 169.954 332.039 169.282C334.699 168.816 337.222 170.094 337.845 172.288L338.294 173.855L339.635 178.561C340.253 180.738 338.683 183.056 336.072 183.749Z" fill="#FFD3B6"/>
<path d="M336.072 183.748C332.876 184.602 327.098 186.107 324.071 186.272C322.97 186.334 320.764 185.402 319.324 182.507C319.131 181.711 318.991 180.915 318.974 180.107C318.954 179.101 319.081 178.103 319.361 177.129C319.613 176.255 320.343 175.492 321.329 175.142C321.337 175.138 321.341 175.138 321.345 175.133C324.661 173.962 329.115 172.564 332.967 171.896C335.169 171.509 337.28 172.321 338.294 173.855L339.635 178.56C340.253 180.738 338.682 183.055 336.072 183.748Z" fill="#FFC197"/>
<path d="M60.4661 384.722C60.4661 384.722 96.2773 419.021 120.419 432.264L138.697 419.3V438.425C138.697 438.425 174.644 444.782 185.983 438.425V386.27L85.0165 335.655L60.4661 384.722Z" fill="#A6A9A8"/>
<path d="M92.5734 305.519C92.5734 305.519 69.8316 339.54 47.2292 375.916C47.2292 375.916 94.8619 408.684 120.687 418.295L154.559 379.501L149.724 426.2C149.724 426.2 179.701 437.127 193.609 434.274C193.609 434.274 192.731 391.909 192.741 364.153C192.741 364.153 110.333 341.054 92.5734 305.519Z" fill="#F3F8FF"/>
<path d="M98.1666 391.857C98.1954 388.743 100.743 386.242 103.857 386.271C106.97 386.3 109.471 388.847 109.443 391.961C109.414 395.075 106.866 397.576 103.752 397.547C100.639 397.518 98.1378 394.971 98.1666 391.857Z" fill="#626272"/>
<path d="M355.168 119.539C355.045 119.584 354.921 119.625 354.793 119.667L331.984 125.523C321.954 128.1 311.582 122.673 308.935 113.464L307.578 108.746C305.034 99.9046 310.502 90.6587 319.822 87.6608L327.352 85.7264L342.632 81.8046C352.661 79.2273 363.033 84.6544 365.68 93.863L367.037 98.5809C369.544 107.303 364.257 116.413 355.168 119.539Z" fill="#FFB27D"/>
<path d="M344.716 113.171L333.635 118.165C333.618 118.17 333.598 118.174 333.565 118.182C333.12 118.302 332.67 118.392 332.225 118.458C332.039 118.487 331.85 118.508 331.664 118.528C331.585 118.537 331.507 118.537 331.429 118.533C330.208 118.491 329.371 117.196 329.899 116.042C330.946 113.761 331.231 111.122 330.525 108.528L330.262 107.563C330.262 107.555 330.257 107.542 330.253 107.534L329.396 104.388C328.715 101.88 327.268 99.781 325.379 98.2634C325.152 98.0778 324.917 97.9045 324.678 97.7394C322.488 96.2221 323.045 92.7866 325.61 92.0732C325.635 92.065 325.655 92.0609 325.68 92.0527L337.842 90.2135C340.848 89.397 343.743 91.7105 344.564 94.7169L345.541 98.3004L347.62 105.942C348.435 108.953 347.722 112.355 344.716 113.171Z" fill="#FFD3B6"/>
<path d="M344.716 113.171L333.635 118.165C333.618 118.17 333.598 118.174 333.565 118.182C333.305 118.231 332.493 118.367 331.429 118.533C330.208 118.491 329.371 117.196 329.899 116.042C330.946 113.761 331.231 111.122 330.525 108.528L330.262 107.563C330.262 107.555 330.257 107.542 330.253 107.534L329.396 104.388C328.715 101.88 327.268 99.781 325.379 98.2634C325.771 97.6901 326.356 97.2366 327.123 97.0219C327.144 97.0137 327.169 97.0096 327.194 97.0014L339.355 95.1622C341.887 94.4734 344.337 96.0078 345.541 98.3004L347.62 105.942C348.435 108.953 347.722 112.355 344.716 113.171Z" fill="#FFC197"/>
<path d="M162.037 238.183C162.037 238.183 157.061 194.745 152.469 186.276C147.878 177.803 143.994 160.841 151.057 148.237C158.12 135.629 160.56 111.378 160.56 111.378C163.301 139.062 155.062 159.612 160.839 165.054C161.055 165.256 161.454 165.16 162.019 164.8L162.037 238.183Z" fill="#D38254"/>
</g>
</g>
</svg>
