<svg width="380" height="56" viewBox="0 0 380 56" fill="none" xmlns="http://www.w3.org/2000/svg">
<path d="M45.0817 4.97559H13.6359C10.2082 4.97559 7.42947 7.76696 7.42947 11.2103V42.7995C7.42947 46.2429 10.2082 49.0342 13.6359 49.0342H45.0817C48.5094 49.0342 51.2881 46.2429 51.2881 42.7995V11.2103C51.2881 7.76696 48.5094 4.97559 45.0817 4.97559Z" fill="black"/>
<path d="M22.365 16.917V18.3501L9.90598 16.917H22.365ZM22.365 19.9743V21.4074L9.90598 19.9743H22.365ZM22.365 23.0316V24.4647L9.90598 23.0316H22.365ZM22.365 26.0889V27.522L9.90598 26.0889H22.365ZM22.365 29.1462V30.5793L9.90598 29.1462H22.365ZM22.365 32.2035V33.6366L9.90598 32.2035H22.365ZM22.365 35.2927V36.7258L9.90598 35.2927H22.365ZM33.6193 36.8213V29.4965H33.2706L30.6393 36.8213H23.3161V16.917H29.6248L29.0542 28.0316H29.2444L33.3657 16.917H38.1528V28.0316H38.343L41.7351 16.917H48.0439L41.6083 36.8213H33.6193Z" fill="#00CF84"/>
<path d="M85.0159 16.4194L78.7789 35.6977H75.5165L71.9902 23.7934L68.4399 35.6977H65.1775L58.9405 16.4194H62.8746L66.9286 28.878L70.4309 16.4194H73.5014L77.0037 28.9021L81.1058 16.4194H85.0159ZM99.169 21.7451L92.9321 38.3003C92.4683 39.5373 91.8606 40.4289 91.1089 40.9751C90.3573 41.5213 89.4617 41.7944 88.4222 41.7944C88.2623 41.7944 88.0864 41.7824 87.8945 41.7583C87.7026 41.7342 87.5187 41.6981 87.3428 41.6499L86.1913 38.4207C86.4632 38.5493 86.743 38.6497 87.0309 38.722C87.3188 38.7943 87.5906 38.8304 87.8465 38.8304C88.3902 38.8304 88.886 38.7059 89.3338 38.4569C89.7816 38.2079 90.1254 37.746 90.3653 37.0713L90.8451 35.6736L85.4956 21.7451H89.2618L92.4523 30.7094L95.4508 21.7451H99.169ZM113.49 21.7692L108.285 35.7218H104.878L99.6488 21.7692H103.439L106.581 31.1191L109.724 21.7692H113.49ZM126.324 35.6977H122.846V34.9507C122.238 35.3684 121.594 35.6575 120.915 35.8182C120.235 35.9788 119.535 36.0592 118.816 36.0592C118.144 36.0592 117.536 35.9588 116.992 35.7579C116.449 35.5571 115.977 35.2679 115.577 34.8904C115.177 34.5129 114.869 34.0671 114.654 33.553C114.438 33.0389 114.33 32.4686 114.33 31.842C114.33 31.0548 114.502 30.3681 114.845 29.7817C115.189 29.1953 115.657 28.7053 116.249 28.3117C116.841 27.9181 117.532 27.6249 118.324 27.4321C119.115 27.2394 119.967 27.143 120.879 27.143H122.87C122.87 26.3236 122.606 25.673 122.078 25.191C121.55 24.7091 120.791 24.4681 119.799 24.4681C119.319 24.4681 118.824 24.5565 118.312 24.7332C117.8 24.9099 117.288 25.2312 116.777 25.6971L114.738 23.6247C115.473 22.9178 116.325 22.3716 117.292 21.986C118.26 21.6005 119.255 21.4077 120.279 21.4077C121.238 21.4077 122.094 21.5603 122.846 21.8655C123.597 22.1708 124.205 22.5644 124.669 23.0463C125.276 23.6568 125.704 24.3396 125.952 25.0947C126.2 25.8497 126.324 26.8136 126.324 27.9864V35.6977ZM122.846 32.2276V29.6491H121.262C120.783 29.6491 120.331 29.6813 119.907 29.7455C119.483 29.8098 119.115 29.9182 118.804 30.0709C118.492 30.2235 118.244 30.4203 118.06 30.6612C117.876 30.9022 117.784 31.1914 117.784 31.5288C117.784 32.0107 117.972 32.4043 118.348 32.7096C118.724 33.0148 119.207 33.1674 119.799 33.1674C120.311 33.1674 120.819 33.0871 121.322 32.9264C121.826 32.7658 122.334 32.5328 122.846 32.2276ZM136.687 35.3844C136.335 35.6093 135.927 35.778 135.464 35.8905C135 36.0029 134.536 36.0592 134.072 36.0592C133.257 36.0592 132.569 35.9588 132.009 35.7579C131.449 35.5571 131.002 35.2479 130.666 34.8302C130.33 34.4125 130.086 33.8823 129.934 33.2397C129.782 32.5971 129.706 31.842 129.706 30.9745V24.8778H127.883V23.3114C129.003 22.8455 129.91 22.1547 130.606 21.239C131.302 20.3233 131.777 19.1345 132.033 17.6725H133.161V21.7451H136.663V24.8778H133.161V31.2155C133.161 31.5689 133.205 31.8581 133.293 32.083C133.381 32.3079 133.496 32.4846 133.64 32.6132C133.784 32.7417 133.948 32.8301 134.132 32.8782C134.316 32.9264 134.512 32.9505 134.72 32.9505C134.992 32.9505 135.32 32.9023 135.703 32.806C136.087 32.7096 136.415 32.5489 136.687 32.324V35.3844ZM153.047 28.7093C153.047 28.9342 153.035 29.1672 153.011 29.4082C152.987 29.6491 152.959 29.8981 152.927 30.1552H141.844C141.972 30.5568 142.152 30.9384 142.384 31.2998C142.616 31.6613 142.9 31.9746 143.236 32.2397C143.572 32.5047 143.951 32.7136 144.375 32.8662C144.799 33.0188 145.267 33.0951 145.779 33.0951C146.402 33.0951 147.026 32.9867 147.65 32.7698C148.273 32.5529 148.793 32.2597 149.209 31.8902L151.392 34.0831C150.432 34.8061 149.493 35.3161 148.573 35.6133C147.654 35.9106 146.682 36.0592 145.659 36.0592C144.619 36.0592 143.648 35.8664 142.744 35.4808C141.84 35.0952 141.057 34.5731 140.393 33.9145C139.729 33.2558 139.206 32.4806 138.822 31.589C138.438 30.6974 138.246 29.7455 138.246 28.7334C138.246 27.7213 138.438 26.7694 138.822 25.8778C139.206 24.9862 139.733 24.2111 140.405 23.5524C141.077 22.8937 141.86 22.3716 142.756 21.986C143.652 21.6005 144.611 21.4077 145.635 21.4077C146.61 21.4077 147.546 21.5884 148.441 21.9499C149.337 22.3114 150.128 22.8134 150.816 23.456C151.504 24.0986 152.048 24.8657 152.447 25.7573C152.847 26.649 153.047 27.633 153.047 28.7093ZM149.425 27.3598C149.153 26.4763 148.669 25.7654 147.973 25.2272C147.278 24.689 146.49 24.4199 145.611 24.4199C144.747 24.4199 143.971 24.689 143.284 25.2272C142.596 25.7654 142.116 26.4763 141.844 27.3598H149.425Z" fill="#17B978"/>
<line x1="176.5" y1="2.5" x2="176.5" y2="53.5" stroke="#495057"/>
<path d="M203.875 39.2441C202.248 39.2441 200.763 38.8494 199.42 38.0601C198.085 37.2707 197.035 36.1842 196.271 34.8008C195.506 33.4173 195.123 31.8833 195.123 30.1987C195.123 28.5386 195.506 27.0249 196.271 25.6577C197.035 24.2905 198.085 23.2163 199.42 22.4351C200.763 21.6457 202.248 21.251 203.875 21.251C205.853 21.251 207.603 21.8247 209.125 22.9722C210.646 24.1115 211.562 25.556 211.871 27.3057H209.198C208.897 26.207 208.25 25.3118 207.257 24.6201C206.272 23.9202 205.145 23.5703 203.875 23.5703C202.712 23.5703 201.65 23.8633 200.689 24.4492C199.729 25.027 198.972 25.8245 198.419 26.8418C197.874 27.859 197.601 28.978 197.601 30.1987C197.601 32.0949 198.203 33.6899 199.408 34.9839C200.612 36.2778 202.101 36.9248 203.875 36.9248C205.169 36.9248 206.313 36.5586 207.306 35.8262C208.299 35.0856 208.937 34.1335 209.222 32.9697H211.92C211.562 34.8252 210.634 36.3348 209.137 37.4985C207.647 38.6623 205.894 39.2441 203.875 39.2441ZM226.361 37.291C225.083 38.5931 223.476 39.2441 221.539 39.2441C219.602 39.2441 217.991 38.5931 216.705 37.291C215.427 35.9889 214.789 34.3573 214.789 32.396V21.4951H217.218V32.396C217.218 33.6899 217.625 34.7642 218.438 35.6187C219.26 36.4731 220.294 36.9004 221.539 36.9004C222.784 36.9004 223.818 36.4731 224.64 35.6187C225.462 34.7642 225.873 33.6899 225.873 32.396V21.4951H228.29V32.396C228.29 34.3573 227.647 35.9889 226.361 37.291ZM237.518 39.2441C235.671 39.2441 234.141 38.6989 232.928 37.6084C231.716 36.5098 231.109 35.1304 231.109 33.4702H233.49C233.49 34.5037 233.864 35.346 234.613 35.9971C235.37 36.6481 236.338 36.9736 237.518 36.9736C238.625 36.9736 239.532 36.7132 240.24 36.1924C240.956 35.6634 241.314 34.9839 241.314 34.1538C241.314 33.6737 241.201 33.2586 240.973 32.9087C240.745 32.5506 240.44 32.2658 240.057 32.0542C239.675 31.8345 239.235 31.6432 238.739 31.4805C238.242 31.3177 237.717 31.1672 237.164 31.0288C236.611 30.8905 236.057 30.744 235.504 30.5894C234.959 30.4347 234.438 30.2394 233.941 30.0034C233.445 29.7593 233.006 29.4744 232.623 29.1489C232.241 28.8234 231.935 28.3962 231.708 27.8672C231.48 27.3382 231.366 26.7319 231.366 26.0483C231.366 24.6567 231.915 23.5093 233.014 22.606C234.12 21.7026 235.512 21.251 237.188 21.251C239.052 21.251 240.513 21.7555 241.571 22.7646C242.629 23.7656 243.158 25.0189 243.158 26.5244H240.692C240.667 25.6536 240.326 24.9375 239.667 24.376C239.007 23.8063 238.157 23.5215 237.115 23.5215C236.114 23.5215 235.296 23.7575 234.662 24.2295C234.027 24.6934 233.709 25.2996 233.709 26.0483C233.709 26.4797 233.823 26.8581 234.051 27.1836C234.279 27.501 234.584 27.7573 234.967 27.9526C235.357 28.1398 235.801 28.3066 236.297 28.4531C236.802 28.5996 237.331 28.742 237.884 28.8804C238.438 29.0106 238.987 29.1571 239.532 29.3198C240.086 29.4744 240.611 29.682 241.107 29.9424C241.611 30.1947 242.055 30.4958 242.438 30.8457C242.828 31.1956 243.137 31.6554 243.365 32.2251C243.593 32.7866 243.707 33.4295 243.707 34.1538C243.707 35.6268 243.121 36.8434 241.949 37.8037C240.777 38.764 239.3 39.2441 237.518 39.2441ZM258.319 21.4951V23.8022H252.777V39H250.348V23.8022H244.793V21.4951H258.319ZM267.254 21.251C268.483 21.251 269.643 21.4829 270.733 21.9468C271.832 22.4025 272.772 23.0291 273.553 23.8267C274.343 24.616 274.965 25.5641 275.421 26.6709C275.877 27.7777 276.104 28.9536 276.104 30.1987C276.104 31.4601 275.877 32.6523 275.421 33.7754C274.965 34.8903 274.343 35.8506 273.553 36.6562C272.772 37.4538 271.832 38.0845 270.733 38.5483C269.643 39.0122 268.483 39.2441 267.254 39.2441C266.017 39.2441 264.85 39.0122 263.751 38.5483C262.66 38.0845 261.725 37.4538 260.943 36.6562C260.162 35.8506 259.544 34.8903 259.088 33.7754C258.632 32.6523 258.404 31.4601 258.404 30.1987C258.404 28.5386 258.787 27.0249 259.552 25.6577C260.325 24.2905 261.387 23.2163 262.738 22.4351C264.097 21.6457 265.602 21.251 267.254 21.251ZM270.489 24.4492C269.513 23.8633 268.434 23.5703 267.254 23.5703C266.074 23.5703 264.996 23.8633 264.02 24.4492C263.043 25.027 262.274 25.8245 261.712 26.8418C261.159 27.859 260.882 28.978 260.882 30.1987C260.882 32.0949 261.493 33.6899 262.713 34.9839C263.942 36.2778 265.456 36.9248 267.254 36.9248C269.053 36.9248 270.562 36.2778 271.783 34.9839C273.012 33.6899 273.626 32.0949 273.626 30.1987C273.626 28.978 273.346 27.859 272.784 26.8418C272.231 25.8245 271.466 25.027 270.489 24.4492ZM278.998 39V21.4951H281.878L288.128 35.4722L294.525 21.4951H296.979V39H294.549V26.2803L288.849 39H287.079L281.427 26.2803V39H278.998ZM300.531 21.4951H310.589V23.8022H302.96V28.5996H309.759V30.8945H302.96V36.7051H310.589V39H300.531V21.4951ZM326.593 39H323.7L319.049 31.7246H316.07V39H313.641V21.4951H320.099C321.572 21.4951 322.817 21.9834 323.834 22.96C324.859 23.9365 325.372 25.141 325.372 26.5732C325.372 27.8346 325.038 28.9089 324.371 29.7959C323.704 30.6748 322.805 31.2607 321.673 31.5537L326.593 39ZM316.046 23.8022L316.07 29.4297H320.05C320.888 29.4297 321.58 29.1611 322.125 28.624C322.67 28.0788 322.943 27.3952 322.943 26.5732C322.943 25.7757 322.67 25.1165 322.125 24.5957C321.58 24.0667 320.888 23.8022 320.05 23.8022H316.046ZM346.759 39L345.233 35.1304H337.384L335.858 39H333.319L340.289 21.4951H342.364L349.383 39H346.759ZM338.312 32.8232H344.342L341.339 25.145L338.312 32.8232ZM358.16 21.4951C359.698 21.4951 360.98 21.9915 362.005 22.9844C363.031 23.9691 363.543 25.2061 363.543 26.6953C363.543 28.1846 363.031 29.4297 362.005 30.4307C360.98 31.4235 359.698 31.9199 358.16 31.9199H353.863V39H351.434V21.4951H358.16ZM358.16 29.625C358.998 29.625 359.702 29.3442 360.272 28.7827C360.85 28.2131 361.139 27.5173 361.139 26.6953C361.139 25.8734 360.85 25.1857 360.272 24.6323C359.702 24.0789 358.998 23.8022 358.16 23.8022H353.863V29.625H358.16ZM372.882 21.4951C374.42 21.4951 375.702 21.9915 376.727 22.9844C377.752 23.9691 378.265 25.2061 378.265 26.6953C378.265 28.1846 377.752 29.4297 376.727 30.4307C375.702 31.4235 374.42 31.9199 372.882 31.9199H368.585V39H366.156V21.4951H372.882ZM372.882 29.625C373.72 29.625 374.424 29.3442 374.994 28.7827C375.571 28.2131 375.86 27.5173 375.86 26.6953C375.86 25.8734 375.571 25.1857 374.994 24.6323C374.424 24.0789 373.72 23.8022 372.882 23.8022H368.585V29.625H372.882Z" fill="black"/>
</svg>
