<svg width="307" height="56" viewBox="0 0 307 56" fill="none" xmlns="http://www.w3.org/2000/svg">
<path d="M45.0817 4.97559H13.6359C10.2081 4.97559 7.42944 7.76696 7.42944 11.2103V42.7995C7.42944 46.2429 10.2081 49.0342 13.6359 49.0342H45.0817C48.5094 49.0342 51.2881 46.2429 51.2881 42.7995V11.2103C51.2881 7.76696 48.5094 4.97559 45.0817 4.97559Z" fill="black"/>
<path d="M22.365 16.9169V18.35L9.90594 16.9169H22.365ZM22.365 19.9742V21.4073L9.90594 19.9742H22.365ZM22.365 23.0315V24.4647L9.90594 23.0315H22.365ZM22.365 26.0888V27.522L9.90594 26.0888H22.365ZM22.365 29.1462V30.5793L9.90594 29.1462H22.365ZM22.365 32.2035V33.6366L9.90594 32.2035H22.365ZM22.365 35.2926V36.7257L9.90594 35.2926H22.365ZM33.6193 36.8213V29.4965H33.2706L30.6393 36.8213H23.316V16.9169H29.6248L29.0542 28.0315H29.2444L33.3657 16.9169H38.1527V28.0315H38.343L41.7351 16.9169H48.0439L41.6083 36.8213H33.6193Z" fill="white"/>
<path d="M85.0158 16.4194L78.7789 35.6976H75.5164L71.9901 23.7933L68.4398 35.6976H65.1774L58.9404 16.4194H62.8745L66.9286 28.8779L70.4309 16.4194H73.5014L77.0037 28.902L81.1057 16.4194H85.0158ZM99.169 21.745L92.932 38.3002C92.4683 39.5372 91.8605 40.4288 91.1089 40.9751C90.3573 41.5213 89.4617 41.7944 88.4222 41.7944C88.2623 41.7944 88.0864 41.7823 87.8945 41.7582C87.7026 41.7341 87.5186 41.698 87.3427 41.6498L86.1913 38.4207C86.4631 38.5492 86.743 38.6496 87.0309 38.7219C87.3187 38.7942 87.5906 38.8303 87.8465 38.8303C88.3902 38.8303 88.886 38.7058 89.3338 38.4568C89.7815 38.2078 90.1254 37.7459 90.3653 37.0712L90.845 35.6735L85.4956 21.745H89.2618L92.4523 30.7094L95.4508 21.745H99.169ZM113.49 21.7691L108.285 35.7217H104.878L99.6488 21.7691H103.439L106.581 31.119L109.724 21.7691H113.49ZM126.324 35.6976H122.846V34.9506C122.238 35.3683 121.594 35.6575 120.915 35.8181C120.235 35.9788 119.535 36.0591 118.816 36.0591C118.144 36.0591 117.536 35.9587 116.992 35.7579C116.449 35.5571 115.977 35.2679 115.577 34.8904C115.177 34.5128 114.869 34.067 114.654 33.5529C114.438 33.0388 114.33 32.4685 114.33 31.842C114.33 31.0548 114.502 30.368 114.845 29.7816C115.189 29.1952 115.657 28.7052 116.249 28.3116C116.84 27.9181 117.532 27.6249 118.324 27.4321C119.115 27.2393 119.967 27.1429 120.879 27.1429H122.87C122.87 26.3236 122.606 25.6729 122.078 25.191C121.55 24.709 120.791 24.468 119.799 24.468C119.319 24.468 118.824 24.5564 118.312 24.7331C117.8 24.9098 117.288 25.2311 116.777 25.697L114.738 23.6246C115.473 22.9178 116.325 22.3715 117.292 21.986C118.26 21.6004 119.255 21.4076 120.279 21.4076C121.238 21.4076 122.094 21.5602 122.846 21.8655C123.597 22.1707 124.205 22.5643 124.669 23.0463C125.276 23.6568 125.704 24.3395 125.952 25.0946C126.2 25.8497 126.324 26.8136 126.324 27.9863V35.6976ZM122.846 32.2275V29.6491H121.262C120.783 29.6491 120.331 29.6812 119.907 29.7455C119.483 29.8097 119.115 29.9182 118.804 30.0708C118.492 30.2234 118.244 30.4202 118.06 30.6612C117.876 30.9022 117.784 31.1913 117.784 31.5287C117.784 32.0107 117.972 32.4043 118.348 32.7095C118.724 33.0147 119.207 33.1674 119.799 33.1674C120.311 33.1674 120.819 33.087 121.322 32.9264C121.826 32.7657 122.334 32.5328 122.846 32.2275ZM136.687 35.3844C136.335 35.6093 135.927 35.778 135.464 35.8904C135 36.0029 134.536 36.0591 134.072 36.0591C133.257 36.0591 132.569 35.9587 132.009 35.7579C131.449 35.5571 131.002 35.2478 130.666 34.8301C130.33 34.4124 130.086 33.8823 129.934 33.2397C129.782 32.597 129.706 31.842 129.706 30.9745V24.8777H127.883V23.3114C129.003 22.8455 129.91 22.1547 130.606 21.2389C131.302 20.3232 131.777 19.1344 132.033 17.6725H133.161V21.745H136.663V24.8777H133.161V31.2154C133.161 31.5689 133.205 31.858 133.293 32.083C133.381 32.3079 133.496 32.4846 133.64 32.6131C133.784 32.7416 133.948 32.83 134.132 32.8782C134.316 32.9264 134.512 32.9505 134.72 32.9505C134.992 32.9505 135.32 32.9023 135.703 32.8059C136.087 32.7095 136.415 32.5489 136.687 32.3239V35.3844ZM153.047 28.7093C153.047 28.9342 153.035 29.1671 153.011 29.4081C152.987 29.6491 152.959 29.8981 152.927 30.1551H141.844C141.972 30.5568 142.152 30.9383 142.384 31.2998C142.616 31.6612 142.9 31.9745 143.236 32.2396C143.572 32.5047 143.951 32.7135 144.375 32.8661C144.799 33.0188 145.267 33.0951 145.779 33.0951C146.402 33.0951 147.026 32.9866 147.65 32.7697C148.273 32.5529 148.793 32.2597 149.209 31.8902L151.392 34.0831C150.432 34.806 149.493 35.3161 148.573 35.6133C147.654 35.9105 146.682 36.0591 145.659 36.0591C144.619 36.0591 143.648 35.8663 142.744 35.4808C141.84 35.0952 141.057 34.5731 140.393 33.9144C139.729 33.2557 139.206 32.4806 138.822 31.589C138.438 30.6973 138.246 29.7455 138.246 28.7334C138.246 27.7213 138.438 26.7694 138.822 25.8778C139.206 24.9861 139.733 24.211 140.405 23.5523C141.077 22.8937 141.86 22.3715 142.756 21.986C143.652 21.6004 144.611 21.4076 145.635 21.4076C146.61 21.4076 147.546 21.5884 148.441 21.9498C149.337 22.3113 150.128 22.8133 150.816 23.4559C151.504 24.0985 152.047 24.8657 152.447 25.7573C152.847 26.6489 153.047 27.6329 153.047 28.7093ZM149.425 27.3598C149.153 26.4762 148.669 25.7653 147.973 25.2271C147.278 24.6889 146.49 24.4199 145.611 24.4199C144.747 24.4199 143.971 24.6889 143.284 25.2271C142.596 25.7653 142.116 26.4762 141.844 27.3598H149.425Z" fill="black"/>
<line x1="176.5" y1="2.5" x2="176.5" y2="53.5" stroke="#495057"/>
<path d="M195.77 39V21.4951H201.996C203.412 21.4951 204.616 21.9346 205.609 22.8135C206.602 23.6842 207.098 24.73 207.098 25.9507C207.098 26.8459 206.83 27.6556 206.292 28.3799C205.764 29.1042 205.092 29.5599 204.278 29.7471C205.336 29.8854 206.215 30.3737 206.915 31.2119C207.623 32.042 207.977 33.0145 207.977 34.1294C207.977 35.4966 207.468 36.6522 206.451 37.5962C205.442 38.5321 204.209 39 202.752 39H195.77ZM198.175 28.9536H201.922C202.687 28.9536 203.334 28.6973 203.863 28.1846C204.4 27.6719 204.669 27.0452 204.669 26.3047C204.669 25.6048 204.4 25.0148 203.863 24.5347C203.334 24.0464 202.687 23.8022 201.922 23.8022H198.175V28.9536ZM198.175 36.7051H202.606C203.444 36.7051 204.14 36.4284 204.693 35.875C205.247 35.3135 205.523 34.6217 205.523 33.7998C205.523 33.0023 205.243 32.3228 204.681 31.7612C204.12 31.1997 203.436 30.9189 202.63 30.9189H198.175V36.7051ZM222.088 37.291C220.811 38.5931 219.203 39.2441 217.267 39.2441C215.33 39.2441 213.718 38.5931 212.433 37.291C211.155 35.9889 210.516 34.3573 210.516 32.396V21.4951H212.945V32.396C212.945 33.6899 213.352 34.7642 214.166 35.6187C214.988 36.4731 216.021 36.9004 217.267 36.9004C218.512 36.9004 219.545 36.4731 220.367 35.6187C221.189 34.7642 221.6 33.6899 221.6 32.396V21.4951H224.017V32.396C224.017 34.3573 223.374 35.9889 222.088 37.291ZM233.246 39.2441C231.398 39.2441 229.868 38.6989 228.656 37.6084C227.443 36.5098 226.837 35.1304 226.837 33.4702H229.217C229.217 34.5037 229.592 35.346 230.34 35.9971C231.097 36.6481 232.066 36.9736 233.246 36.9736C234.352 36.9736 235.26 36.7132 235.968 36.1924C236.684 35.6634 237.042 34.9839 237.042 34.1538C237.042 33.6737 236.928 33.2586 236.7 32.9087C236.472 32.5506 236.167 32.2658 235.785 32.0542C235.402 31.8345 234.963 31.6432 234.466 31.4805C233.97 31.3177 233.445 31.1672 232.892 31.0288C232.338 30.8905 231.785 30.744 231.231 30.5894C230.686 30.4347 230.165 30.2394 229.669 30.0034C229.173 29.7593 228.733 29.4744 228.351 29.1489C227.968 28.8234 227.663 28.3962 227.435 27.8672C227.207 27.3382 227.093 26.7319 227.093 26.0483C227.093 24.6567 227.643 23.5093 228.741 22.606C229.848 21.7026 231.24 21.251 232.916 21.251C234.78 21.251 236.24 21.7555 237.298 22.7646C238.356 23.7656 238.885 25.0189 238.885 26.5244H236.419C236.395 25.6536 236.053 24.9375 235.394 24.376C234.735 23.8063 233.884 23.5215 232.843 23.5215C231.842 23.5215 231.024 23.7575 230.389 24.2295C229.754 24.6934 229.437 25.2996 229.437 26.0483C229.437 26.4797 229.551 26.8581 229.779 27.1836C230.007 27.501 230.312 27.7573 230.694 27.9526C231.085 28.1398 231.528 28.3066 232.025 28.4531C232.529 28.5996 233.058 28.742 233.612 28.8804C234.165 29.0106 234.715 29.1571 235.26 29.3198C235.813 29.4744 236.338 29.682 236.834 29.9424C237.339 30.1947 237.783 30.4958 238.165 30.8457C238.556 31.1956 238.865 31.6554 239.093 32.2251C239.321 32.7866 239.435 33.4295 239.435 34.1538C239.435 35.6268 238.849 36.8434 237.677 37.8037C236.505 38.764 235.028 39.2441 233.246 39.2441ZM242.279 21.4951H244.708V39H242.279V21.4951ZM248.26 21.4951H250.445L259.491 34.4468V21.4951H261.896V39H259.759L250.689 26.0728V39H248.26V21.4951ZM265.472 21.4951H275.531V23.8022H267.901V28.5996H274.701V30.8945H267.901V36.7051H275.531V39H265.472V21.4951ZM284.417 39.2441C282.57 39.2441 281.04 38.6989 279.828 37.6084C278.615 36.5098 278.009 35.1304 278.009 33.4702H280.389C280.389 34.5037 280.764 35.346 281.512 35.9971C282.269 36.6481 283.237 36.9736 284.417 36.9736C285.524 36.9736 286.432 36.7132 287.14 36.1924C287.856 35.6634 288.214 34.9839 288.214 34.1538C288.214 33.6737 288.1 33.2586 287.872 32.9087C287.644 32.5506 287.339 32.2658 286.957 32.0542C286.574 31.8345 286.135 31.6432 285.638 31.4805C285.142 31.3177 284.617 31.1672 284.063 31.0288C283.51 30.8905 282.957 30.744 282.403 30.5894C281.858 30.4347 281.337 30.2394 280.841 30.0034C280.344 29.7593 279.905 29.4744 279.522 29.1489C279.14 28.8234 278.835 28.3962 278.607 27.8672C278.379 27.3382 278.265 26.7319 278.265 26.0483C278.265 24.6567 278.814 23.5093 279.913 22.606C281.02 21.7026 282.411 21.251 284.088 21.251C285.951 21.251 287.412 21.7555 288.47 22.7646C289.528 23.7656 290.057 25.0189 290.057 26.5244H287.591C287.567 25.6536 287.225 24.9375 286.566 24.376C285.907 23.8063 285.056 23.5215 284.015 23.5215C283.014 23.5215 282.196 23.7575 281.561 24.2295C280.926 24.6934 280.609 25.2996 280.609 26.0483C280.609 26.4797 280.723 26.8581 280.951 27.1836C281.179 27.501 281.484 27.7573 281.866 27.9526C282.257 28.1398 282.7 28.3066 283.197 28.4531C283.701 28.5996 284.23 28.742 284.784 28.8804C285.337 29.0106 285.886 29.1571 286.432 29.3198C286.985 29.4744 287.51 29.682 288.006 29.9424C288.511 30.1947 288.954 30.4958 289.337 30.8457C289.728 31.1956 290.037 31.6554 290.265 32.2251C290.493 32.7866 290.606 33.4295 290.606 34.1538C290.606 35.6268 290.021 36.8434 288.849 37.8037C287.677 38.764 286.2 39.2441 284.417 39.2441ZM299.286 39.2441C297.438 39.2441 295.908 38.6989 294.696 37.6084C293.483 36.5098 292.877 35.1304 292.877 33.4702H295.257C295.257 34.5037 295.632 35.346 296.38 35.9971C297.137 36.6481 298.106 36.9736 299.286 36.9736C300.392 36.9736 301.3 36.7132 302.008 36.1924C302.724 35.6634 303.082 34.9839 303.082 34.1538C303.082 33.6737 302.968 33.2586 302.74 32.9087C302.512 32.5506 302.207 32.2658 301.825 32.0542C301.442 31.8345 301.003 31.6432 300.506 31.4805C300.01 31.3177 299.485 31.1672 298.932 31.0288C298.378 30.8905 297.825 30.744 297.271 30.5894C296.726 30.4347 296.205 30.2394 295.709 30.0034C295.213 29.7593 294.773 29.4744 294.391 29.1489C294.008 28.8234 293.703 28.3962 293.475 27.8672C293.247 27.3382 293.133 26.7319 293.133 26.0483C293.133 24.6567 293.683 23.5093 294.781 22.606C295.888 21.7026 297.28 21.251 298.956 21.251C300.82 21.251 302.28 21.7555 303.338 22.7646C304.396 23.7656 304.925 25.0189 304.925 26.5244H302.459C302.435 25.6536 302.093 24.9375 301.434 24.376C300.775 23.8063 299.924 23.5215 298.883 23.5215C297.882 23.5215 297.064 23.7575 296.429 24.2295C295.794 24.6934 295.477 25.2996 295.477 26.0483C295.477 26.4797 295.591 26.8581 295.819 27.1836C296.047 27.501 296.352 27.7573 296.734 27.9526C297.125 28.1398 297.569 28.3066 298.065 28.4531C298.569 28.5996 299.098 28.742 299.652 28.8804C300.205 29.0106 300.755 29.1571 301.3 29.3198C301.853 29.4744 302.378 29.682 302.875 29.9424C303.379 30.1947 303.823 30.4958 304.205 30.8457C304.596 31.1956 304.905 31.6554 305.133 32.2251C305.361 32.7866 305.475 33.4295 305.475 34.1538C305.475 35.6268 304.889 36.8434 303.717 37.8037C302.545 38.764 301.068 39.2441 299.286 39.2441Z" fill="black"/>
</svg>
