<svg width="107" height="30" viewBox="0 0 107 30" fill="none" xmlns="http://www.w3.org/2000/svg">
<path d="M25.7965 0H4.25217C1.90376 0 0 1.90068 0 4.24528V25.7547C0 28.0993 1.90376 30 4.25217 30H25.7965C28.1449 30 30.0486 28.0993 30.0486 25.7547V4.24528C30.0486 1.90068 28.1449 0 25.7965 0Z" fill="#212429"/>
<path d="M10.2328 8.13098V9.1068L1.69684 8.13098H10.2328ZM10.2328 10.2127V11.1886L1.69684 10.2127H10.2328ZM10.2328 12.2945V13.2703L1.69684 12.2945H10.2328ZM10.2328 14.3762V15.3521L1.69684 14.3762H10.2328ZM10.2328 16.458V17.4338L1.69684 16.458H10.2328ZM10.2328 18.5397V19.5156L1.69684 18.5397H10.2328ZM10.2328 20.6432V21.619L1.69684 20.6432H10.2328ZM17.9435 21.6841V16.6965H17.7045L15.9018 21.6841H10.8844V8.13098H15.2067L14.8158 15.699H14.9461L17.7697 8.13098H21.0494V15.699H21.1798L23.5038 8.13098H27.8261L23.4169 21.6841H17.9435Z" fill="#00CF84"/>
<path d="M55.062 1.52954L50.3484 16.0096H47.8828L45.2178 7.06817L42.5346 16.0096H40.069L35.3553 1.52954H38.3286L41.3925 10.8873L44.0393 1.52954H46.3599L49.0068 10.9054L52.107 1.52954H55.062ZM65.7584 5.52966L61.0448 17.9644C60.6943 18.8936 60.235 19.5633 59.6669 19.9735C59.0989 20.3838 58.422 20.5889 57.6364 20.5889C57.5156 20.5889 57.3826 20.5799 57.2376 20.5618C57.0925 20.5437 56.9536 20.5165 56.8206 20.4803L55.9504 18.0549C56.1559 18.1515 56.3674 18.2269 56.5849 18.2812C56.8025 18.3355 57.0079 18.3626 57.2013 18.3626C57.6123 18.3626 57.9869 18.2691 58.3253 18.0821C58.6638 17.895 58.9236 17.5481 59.1049 17.0413L59.4675 15.9915L55.4246 5.52966H58.271L60.6822 12.2629L62.9484 5.52966H65.7584ZM76.5817 5.54776L72.6476 16.0277H70.0732L66.121 5.54776H68.9855L71.3604 12.5706L73.7354 5.54776H76.5817ZM86.2809 16.0096H83.6522V15.4485C83.1929 15.7622 82.7064 15.9794 82.1928 16.1001C81.6791 16.2208 81.1503 16.2811 80.6064 16.2811C80.0988 16.2811 79.6395 16.2057 79.2286 16.0549C78.8177 15.904 78.4611 15.6868 78.159 15.4033C77.8568 15.1197 77.6241 14.7848 77.461 14.3987C77.2978 14.0126 77.2162 13.5842 77.2162 13.1136C77.2162 12.5223 77.3462 12.0065 77.606 11.566C77.8659 11.1256 78.2194 10.7576 78.6666 10.4619C79.1138 10.1663 79.6365 9.94608 80.2348 9.80128C80.833 9.65648 81.4766 9.58408 82.1656 9.58408H83.6703C83.6703 8.96868 83.4709 8.47998 83.072 8.11797C82.6732 7.75597 82.0991 7.57497 81.3497 7.57497C80.9871 7.57497 80.6125 7.64134 80.2257 7.77407C79.839 7.90681 79.4522 8.14814 79.0654 8.49808L77.5244 6.94147C78.0804 6.41053 78.724 6.00026 79.4552 5.71066C80.1864 5.42106 80.9388 5.27626 81.7123 5.27626C82.4375 5.27626 83.0841 5.39089 83.6522 5.62016C84.2202 5.84943 84.6795 6.14506 85.03 6.50707C85.4893 6.9656 85.8126 7.47844 85.9999 8.04557C86.1873 8.61271 86.2809 9.33671 86.2809 10.2176V16.0096ZM83.6522 13.4032V11.4665H82.4556C82.093 11.4665 81.7516 11.4906 81.4313 11.5389C81.111 11.5872 80.833 11.6686 80.5974 11.7832C80.3617 11.8979 80.1743 12.0457 80.0354 12.2267C79.8964 12.4077 79.8269 12.6249 79.8269 12.8783C79.8269 13.2403 79.9689 13.5359 80.2529 13.7652C80.5369 13.9945 80.9025 14.1091 81.3497 14.1091C81.7365 14.1091 82.1202 14.0488 82.501 13.9281C82.8817 13.8074 83.2654 13.6325 83.6522 13.4032ZM94.1129 15.7743C93.847 15.9432 93.5388 16.0699 93.1883 16.1544C92.8378 16.2389 92.4873 16.2811 92.1368 16.2811C91.5204 16.2811 91.0006 16.2057 90.5776 16.0549C90.1546 15.904 89.8162 15.6717 89.5624 15.358C89.3086 15.0443 89.1242 14.6461 89.0094 14.1634C88.8946 13.6807 88.8372 13.1136 88.8372 12.462V7.88267H87.4594V6.70617C88.3054 6.35623 88.9913 5.83736 89.5171 5.14956C90.0428 4.46176 90.4024 3.56882 90.5958 2.47075H91.4478V5.52966H94.0947V7.88267H91.4478V12.643C91.4478 12.9085 91.4811 13.1257 91.5476 13.2946C91.614 13.4635 91.7016 13.5963 91.8104 13.6928C91.9192 13.7893 92.0431 13.8557 92.1821 13.8919C92.3211 13.9281 92.4691 13.9462 92.6263 13.9462C92.8317 13.9462 93.0795 13.91 93.3696 13.8376C93.6596 13.7652 93.9074 13.6445 94.1129 13.4756V15.7743ZM106.477 10.7606C106.477 10.9295 106.468 11.1045 106.45 11.2855C106.432 11.4665 106.411 11.6535 106.386 11.8466H98.0107C98.1074 12.1483 98.2434 12.4348 98.4186 12.7063C98.5939 12.9778 98.8084 13.2132 99.0622 13.4123C99.316 13.6114 99.6031 13.7682 99.9233 13.8829C100.244 13.9975 100.597 14.0548 100.984 14.0548C101.455 14.0548 101.927 13.9734 102.398 13.8105C102.869 13.6476 103.262 13.4273 103.576 13.1498L105.226 14.7969C104.501 15.3399 103.791 15.723 103.096 15.9463C102.401 16.1695 101.667 16.2811 100.893 16.2811C100.108 16.2811 99.3734 16.1363 98.6905 15.8467C98.0077 15.5571 97.4154 15.1649 96.9139 14.6702C96.4123 14.1755 96.0165 13.5933 95.7264 12.9235C95.4363 12.2538 95.2913 11.5389 95.2913 10.7787C95.2913 10.0185 95.4363 9.30353 95.7264 8.63383C96.0165 7.96412 96.4153 7.3819 96.9229 6.88717C97.4305 6.39243 98.0228 6.00026 98.6996 5.71066C99.3764 5.42106 100.102 5.27626 100.875 5.27626C101.612 5.27626 102.319 5.41201 102.996 5.68351C103.673 5.95501 104.271 6.3321 104.791 6.81477C105.311 7.29744 105.722 7.87362 106.024 8.54333C106.326 9.21303 106.477 9.95212 106.477 10.7606ZM103.74 9.74698C103.534 9.08331 103.169 8.54936 102.643 8.14513C102.117 7.74089 101.522 7.53877 100.857 7.53877C100.204 7.53877 99.6182 7.74089 99.0985 8.14513C98.5788 8.54936 98.2162 9.08331 98.0107 9.74698H103.74Z" fill="#17B978"/>
<path d="M35.1196 28.585C35.1392 28.5882 35.1742 28.5898 35.2246 28.5898C35.3971 28.5898 35.5265 28.5378 35.6128 28.4336C35.7007 28.3278 35.7446 28.1618 35.7446 27.9355V25.499H36.2305V28.0552C36.2305 28.366 36.1515 28.6086 35.9937 28.7827C35.8358 28.9569 35.6226 29.0439 35.354 29.0439C35.2743 29.0439 35.1961 29.0391 35.1196 29.0293V28.585ZM39.5623 26.561H40.0237V29H39.5623V28.4995C39.4712 28.6769 39.3466 28.8128 39.1888 28.9072C39.0309 29.0016 38.8453 29.0488 38.6321 29.0488C38.3034 29.0488 38.0234 28.9259 37.7923 28.6802C37.5628 28.4328 37.448 28.1325 37.448 27.7793C37.448 27.4261 37.5628 27.1266 37.7923 26.8809C38.0234 26.6335 38.3034 26.5098 38.6321 26.5098C38.8453 26.5098 39.0309 26.557 39.1888 26.6514C39.3466 26.7458 39.4712 26.8817 39.5623 27.0591V26.561ZM38.7273 28.6094C38.9682 28.6094 39.1676 28.5312 39.3255 28.375C39.4834 28.2188 39.5623 28.0202 39.5623 27.7793C39.5623 27.5384 39.4834 27.3398 39.3255 27.1836C39.1676 27.0273 38.9682 26.9492 38.7273 26.9492C38.4962 26.9492 38.3001 27.0298 38.139 27.1909C37.9778 27.3521 37.8973 27.5482 37.8973 27.7793C37.8973 28.0104 37.9778 28.2065 38.139 28.3677C38.3001 28.5288 38.4962 28.6094 38.7273 28.6094ZM42.6085 26.5098C42.9226 26.5098 43.1708 26.6082 43.3531 26.8052C43.537 27.0021 43.629 27.269 43.629 27.606V29H43.1676V27.6548C43.1676 27.4416 43.1074 27.2707 42.9869 27.1421C42.8665 27.0135 42.7053 26.9492 42.5035 26.9492C42.2984 26.9492 42.1349 27.0135 42.0128 27.1421C41.8907 27.2707 41.8297 27.4416 41.8297 27.6548V29H41.3634V25.499H41.8297V26.9858C41.9078 26.8345 42.0136 26.7173 42.1471 26.6343C42.2822 26.5513 42.436 26.5098 42.6085 26.5098ZM46.9584 26.561H47.4198V29H46.9584V28.4995C46.8673 28.6769 46.7427 28.8128 46.5849 28.9072C46.427 29.0016 46.2414 29.0488 46.0282 29.0488C45.6994 29.0488 45.4195 28.9259 45.1884 28.6802C44.9589 28.4328 44.8441 28.1325 44.8441 27.7793C44.8441 27.4261 44.9589 27.1266 45.1884 26.8809C45.4195 26.6335 45.6994 26.5098 46.0282 26.5098C46.2414 26.5098 46.427 26.557 46.5849 26.6514C46.7427 26.7458 46.8673 26.8817 46.9584 27.0591V26.561ZM46.1234 28.6094C46.3643 28.6094 46.5637 28.5312 46.7216 28.375C46.8795 28.2188 46.9584 28.0202 46.9584 27.7793C46.9584 27.5384 46.8795 27.3398 46.7216 27.1836C46.5637 27.0273 46.3643 26.9492 46.1234 26.9492C45.8923 26.9492 45.6962 27.0298 45.5351 27.1909C45.3739 27.3521 45.2934 27.5482 45.2934 27.7793C45.2934 28.0104 45.3739 28.2065 45.5351 28.3677C45.6962 28.5288 45.8923 28.6094 46.1234 28.6094ZM54.7915 25.499H55.3018L54.1323 29H53.7222L52.8359 26.2803L51.9521 29H51.542L50.3677 25.499H50.8779L51.7568 28.2212L52.6431 25.499H53.0508L53.9272 28.2261L54.7915 25.499ZM57.9891 26.561H58.4505V29H57.9891V28.4995C57.8979 28.6769 57.7734 28.8128 57.6155 28.9072C57.4577 29.0016 57.2721 29.0488 57.0589 29.0488C56.7301 29.0488 56.4502 28.9259 56.219 28.6802C55.9896 28.4328 55.8748 28.1325 55.8748 27.7793C55.8748 27.4261 55.9896 27.1266 56.219 26.8809C56.4502 26.6335 56.7301 26.5098 57.0589 26.5098C57.2721 26.5098 57.4577 26.557 57.6155 26.6514C57.7734 26.7458 57.8979 26.8817 57.9891 27.0591V26.561ZM57.1541 28.6094C57.395 28.6094 57.5944 28.5312 57.7522 28.375C57.9101 28.2188 57.9891 28.0202 57.9891 27.7793C57.9891 27.5384 57.9101 27.3398 57.7522 27.1836C57.5944 27.0273 57.395 26.9492 57.1541 26.9492C56.923 26.9492 56.7269 27.0298 56.5657 27.1909C56.4046 27.3521 56.324 27.5482 56.324 27.7793C56.324 28.0104 56.4046 28.2065 56.5657 28.3677C56.7269 28.5288 56.923 28.6094 57.1541 28.6094ZM60.0245 25.4648C60.1075 25.4648 60.1799 25.4958 60.2418 25.5576C60.3036 25.6195 60.3346 25.6919 60.3346 25.7749C60.3346 25.8595 60.3036 25.9328 60.2418 25.9946C60.1799 26.0549 60.1075 26.085 60.0245 26.085C59.9382 26.085 59.865 26.0549 59.8048 25.9946C59.7446 25.9344 59.7145 25.8612 59.7145 25.7749C59.7145 25.6919 59.7446 25.6195 59.8048 25.5576C59.8666 25.4958 59.9399 25.4648 60.0245 25.4648ZM59.7901 26.561H60.2564V29H59.7901V26.561ZM62.934 27.0005H62.2748V28.126C62.2748 28.4385 62.4376 28.5947 62.7631 28.5947C62.8331 28.5947 62.89 28.5882 62.934 28.5752V29C62.8591 29.0195 62.7704 29.0293 62.6679 29.0293C62.4042 29.0293 62.1959 28.9536 62.0429 28.8022C61.8899 28.6493 61.8134 28.4271 61.8134 28.1357V27.0005H61.3397V26.561H61.8134V25.8994H62.2748V26.561H62.934V27.0005ZM70.1421 25.499H70.6523L69.4829 29H69.0728L68.1865 26.2803L67.3027 29H66.8926L65.7183 25.499H66.2285L67.1074 28.2212L67.9937 25.499H68.4014L69.2778 28.2261L70.1421 25.499ZM73.3396 26.561H73.8011V29H73.3396V28.4995C73.2485 28.6769 73.124 28.8128 72.9661 28.9072C72.8082 29.0016 72.6227 29.0488 72.4095 29.0488C72.0807 29.0488 71.8007 28.9259 71.5696 28.6802C71.3401 28.4328 71.2254 28.1325 71.2254 27.7793C71.2254 27.4261 71.3401 27.1266 71.5696 26.8809C71.8007 26.6335 72.0807 26.5098 72.4095 26.5098C72.6227 26.5098 72.8082 26.557 72.9661 26.6514C73.124 26.7458 73.2485 26.8817 73.3396 27.0591V26.561ZM72.5047 28.6094C72.7456 28.6094 72.945 28.5312 73.1028 28.375C73.2607 28.2188 73.3396 28.0202 73.3396 27.7793C73.3396 27.5384 73.2607 27.3398 73.1028 27.1836C72.945 27.0273 72.7456 26.9492 72.5047 26.9492C72.2736 26.9492 72.0774 27.0298 71.9163 27.1909C71.7552 27.3521 71.6746 27.5482 71.6746 27.7793C71.6746 28.0104 71.7552 28.2065 71.9163 28.3677C72.0774 28.5288 72.2736 28.6094 72.5047 28.6094ZM76.3858 26.5098C76.7 26.5098 76.9482 26.6082 77.1305 26.8052C77.3144 27.0021 77.4063 27.269 77.4063 27.606V29H76.9449V27.6548C76.9449 27.4416 76.8847 27.2707 76.7643 27.1421C76.6438 27.0135 76.4827 26.9492 76.2809 26.9492C76.0758 26.9492 75.9122 27.0135 75.7901 27.1421C75.6681 27.2707 75.607 27.4416 75.607 27.6548V29H75.1407V25.499H75.607V26.9858C75.6852 26.8345 75.791 26.7173 75.9244 26.6343C76.0595 26.5513 76.2133 26.5098 76.3858 26.5098ZM80.7357 26.561H81.1972V29H80.7357V28.4995C80.6446 28.6769 80.5201 28.8128 80.3622 28.9072C80.2043 29.0016 80.0188 29.0488 79.8056 29.0488C79.4768 29.0488 79.1968 28.9259 78.9657 28.6802C78.7362 28.4328 78.6215 28.1325 78.6215 27.7793C78.6215 27.4261 78.7362 27.1266 78.9657 26.8809C79.1968 26.6335 79.4768 26.5098 79.8056 26.5098C80.0188 26.5098 80.2043 26.557 80.3622 26.6514C80.5201 26.7458 80.6446 26.8817 80.7357 27.0591V26.561ZM79.9008 28.6094C80.1417 28.6094 80.341 28.5312 80.4989 28.375C80.6568 28.2188 80.7357 28.0202 80.7357 27.7793C80.7357 27.5384 80.6568 27.3398 80.4989 27.1836C80.341 27.0273 80.1417 26.9492 79.9008 26.9492C79.6697 26.9492 79.4735 27.0298 79.3124 27.1909C79.1513 27.3521 79.0707 27.5482 79.0707 27.7793C79.0707 28.0104 79.1513 28.2065 79.3124 28.3677C79.4735 28.5288 79.6697 28.6094 79.9008 28.6094ZM88.5688 25.499H89.0791L87.9097 29H87.4995L86.6133 26.2803L85.7295 29H85.3193L84.145 25.499H84.6553L85.5342 28.2212L86.4204 25.499H86.8281L87.7046 28.2261L88.5688 25.499ZM91.72 26.561H92.2156L90.8216 29.8911H90.326L90.7557 28.9146L89.7718 26.561H90.2649L90.99 28.3799L91.72 26.561ZM95.523 26.561L94.4928 29H94.0948L93.0646 26.561H93.565L94.295 28.3994L95.0177 26.561H95.523ZM98.4984 26.561H98.9599V29H98.4984V28.4995C98.4073 28.6769 98.2828 28.8128 98.1249 28.9072C97.967 29.0016 97.7815 29.0488 97.5683 29.0488C97.2395 29.0488 96.9595 28.9259 96.7284 28.6802C96.4989 28.4328 96.3842 28.1325 96.3842 27.7793C96.3842 27.4261 96.4989 27.1266 96.7284 26.8809C96.9595 26.6335 97.2395 26.5098 97.5683 26.5098C97.7815 26.5098 97.967 26.557 98.1249 26.6514C98.2828 26.7458 98.4073 26.8817 98.4984 27.0591V26.561ZM97.6635 28.6094C97.9044 28.6094 98.1037 28.5312 98.2616 28.375C98.4195 28.2188 98.4984 28.0202 98.4984 27.7793C98.4984 27.5384 98.4195 27.3398 98.2616 27.1836C98.1037 27.0273 97.9044 26.9492 97.6635 26.9492C97.4324 26.9492 97.2362 27.0298 97.0751 27.1909C96.914 27.3521 96.8334 27.5482 96.8334 27.7793C96.8334 28.0104 96.914 28.2065 97.0751 28.3677C97.2362 28.5288 97.4324 28.6094 97.6635 28.6094ZM101.64 27.0005H100.981V28.126C100.981 28.4385 101.143 28.5947 101.469 28.5947C101.539 28.5947 101.596 28.5882 101.64 28.5752V29C101.565 29.0195 101.476 29.0293 101.374 29.0293C101.11 29.0293 100.902 28.9536 100.749 28.8022C100.596 28.6493 100.519 28.4271 100.519 28.1357V27.0005H100.046V26.561H100.519V25.8994H100.981V26.561H101.64V27.0005ZM104.964 27.7207C104.964 27.7907 104.961 27.8517 104.955 27.9038H102.994C103.022 28.1268 103.107 28.3042 103.25 28.436C103.395 28.5679 103.58 28.6338 103.805 28.6338C103.976 28.6338 104.123 28.5955 104.247 28.519C104.37 28.4409 104.448 28.3376 104.479 28.209H104.94C104.894 28.4629 104.766 28.6663 104.554 28.8193C104.343 28.9723 104.088 29.0488 103.79 29.0488C103.435 29.0488 103.138 28.9268 102.899 28.6826C102.66 28.4368 102.54 28.1325 102.54 27.7695C102.54 27.5384 102.595 27.3268 102.704 27.1348C102.813 26.9411 102.962 26.7889 103.153 26.6782C103.345 26.5659 103.556 26.5098 103.785 26.5098C104.116 26.5098 104.395 26.6245 104.623 26.854C104.85 27.0835 104.964 27.3724 104.964 27.7207ZM103.009 27.5156H104.464C104.444 27.3431 104.37 27.2023 104.242 27.0933C104.115 26.9842 103.956 26.9297 103.766 26.9297C103.574 26.9297 103.41 26.9818 103.275 27.0859C103.14 27.1901 103.051 27.3333 103.009 27.5156Z" fill="#212429"/>
</svg>
