<svg width="106" height="97" viewBox="0 0 106 97" fill="none" xmlns="http://www.w3.org/2000/svg">
<path d="M74.9 4.79846L76.6642 4.32545L81.3904 21.9529L79.6262 22.4259L74.9 4.79846Z" fill="#1C4D59"/>
<path d="M24.4476 18.9693L23.7099 16.218C23.6972 16.1708 23.6893 16.1228 23.6861 16.0741C23.6829 16.0254 23.6845 15.9768 23.6908 15.9283C23.6972 15.8799 23.7083 15.8325 23.7239 15.7863C23.7396 15.74 23.7597 15.6957 23.7841 15.6534C23.8085 15.6111 23.8368 15.5716 23.8691 15.5349C23.9013 15.4981 23.9367 15.4649 23.9755 15.4352C24.0142 15.4054 24.0555 15.3797 24.0993 15.3581C24.1431 15.3365 24.1886 15.3194 24.2358 15.3067L80.6065 0.192853C80.6537 0.180202 80.7016 0.172276 80.7504 0.169074C80.7991 0.165872 80.8477 0.167457 80.8961 0.173825C80.9445 0.180194 80.9919 0.191226 81.0382 0.206921C81.0844 0.222616 81.1287 0.242672 81.171 0.26709C81.2133 0.291508 81.2529 0.319819 81.2896 0.352023C81.3263 0.384227 81.3596 0.419705 81.3893 0.458456C81.419 0.497208 81.4447 0.538488 81.4663 0.582297C81.4879 0.626108 81.5051 0.671602 81.5177 0.718786L82.2554 3.47013C82.2681 3.51732 82.276 3.56528 82.2792 3.61403C82.2824 3.66277 82.2808 3.71136 82.2744 3.7598C82.2681 3.80823 82.257 3.85558 82.2413 3.90184C82.2257 3.9481 82.2056 3.99238 82.1812 4.03469C82.1568 4.077 82.1284 4.11652 82.0962 4.15326C82.064 4.18999 82.0286 4.22323 81.9898 4.25297C81.9511 4.28272 81.9098 4.3084 81.866 4.33001C81.8222 4.35162 81.7767 4.36875 81.7295 4.3814L25.3588 19.4953C25.3116 19.5079 25.2637 19.5158 25.2149 19.519C25.1662 19.5223 25.1176 19.5207 25.0692 19.5143C25.0207 19.5079 24.9734 19.4969 24.9271 19.4812C24.8809 19.4655 24.8366 19.4455 24.7943 19.421C24.752 19.3966 24.7124 19.3683 24.6757 19.3361C24.639 19.3039 24.6057 19.2684 24.576 19.2297C24.5462 19.1909 24.5206 19.1496 24.499 19.1058C24.4773 19.062 24.4602 19.0165 24.4476 18.9693Z" fill="#357DA3"/>
<path d="M23.2986 33.098V19.8065C23.2986 19.7687 23.3023 19.7314 23.3097 19.6944C23.317 19.6574 23.3279 19.6215 23.3424 19.5866C23.3568 19.5518 23.3745 19.5187 23.3954 19.4873C23.4164 19.456 23.4402 19.427 23.4669 19.4003C23.4936 19.3736 23.5226 19.3498 23.5539 19.3289C23.5853 19.3079 23.6184 19.2902 23.6532 19.2758C23.6881 19.2613 23.724 19.2505 23.761 19.2431C23.798 19.2357 23.8353 19.2321 23.873 19.2321H82.0791C82.1168 19.2321 82.1542 19.2357 82.1912 19.2431C82.2282 19.2505 82.2641 19.2613 82.2989 19.2758C82.3338 19.2902 82.3669 19.3079 82.3982 19.3289C82.4296 19.3498 82.4586 19.3736 82.4853 19.4003C82.5119 19.427 82.5358 19.456 82.5567 19.4873C82.5777 19.5187 82.5953 19.5518 82.6098 19.5866C82.6242 19.6215 82.6351 19.6574 82.6425 19.6944C82.6498 19.7314 82.6535 19.7687 82.6535 19.8065V33.098C82.6535 33.1357 82.6498 33.1731 82.6425 33.2101C82.6351 33.2471 82.6242 33.283 82.6098 33.3178C82.5953 33.3527 82.5777 33.3858 82.5567 33.4171C82.5358 33.4485 82.5119 33.4775 82.4853 33.5042C82.4586 33.5308 82.4296 33.5547 82.3982 33.5756C82.3669 33.5966 82.3338 33.6143 82.2989 33.6287C82.2641 33.6431 82.2282 33.654 82.1912 33.6614C82.1542 33.6687 82.1168 33.6724 82.0791 33.6724H23.873C23.8353 33.6724 23.798 33.6687 23.761 33.6614C23.724 33.654 23.6881 33.6431 23.6532 33.6287C23.6184 33.6143 23.5853 33.5966 23.5539 33.5756C23.5226 33.5547 23.4936 33.5308 23.4669 33.5042C23.4402 33.4775 23.4164 33.4485 23.3954 33.4171C23.3745 33.3858 23.3568 33.3527 23.3424 33.3178C23.3279 33.283 23.317 33.2471 23.3097 33.2101C23.3023 33.1731 23.2986 33.1357 23.2986 33.098Z" fill="#357DA3"/>
<path d="M27.2195 60.1495H24.2258L22.7191 37.8682H28.7262L27.2195 60.1495Z" fill="#1C4D59"/>
<path d="M81.7284 60.1495H78.7347L77.228 37.8682H83.2351L81.7284 60.1495Z" fill="#1C4D59"/>
<path d="M20.2078 39.4829V30.5857C20.2078 30.548 20.2114 30.5107 20.2188 30.4737C20.2262 30.4367 20.2371 30.4008 20.2515 30.3659C20.2659 30.3311 20.2836 30.298 20.3046 30.2666C20.3255 30.2353 20.3493 30.2063 20.376 30.1796C20.4027 30.1529 20.4317 30.1291 20.463 30.1082C20.4944 30.0872 20.5275 30.0695 20.5623 30.0551C20.5972 30.0406 20.6331 30.0297 20.6701 30.0224C20.7071 30.015 20.7444 30.0114 20.7822 30.0114H85.1718C85.2095 30.0114 85.2469 30.015 85.2839 30.0224C85.3209 30.0297 85.3568 30.0406 85.3916 30.0551C85.4265 30.0695 85.4596 30.0872 85.4909 30.1082C85.5223 30.1291 85.5513 30.1529 85.578 30.1796C85.6046 30.2063 85.6285 30.2353 85.6494 30.2666C85.6704 30.298 85.6881 30.3311 85.7025 30.3659C85.7169 30.4008 85.7278 30.4367 85.7352 30.4737C85.7425 30.5107 85.7462 30.548 85.7462 30.5857V39.4829C85.7462 39.5206 85.7425 39.558 85.7352 39.595C85.7278 39.6319 85.7169 39.6679 85.7025 39.7027C85.6881 39.7376 85.6704 39.7707 85.6494 39.802C85.6285 39.8334 85.6046 39.8624 85.578 39.8891C85.5513 39.9157 85.5223 39.9395 85.4909 39.9605C85.4596 39.9814 85.4265 39.9991 85.3916 40.0136C85.3568 40.028 85.3209 40.0389 85.2839 40.0463C85.2469 40.0536 85.2095 40.0573 85.1718 40.0573H20.7822C20.7444 40.0573 20.7071 40.0536 20.6701 40.0463C20.6331 40.0389 20.5972 40.028 20.5623 40.0136C20.5275 39.9991 20.4944 39.9814 20.463 39.9605C20.4317 39.9395 20.4027 39.9157 20.376 39.8891C20.3493 39.8624 20.3255 39.8334 20.3046 39.802C20.2836 39.7707 20.2659 39.7376 20.2515 39.7027C20.2371 39.6679 20.2262 39.6319 20.2188 39.595C20.2114 39.558 20.2078 39.5206 20.2078 39.4829Z" fill="#357DA3"/>
<path d="M25.743 30.0115H80.21V35.3571H25.743V30.0115Z" fill="#FFC233"/>
<path d="M46.2535 25.6593V23.4599C46.2535 23.4222 46.2572 23.3848 46.2646 23.3478C46.2719 23.3108 46.2828 23.2749 46.2973 23.2401C46.3117 23.2052 46.3294 23.1721 46.3503 23.1408C46.3713 23.1094 46.3951 23.0804 46.4218 23.0537C46.4484 23.0271 46.4775 23.0033 46.5088 22.9823C46.5402 22.9613 46.5733 22.9437 46.6081 22.9292C46.643 22.9148 46.6789 22.9039 46.7159 22.8965C46.7529 22.8892 46.7902 22.8855 46.8279 22.8855H59.1257C59.1634 22.8855 59.2007 22.8892 59.2377 22.8965C59.2747 22.9039 59.3106 22.9148 59.3455 22.9292C59.3803 22.9437 59.4134 22.9613 59.4448 22.9823C59.4762 23.0033 59.5052 23.0271 59.5318 23.0537C59.5585 23.0804 59.5823 23.1094 59.6033 23.1408C59.6242 23.1721 59.6419 23.2052 59.6564 23.2401C59.6708 23.2749 59.6817 23.3108 59.689 23.3478C59.6964 23.3848 59.7001 23.4222 59.7001 23.4599V25.6593C59.7001 25.6971 59.6964 25.7344 59.689 25.7714C59.6817 25.8084 59.6708 25.8443 59.6564 25.8792C59.6419 25.914 59.6242 25.9471 59.6033 25.9785C59.5823 26.0098 59.5585 26.0388 59.5318 26.0655C59.5052 26.0922 59.4762 26.116 59.4448 26.1369C59.4134 26.1579 59.3803 26.1756 59.3455 26.19C59.3106 26.2044 59.2747 26.2153 59.2377 26.2227C59.2007 26.2301 59.1634 26.2337 59.1257 26.2337H46.8279C46.7902 26.2337 46.7529 26.2301 46.7159 26.2227C46.6789 26.2153 46.643 26.2044 46.6081 26.19C46.5733 26.1756 46.5402 26.1579 46.5088 26.1369C46.4775 26.116 46.4484 26.0922 46.4218 26.0655C46.3951 26.0388 46.3713 26.0098 46.3503 25.9785C46.3294 25.9471 46.3117 25.914 46.2973 25.8792C46.2828 25.8443 46.2719 25.8084 46.2646 25.7714C46.2572 25.7344 46.2535 25.6971 46.2535 25.6593Z" fill="#F48A3B"/>
<path d="M28.6138 29.9563H30.4401V35.3135H28.6138V29.9563Z" fill="#F48A3B"/>
<path d="M33.3043 29.9562H35.1306V35.3134H33.3043V29.9562Z" fill="#F48A3B"/>
<path d="M37.994 29.9562H39.8203V35.3134H37.994V29.9562Z" fill="#F48A3B"/>
<path d="M42.6844 29.9563H44.5108V35.3135H42.6844V29.9563Z" fill="#F48A3B"/>
<path d="M47.3745 29.9563H49.2008V35.3135H47.3745V29.9563Z" fill="#F48A3B"/>
<path d="M52.0634 29.9562H53.8897V35.3134H52.0634V29.9562Z" fill="#F48A3B"/>
<path d="M56.7537 29.9562H58.58V35.3134H56.7537V29.9562Z" fill="#F48A3B"/>
<path d="M61.4438 29.9563H63.2701V35.3135H61.4438V29.9563Z" fill="#F48A3B"/>
<path d="M66.1343 29.9562H67.9606V35.3134H66.1343V29.9562Z" fill="#F48A3B"/>
<path d="M70.823 29.9562H72.6493V35.3134H70.823V29.9562Z" fill="#F48A3B"/>
<path d="M75.5143 29.9563H77.3406V35.3135H75.5143V29.9563Z" fill="#F48A3B"/>
<path d="M47.4526 60.1494H44.1043L43.6021 46.9077H47.9548L47.4526 60.1494Z" fill="#1C4D59"/>
<path d="M61.8498 60.1494H58.5016L57.9993 46.9077H62.352L61.8498 60.1494Z" fill="#1C4D59"/>
<path d="M64.1066 48.0798H41.8477V47.2428C41.8477 45.3936 43.3468 43.8945 45.196 43.8945H60.7583C62.6075 43.8945 64.1066 45.3936 64.1066 47.2428L64.1066 48.0798Z" fill="#357DA3"/>
<path d="M1.18652 92.1453V81.6423H2.51953L6.51123 90.4827L10.5762 81.6423H11.7334V92.1453H10.5908V83.9275L6.87012 92.1453H6.01318L2.30713 83.9275V92.1453H1.18652ZM19.5337 84.8577H20.6323V92.1453H19.5337V90.7317C19.2993 91.2249 18.9673 91.6082 18.5376 91.8816C18.1128 92.155 17.6147 92.2917 17.0435 92.2917C16.106 92.2917 15.3589 91.9988 14.8022 91.4128C14.2456 90.8269 13.9673 90.0408 13.9673 89.0544V84.8577H15.0659V88.9373C15.0659 89.6453 15.2661 90.2092 15.6665 90.6292C16.0669 91.0491 16.6016 91.259 17.2705 91.259C17.959 91.259 18.5083 91.0491 18.9185 90.6292C19.3286 90.2092 19.5337 89.6453 19.5337 88.9373V84.8577ZM25.1294 92.2917C24.3091 92.2917 23.6304 92.0842 23.0933 91.6692C22.5562 91.2542 22.251 90.6926 22.1777 89.9846H23.2251C23.2739 90.3997 23.4692 90.7317 23.811 90.9807C24.1528 91.2249 24.5776 91.3469 25.0854 91.3469C25.5933 91.3469 26.001 91.2322 26.3086 91.0027C26.6211 90.7683 26.7773 90.468 26.7773 90.1018C26.7773 89.8577 26.7139 89.6526 26.5869 89.4866C26.46 89.3157 26.2915 89.1887 26.0815 89.1057C25.8765 89.0227 25.6421 88.947 25.3784 88.8787C25.1147 88.8103 24.8438 88.7542 24.5654 88.7102C24.2871 88.6663 24.0161 88.5979 23.7524 88.5051C23.4888 88.4124 23.252 88.3025 23.042 88.1755C22.8369 88.0437 22.6709 87.8582 22.5439 87.6189C22.417 87.3748 22.3535 87.0842 22.3535 86.7473C22.3535 86.1467 22.5903 85.656 23.064 85.2751C23.5376 84.8943 24.165 84.7039 24.9463 84.7039C25.6641 84.7039 26.2817 84.8943 26.7993 85.2751C27.3218 85.6511 27.6245 86.1565 27.7075 86.7913H26.6016C26.5479 86.4495 26.3647 86.1687 26.0522 85.949C25.7397 85.7292 25.3613 85.6194 24.917 85.6194C24.4727 85.6194 24.1113 85.717 23.833 85.9124C23.5596 86.1028 23.4229 86.3542 23.4229 86.6667C23.4229 86.9304 23.5034 87.1453 23.6646 87.3113C23.8306 87.4773 24.043 87.5994 24.3018 87.6775C24.5605 87.7556 24.8462 87.824 25.1587 87.8826C25.4761 87.9363 25.791 88.0046 26.1035 88.0876C26.4209 88.1707 26.709 88.2805 26.9678 88.4172C27.2266 88.554 27.4365 88.7615 27.5977 89.0398C27.7637 89.3181 27.8467 89.6624 27.8467 90.0725C27.8467 90.717 27.5879 91.2493 27.0703 91.6692C26.5576 92.0842 25.9106 92.2917 25.1294 92.2917ZM30.0952 81.6716C30.3052 81.6716 30.4907 81.7498 30.6519 81.906C30.813 82.0623 30.8936 82.2454 30.8936 82.4553C30.8936 82.6702 30.813 82.8582 30.6519 83.0193C30.4907 83.1755 30.3052 83.2537 30.0952 83.2537C29.8804 83.2537 29.6973 83.1755 29.5459 83.0193C29.3945 82.863 29.3188 82.675 29.3188 82.4553C29.3188 82.2454 29.3945 82.0623 29.5459 81.906C29.6973 81.7498 29.8804 81.6716 30.0952 81.6716ZM29.5386 84.8577H30.6372V92.1453H29.5386V84.8577ZM36.0645 92.2917C35.0049 92.2917 34.1113 91.928 33.3838 91.2004C32.6611 90.468 32.2998 89.5671 32.2998 88.4978C32.2998 87.4285 32.6611 86.53 33.3838 85.8025C34.1113 85.0701 35.0049 84.7039 36.0645 84.7039C36.8896 84.7039 37.6245 84.9456 38.269 85.429C38.9136 85.9075 39.3042 86.5105 39.4409 87.238H38.3276C38.2056 86.8035 37.9321 86.447 37.5073 86.1687C37.0825 85.8855 36.6016 85.7439 36.0645 85.7439C35.3076 85.7439 34.6704 86.0076 34.1528 86.5349C33.6353 87.0623 33.3765 87.7166 33.3765 88.4978C33.3765 89.2742 33.6353 89.9285 34.1528 90.4607C34.6704 90.9929 35.3076 91.259 36.0645 91.259C36.6064 91.259 37.0923 91.1125 37.522 90.8196C37.9565 90.5266 38.2251 90.1482 38.3276 89.6843H39.4409C39.3286 90.446 38.9478 91.071 38.2983 91.5593C37.6538 92.0476 36.9092 92.2917 36.0645 92.2917ZM49.6362 92.2917C48.6694 92.2917 47.7856 92.0549 46.9849 91.5813C46.189 91.1028 45.5615 90.4485 45.1025 89.6184C44.6436 88.7883 44.4141 87.8704 44.4141 86.8645C44.4141 86.1174 44.5483 85.4119 44.8169 84.7478C45.0903 84.0837 45.459 83.5149 45.9229 83.0413C46.3867 82.5627 46.9409 82.1868 47.5854 81.9133C48.23 81.635 48.9136 81.4958 49.6362 81.4958C50.7983 81.4958 51.8262 81.8303 52.7197 82.4993C53.6133 83.1633 54.1602 84.0129 54.3604 85.0481H53.1152C52.915 84.3206 52.4902 83.7297 51.8408 83.2756C51.1963 82.8167 50.4614 82.5872 49.6362 82.5872C48.8892 82.5872 48.2056 82.7751 47.5854 83.1511C46.9653 83.5222 46.4771 84.0374 46.1206 84.6965C45.7642 85.3508 45.5859 86.0735 45.5859 86.8645C45.5859 87.6653 45.7642 88.3977 46.1206 89.0618C46.4771 89.7258 46.9653 90.2483 47.5854 90.6292C48.2056 91.01 48.8892 91.2004 49.6362 91.2004C50.4858 91.2004 51.2329 90.9612 51.8774 90.4827C52.5269 90.0042 52.9443 89.3792 53.1299 88.6077H54.3896C54.165 89.7014 53.6108 90.5901 52.7271 91.2737C51.8481 91.9524 50.8179 92.2917 49.6362 92.2917ZM57.2681 81.6423V92.1453H56.1694V81.6423H57.2681ZM65.2954 84.8577H66.394V92.1453H65.2954V90.4534C65.0269 91.0393 64.6362 91.4934 64.1235 91.8157C63.6157 92.1331 63.0176 92.2917 62.3291 92.2917C61.6699 92.2917 61.062 92.1233 60.5054 91.7864C59.9536 91.4495 59.5166 90.988 59.1943 90.4021C58.8721 89.8162 58.7109 89.1765 58.7109 88.4832C58.7109 87.7898 58.8721 87.1526 59.1943 86.5715C59.5166 85.9905 59.9536 85.5339 60.5054 85.2019C61.062 84.8699 61.6699 84.7039 62.3291 84.7039C63.0176 84.7039 63.6182 84.865 64.1309 85.1873C64.6436 85.5046 65.0317 85.9539 65.2954 86.5349V84.8577ZM62.5342 91.259C63.3301 91.259 63.9893 90.9978 64.5117 90.4753C65.0342 89.948 65.2954 89.2839 65.2954 88.4832C65.2954 87.6873 65.0342 87.0281 64.5117 86.5056C63.9893 85.9832 63.3301 85.7219 62.5342 85.7219C61.7627 85.7219 61.1108 85.9905 60.5786 86.5276C60.0513 87.0647 59.7876 87.7166 59.7876 88.4832C59.7876 89.2644 60.0513 89.9236 60.5786 90.4607C61.1108 90.9929 61.7627 91.259 62.5342 91.259ZM70.8911 92.2917C70.0708 92.2917 69.3921 92.0842 68.855 91.6692C68.3179 91.2542 68.0127 90.6926 67.9395 89.9846H68.9868C69.0356 90.3997 69.231 90.7317 69.5728 90.9807C69.9146 91.2249 70.3394 91.3469 70.8472 91.3469C71.355 91.3469 71.7627 91.2322 72.0703 91.0027C72.3828 90.7683 72.5391 90.468 72.5391 90.1018C72.5391 89.8577 72.4756 89.6526 72.3486 89.4866C72.2217 89.3157 72.0532 89.1887 71.8433 89.1057C71.6382 89.0227 71.4038 88.947 71.1401 88.8787C70.8765 88.8103 70.6055 88.7542 70.3271 88.7102C70.0488 88.6663 69.7778 88.5979 69.5142 88.5051C69.2505 88.4124 69.0137 88.3025 68.8037 88.1755C68.5986 88.0437 68.4326 87.8582 68.3057 87.6189C68.1787 87.3748 68.1152 87.0842 68.1152 86.7473C68.1152 86.1467 68.3521 85.656 68.8257 85.2751C69.2993 84.8943 69.9268 84.7039 70.708 84.7039C71.4258 84.7039 72.0435 84.8943 72.561 85.2751C73.0835 85.6511 73.3862 86.1565 73.4692 86.7913H72.3633C72.3096 86.4495 72.1265 86.1687 71.814 85.949C71.5015 85.7292 71.123 85.6194 70.6787 85.6194C70.2344 85.6194 69.873 85.717 69.5947 85.9124C69.3213 86.1028 69.1846 86.3542 69.1846 86.6667C69.1846 86.9304 69.2651 87.1453 69.4263 87.3113C69.5923 87.4773 69.8047 87.5994 70.0635 87.6775C70.3223 87.7556 70.6079 87.824 70.9204 87.8826C71.2378 87.9363 71.5527 88.0046 71.8652 88.0876C72.1826 88.1707 72.4707 88.2805 72.7295 88.4172C72.9883 88.554 73.1982 88.7615 73.3594 89.0398C73.5254 89.3181 73.6084 89.6624 73.6084 90.0725C73.6084 90.717 73.3496 91.2493 72.832 91.6692C72.3193 92.0842 71.6724 92.2917 70.8911 92.2917ZM77.6733 92.2917C76.853 92.2917 76.1743 92.0842 75.6372 91.6692C75.1001 91.2542 74.7949 90.6926 74.7217 89.9846H75.769C75.8179 90.3997 76.0132 90.7317 76.355 90.9807C76.6968 91.2249 77.1216 91.3469 77.6294 91.3469C78.1372 91.3469 78.5449 91.2322 78.8525 91.0027C79.165 90.7683 79.3213 90.468 79.3213 90.1018C79.3213 89.8577 79.2578 89.6526 79.1309 89.4866C79.0039 89.3157 78.8354 89.1887 78.6255 89.1057C78.4204 89.0227 78.186 88.947 77.9224 88.8787C77.6587 88.8103 77.3877 88.7542 77.1094 88.7102C76.8311 88.6663 76.5601 88.5979 76.2964 88.5051C76.0327 88.4124 75.7959 88.3025 75.5859 88.1755C75.3809 88.0437 75.2148 87.8582 75.0879 87.6189C74.9609 87.3748 74.8975 87.0842 74.8975 86.7473C74.8975 86.1467 75.1343 85.656 75.6079 85.2751C76.0815 84.8943 76.709 84.7039 77.4902 84.7039C78.208 84.7039 78.8257 84.8943 79.3433 85.2751C79.8657 85.6511 80.1685 86.1565 80.2515 86.7913H79.1455C79.0918 86.4495 78.9087 86.1687 78.5962 85.949C78.2837 85.7292 77.9053 85.6194 77.4609 85.6194C77.0166 85.6194 76.6553 85.717 76.377 85.9124C76.1035 86.1028 75.9668 86.3542 75.9668 86.6667C75.9668 86.9304 76.0474 87.1453 76.2085 87.3113C76.3745 87.4773 76.5869 87.5994 76.8457 87.6775C77.1045 87.7556 77.3901 87.824 77.7026 87.8826C78.02 87.9363 78.335 88.0046 78.6475 88.0876C78.9648 88.1707 79.2529 88.2805 79.5117 88.4172C79.7705 88.554 79.9805 88.7615 80.1416 89.0398C80.3076 89.3181 80.3906 89.6624 80.3906 90.0725C80.3906 90.717 80.1318 91.2493 79.6143 91.6692C79.1016 92.0842 78.4546 92.2917 77.6733 92.2917ZM88.8354 88.2781C88.8354 88.4978 88.8306 88.637 88.8208 88.6956H82.7124C82.7661 89.4768 83.0347 90.1067 83.5181 90.5852C84.0015 91.0637 84.624 91.303 85.3857 91.303C85.9717 91.303 86.4746 91.1711 86.8945 90.9075C87.3193 90.6389 87.5806 90.2825 87.6782 89.8381H88.7769C88.6353 90.5754 88.2495 91.1687 87.6196 91.6179C86.9897 92.0671 86.2354 92.2917 85.3564 92.2917C84.2969 92.2917 83.4106 91.9255 82.6978 91.1931C81.9897 90.4607 81.6357 89.5476 81.6357 88.4539C81.6357 87.4041 81.9946 86.5178 82.7124 85.7952C83.4302 85.0676 84.3066 84.7039 85.3418 84.7039C85.9912 84.7039 86.582 84.8577 87.1143 85.1653C87.6465 85.468 88.0664 85.8928 88.374 86.4397C88.6816 86.9866 88.8354 87.5994 88.8354 88.2781ZM82.7637 87.7654H87.6636C87.6099 87.1599 87.3633 86.6643 86.9238 86.2786C86.4893 85.8879 85.9473 85.6926 85.2979 85.6926C84.6533 85.6926 84.1016 85.8806 83.6426 86.2566C83.1836 86.6326 82.8906 87.1355 82.7637 87.7654ZM92.9517 92.2917C92.1313 92.2917 91.4526 92.0842 90.9155 91.6692C90.3784 91.2542 90.0732 90.6926 90 89.9846H91.0474C91.0962 90.3997 91.2915 90.7317 91.6333 90.9807C91.9751 91.2249 92.3999 91.3469 92.9077 91.3469C93.4155 91.3469 93.8232 91.2322 94.1309 91.0027C94.4434 90.7683 94.5996 90.468 94.5996 90.1018C94.5996 89.8577 94.5361 89.6526 94.4092 89.4866C94.2822 89.3157 94.1138 89.1887 93.9038 89.1057C93.6987 89.0227 93.4644 88.947 93.2007 88.8787C92.937 88.8103 92.666 88.7542 92.3877 88.7102C92.1094 88.6663 91.8384 88.5979 91.5747 88.5051C91.311 88.4124 91.0742 88.3025 90.8643 88.1755C90.6592 88.0437 90.4932 87.8582 90.3662 87.6189C90.2393 87.3748 90.1758 87.0842 90.1758 86.7473C90.1758 86.1467 90.4126 85.656 90.8862 85.2751C91.3599 84.8943 91.9873 84.7039 92.7686 84.7039C93.4863 84.7039 94.104 84.8943 94.6216 85.2751C95.144 85.6511 95.4468 86.1565 95.5298 86.7913H94.4238C94.3701 86.4495 94.187 86.1687 93.8745 85.949C93.562 85.7292 93.1836 85.6194 92.7393 85.6194C92.2949 85.6194 91.9336 85.717 91.6553 85.9124C91.3818 86.1028 91.2451 86.3542 91.2451 86.6667C91.2451 86.9304 91.3257 87.1453 91.4868 87.3113C91.6528 87.4773 91.8652 87.5994 92.124 87.6775C92.3828 87.7556 92.6685 87.824 92.981 87.8826C93.2983 87.9363 93.6133 88.0046 93.9258 88.0876C94.2432 88.1707 94.5312 88.2805 94.79 88.4172C95.0488 88.554 95.2588 88.7615 95.4199 89.0398C95.5859 89.3181 95.6689 89.6624 95.6689 90.0725C95.6689 90.717 95.4102 91.2493 94.8926 91.6692C94.3799 92.0842 93.7329 92.2917 92.9517 92.2917Z" fill="black"/>
</svg>
