<svg width="96" height="97" viewBox="0 0 96 97" fill="none" xmlns="http://www.w3.org/2000/svg">
<path d="M70.9325 12.693L50.2394 24.1892L59.4363 60.977L77.8303 49.4808L70.9325 12.693Z" fill="#12A567"/>
<path d="M70.9318 12.6929H6.5531L13.4508 49.4807H77.8295L70.9318 12.6929Z" fill="#12A567"/>
<path d="M9.28424 14.9923L15.7509 49.4809H77.8303L71.3637 14.9923H9.28424Z" fill="#1FB978"/>
<path d="M24.3976 31.2782C22.2813 31.2782 20.5657 32.9938 20.5657 35.1101V40.858C20.5657 42.9743 22.2813 44.6899 24.3976 44.6899C26.5139 44.6899 28.2295 42.9743 28.2295 40.858V35.1101C28.2295 32.9938 26.5139 31.2782 24.3976 31.2782ZM26.3136 40.858C26.3136 41.9161 25.4558 42.7739 24.3976 42.7739C23.3395 42.7739 22.4817 41.9161 22.4817 40.858V35.1101C22.4817 34.052 23.3395 33.1941 24.3976 33.1941C25.4558 33.1941 26.3136 34.052 26.3136 35.1101V40.858Z" fill="white"/>
<path d="M36.8508 33.1943C37.3799 33.1943 37.8088 32.7654 37.8088 32.2363C37.8088 31.7072 37.3799 31.2783 36.8508 31.2783H31.1029C30.5739 31.2783 30.145 31.7072 30.145 32.2363V43.732C30.145 44.2611 30.5739 44.69 31.1029 44.69C31.632 44.69 32.0609 44.2611 32.0609 43.732V38.9421H36.8508C37.3799 38.9421 37.8088 38.5132 37.8088 37.9841C37.8088 37.4551 37.3799 37.0262 36.8508 37.0262H32.0609V33.1943H36.8508Z" fill="white"/>
<path d="M46.4307 37.0261H41.6408V33.1941H46.4307C46.9598 33.1941 47.3887 32.7652 47.3887 32.2362C47.3887 31.7071 46.9598 31.2782 46.4307 31.2782H40.6828C40.1538 31.2782 39.7249 31.7071 39.7249 32.2362V43.7319C39.7249 44.261 40.1538 44.6899 40.6828 44.6899C41.2119 44.6899 41.6408 44.261 41.6408 43.7319V38.942H46.4307C46.9598 38.942 47.3887 38.5131 47.3887 37.984C47.3887 37.455 46.9598 37.0261 46.4307 37.0261Z" fill="white"/>
<path d="M56.0098 38.9421C56.5389 38.9421 56.9678 38.5132 56.9678 37.9841C56.9678 37.4551 56.5389 37.0262 56.0098 37.0262H51.22V33.1943H56.0098C56.5389 33.1943 56.9678 32.7654 56.9678 32.2363C56.9678 31.7072 56.5389 31.2783 56.0098 31.2783H50.262C49.7329 31.2783 49.304 31.7072 49.304 32.2363V43.732C49.304 44.2611 49.7329 44.69 50.262 44.69H56.0098C56.5389 44.69 56.9678 44.2611 56.9678 43.732C56.9678 43.2029 56.5389 42.774 56.0098 42.774H51.22V38.9421H56.0098Z" fill="white"/>
<path d="M64.1281 38.6653C65.8278 37.9816 66.8058 36.1903 66.4618 34.3907C66.1178 32.5912 64.5481 31.2869 62.716 31.2783H59.8421C59.313 31.2783 58.8841 31.7072 58.8841 32.2363V43.732C58.8841 44.2611 59.313 44.69 59.8421 44.69C60.3711 44.69 60.8 44.2611 60.8 43.732V38.9421H62.124L64.7325 44.1602C64.969 44.6337 65.5446 44.8259 66.0181 44.5894C66.4917 44.3529 66.6838 43.7773 66.4473 43.3038L64.1281 38.6653ZM60.8 33.1943H62.716C63.7742 33.1943 64.632 34.0521 64.632 35.1102C64.632 36.1684 63.7742 37.0262 62.716 37.0262H60.8V33.1943Z" fill="white"/>
<path d="M66.5484 29.362H62.7165C62.1874 29.362 61.7585 28.9331 61.7585 28.404V20.7402C61.7585 20.2111 62.1874 19.7822 62.7165 19.7822C63.2455 19.7822 63.6744 20.2111 63.6744 20.7402V27.446H66.5484C67.0774 27.446 67.5063 27.8749 67.5063 28.404C67.5063 28.9331 67.0774 29.362 66.5484 29.362Z" fill="white"/>
<path d="M45.4734 21.6982C46.0024 21.6982 46.4313 22.1271 46.4313 22.6562C46.4313 23.1852 46.8602 23.6141 47.3893 23.6141C47.9184 23.6141 48.3473 23.1852 48.3473 22.6562C48.3473 21.0689 47.0606 19.7822 45.4734 19.7822C43.8861 19.7822 42.5994 21.0689 42.5994 22.6562V26.4881C42.5994 28.0753 43.8861 29.362 45.4734 29.362C47.0606 29.362 48.3473 28.0753 48.3473 26.4881C48.3473 25.959 47.9184 25.5301 47.3893 25.5301C46.8602 25.5301 46.4313 25.959 46.4313 26.4881C46.4313 27.0171 46.0024 27.446 45.4734 27.446C44.9443 27.446 44.5154 27.0171 44.5154 26.4881V22.6562C44.5154 22.1271 44.9443 21.6982 45.4734 21.6982Z" fill="white"/>
<path d="M51.2207 19.7822C50.6917 19.7822 50.2628 20.2111 50.2628 20.7402V28.404C50.2628 28.9331 50.6917 29.362 51.2207 29.362C51.7498 29.362 52.1787 28.9331 52.1787 28.404V20.7402C52.1787 20.2111 51.7498 19.7822 51.2207 19.7822Z" fill="white"/>
<path d="M56.9679 19.7823C55.3806 19.7823 54.0939 21.069 54.0939 22.6563V28.4041C54.0939 28.9332 54.5228 29.3621 55.0519 29.3621C55.581 29.3621 56.0099 28.9332 56.0099 28.4041V25.5302H57.9258V28.4041C57.9258 28.9332 58.3547 29.3621 58.8838 29.3621C59.4129 29.3621 59.8418 28.9332 59.8418 28.4041V22.6563C59.8418 21.069 58.5551 19.7823 56.9679 19.7823ZM56.0099 23.6143V22.6563C56.0099 22.1272 56.4388 21.6983 56.9679 21.6983C57.4969 21.6983 57.9258 22.1272 57.9258 22.6563V23.6143H56.0099Z" fill="white"/>
<path d="M39.7249 21.6982C40.254 21.6982 40.6829 21.2693 40.6829 20.7402C40.6829 20.2111 40.254 19.7822 39.7249 19.7822H35.893C35.3639 19.7822 34.935 20.2111 34.935 20.7402V28.404C34.935 28.9331 35.3639 29.362 35.893 29.362H39.7249C40.254 29.362 40.6829 28.9331 40.6829 28.404C40.6829 27.8749 40.254 27.446 39.7249 27.446H36.8509V25.5301H39.7249C40.254 25.5301 40.6829 25.1012 40.6829 24.5721C40.6829 24.043 40.254 23.6141 39.7249 23.6141H36.8509V21.6982H39.7249Z" fill="white"/>
<path d="M30.1455 19.7823H28.2295C27.7004 19.7823 27.2715 20.2112 27.2715 20.7403V28.4041C27.2715 28.9332 27.7004 29.3621 28.2295 29.3621C28.7586 29.3621 29.1875 28.9332 29.1875 28.4041V25.5302H30.1455C31.7327 25.5302 33.0194 24.2435 33.0194 22.6563C33.0194 21.069 31.7327 19.7823 30.1455 19.7823ZM30.1455 23.6143H29.1875V21.6983H30.1455C30.6745 21.6983 31.1035 22.1272 31.1035 22.6563C31.1035 23.1854 30.6745 23.6143 30.1455 23.6143Z" fill="white"/>
<path d="M22.482 21.6982C23.0111 21.6982 23.44 22.1271 23.44 22.6562C23.44 23.1852 23.8689 23.6141 24.398 23.6141C24.927 23.6141 25.356 23.1852 25.356 22.6562C25.356 21.0689 24.0692 19.7822 22.482 19.7822C20.8948 19.7822 19.6081 21.0689 19.6081 22.6562C19.6081 24.2434 20.8948 25.5301 22.482 25.5301C23.0111 25.5301 23.44 25.959 23.44 26.4881C23.44 27.0171 23.0111 27.446 22.482 27.446C21.9529 27.446 21.524 27.0171 21.524 26.4881C21.524 25.959 21.0951 25.5301 20.5661 25.5301C20.037 25.5301 19.6081 25.959 19.6081 26.4881C19.6081 28.0753 20.8948 29.362 22.482 29.362C24.0692 29.362 25.356 28.0753 25.356 26.4881C25.356 24.9008 24.0692 23.6141 22.482 23.6141C21.9529 23.6141 21.524 23.1852 21.524 22.6562C21.524 22.1271 21.9529 21.6982 22.482 21.6982Z" fill="white"/>
<path d="M74.5102 0C74.7555 0 75.0005 0.00601612 75.2454 0.0180484C75.4904 0.0300806 75.7348 0.0481144 75.9789 0.0721499C76.2229 0.0961854 76.4662 0.126194 76.7088 0.162174C76.9513 0.198155 77.1929 0.240065 77.4334 0.287905C77.6739 0.335744 77.9131 0.389456 78.1509 0.449038C78.3888 0.508621 78.6251 0.574004 78.8597 0.645187C79.0944 0.71637 79.3272 0.793267 79.558 0.875878C79.7889 0.958489 80.0176 1.04671 80.2442 1.14056C80.4707 1.2344 80.6949 1.33374 80.9165 1.43858C81.1382 1.54343 81.3572 1.65365 81.5734 1.76924C81.7897 1.88483 82.003 2.00566 82.2133 2.13173C82.4236 2.2578 82.6308 2.38895 82.8347 2.52518C83.0385 2.66142 83.239 2.80258 83.4359 2.94865C83.6329 3.09473 83.8261 3.24555 84.0157 3.40111C84.2053 3.55668 84.3909 3.7168 84.5726 3.88147C84.7543 4.04615 84.9318 4.21519 85.1052 4.38858C85.2786 4.56198 85.4476 4.73952 85.6123 4.92122C85.777 5.10291 85.9371 5.28853 86.0927 5.47809C86.2482 5.66764 86.3991 5.8609 86.5451 6.05786C86.6912 6.25482 86.8324 6.45525 86.9686 6.65914C87.1048 6.86303 87.236 7.07014 87.3621 7.28047C87.4881 7.4908 87.609 7.7041 87.7246 7.92036C87.8401 8.13662 87.9504 8.35559 88.0552 8.57726C88.1601 8.79893 88.2594 9.02305 88.3532 9.2496C88.4471 9.47615 88.5353 9.70487 88.6179 9.93575C88.7005 10.1666 88.7774 10.3994 88.8486 10.6341C88.9198 10.8687 88.9852 11.105 89.0448 11.3429C89.1043 11.5807 89.158 11.8199 89.2059 12.0604C89.2537 12.3009 89.2956 12.5425 89.3316 12.785C89.3676 13.0276 89.3976 13.2709 89.4216 13.5149C89.4457 13.759 89.4637 14.0034 89.4757 14.2484C89.4878 14.4933 89.4938 14.7383 89.4938 14.9836C89.4938 15.2288 89.4878 15.4738 89.4757 15.7188C89.4637 15.9637 89.4457 16.2082 89.4216 16.4522C89.3976 16.6962 89.3676 16.9395 89.3316 17.1821C89.2956 17.4247 89.2537 17.6662 89.2059 17.9067C89.158 18.1472 89.1043 18.3864 89.0448 18.6243C88.9852 18.8621 88.9198 19.0984 88.8486 19.3331C88.7774 19.5677 88.7005 19.8005 88.6179 20.0314C88.5353 20.2623 88.4471 20.491 88.3532 20.7175C88.2594 20.9441 88.16 21.1682 88.0552 21.3899C87.9504 21.6115 87.8401 21.8305 87.7246 22.0468C87.609 22.263 87.4881 22.4763 87.3621 22.6866C87.236 22.897 87.1048 23.1041 86.9686 23.308C86.8324 23.5119 86.6912 23.7123 86.5451 23.9093C86.3991 24.1062 86.2482 24.2995 86.0927 24.489C85.9371 24.6786 85.777 24.8642 85.6123 25.0459C85.4476 25.2276 85.2786 25.4051 85.1052 25.5785C84.9318 25.7519 84.7543 25.921 84.5726 26.0856C84.3909 26.2503 84.2053 26.4104 84.0157 26.566C83.8261 26.7216 83.6329 26.8724 83.4359 27.0185C83.239 27.1645 83.0385 27.3057 82.8347 27.4419C82.6308 27.5782 82.4236 27.7093 82.2133 27.8354C82.003 27.9615 81.7897 28.0823 81.5734 28.1979C81.3572 28.3135 81.1382 28.4237 80.9165 28.5285C80.6949 28.6334 80.4707 28.7327 80.2442 28.8266C80.0176 28.9204 79.7889 29.0086 79.558 29.0912C79.3272 29.1739 79.0944 29.2507 78.8597 29.3219C78.6251 29.3931 78.3888 29.4585 78.1509 29.5181C77.9131 29.5777 77.6739 29.6314 77.4334 29.6792C77.1929 29.7271 76.9513 29.769 76.7088 29.8049C76.4662 29.8409 76.2229 29.8709 75.9789 29.895C75.7348 29.919 75.4904 29.937 75.2454 29.9491C75.0005 29.9611 74.7555 29.9671 74.5102 29.9671C74.265 29.9671 74.0199 29.9611 73.775 29.9491C73.5301 29.937 73.2856 29.919 73.0416 29.895C72.7976 29.8709 72.5542 29.8409 72.3117 29.8049C72.0691 29.769 71.8276 29.7271 71.5871 29.6792C71.3466 29.6314 71.1074 29.5777 70.8695 29.5181C70.6317 29.4585 70.3954 29.3931 70.1607 29.3219C69.9261 29.2507 69.6933 29.1738 69.4624 29.0912C69.2315 29.0086 69.0028 28.9204 68.7763 28.8266C68.5497 28.7327 68.3256 28.6334 68.1039 28.5285C67.8823 28.4237 67.6633 28.3135 67.447 28.1979C67.2308 28.0823 67.0175 27.9615 66.8071 27.8354C66.5968 27.7093 66.3897 27.5782 66.1858 27.4419C65.9819 27.3057 65.7815 27.1645 65.5845 27.0185C65.3876 26.8724 65.1943 26.7216 65.0048 26.566C64.8152 26.4104 64.6296 26.2503 64.4479 26.0856C64.2662 25.921 64.0886 25.7519 63.9153 25.5785C63.7419 25.4051 63.5728 25.2276 63.4081 25.0459C63.2435 24.8642 63.0833 24.6786 62.9278 24.489C62.7722 24.2995 62.6214 24.1062 62.4753 23.9093C62.3292 23.7123 62.1881 23.5119 62.0519 23.308C61.9156 23.1041 61.7845 22.897 61.6584 22.6866C61.5323 22.4763 61.4115 22.263 61.2959 22.0468C61.1803 21.8305 61.0701 21.6115 60.9653 21.3899C60.8604 21.1682 60.7611 20.9441 60.6672 20.7175C60.5734 20.491 60.4852 20.2623 60.4026 20.0314C60.3199 19.8005 60.243 19.5677 60.1719 19.3331C60.1007 19.0984 60.0353 18.8621 59.9757 18.6243C59.9161 18.3864 59.8624 18.1472 59.8146 17.9067C59.7667 17.6662 59.7248 17.4247 59.6888 17.1821C59.6529 16.9395 59.6229 16.6962 59.5988 16.4522C59.5748 16.2082 59.5568 15.9637 59.5447 15.7188C59.5327 15.4738 59.5267 15.2288 59.5267 14.9836C59.5267 14.7383 59.5327 14.4933 59.5447 14.2483C59.5568 14.0034 59.5748 13.759 59.5988 13.5149C59.6229 13.2709 59.6529 13.0276 59.6888 12.785C59.7248 12.5425 59.7667 12.3009 59.8146 12.0604C59.8624 11.8199 59.9161 11.5807 59.9757 11.3429C60.0353 11.105 60.1007 10.8687 60.1719 10.6341C60.243 10.3994 60.3199 10.1666 60.4026 9.93575C60.4852 9.70487 60.5734 9.47615 60.6672 9.2496C60.7611 9.02305 60.8604 8.79893 60.9653 8.57726C61.0701 8.35559 61.1803 8.13662 61.2959 7.92036C61.4115 7.7041 61.5323 7.4908 61.6584 7.28047C61.7845 7.07014 61.9156 6.86303 62.0519 6.65914C62.1881 6.45525 62.3292 6.25482 62.4753 6.05786C62.6214 5.8609 62.7722 5.66764 62.9278 5.47809C63.0833 5.28853 63.2435 5.10291 63.4081 4.92122C63.5728 4.73952 63.7419 4.56198 63.9153 4.38858C64.0886 4.21519 64.2662 4.04615 64.4479 3.88147C64.6296 3.7168 64.8152 3.55668 65.0048 3.40111C65.1943 3.24555 65.3876 3.09473 65.5845 2.94865C65.7815 2.80258 65.9819 2.66142 66.1858 2.52518C66.3897 2.38895 66.5968 2.2578 66.8071 2.13173C67.0175 2.00566 67.2308 1.88483 67.447 1.76924C67.6633 1.65365 67.8823 1.54343 68.1039 1.43858C68.3256 1.33374 68.5497 1.2344 68.7763 1.14056C69.0028 1.04671 69.2315 0.958489 69.4624 0.875878C69.6933 0.793267 69.9261 0.71637 70.1607 0.645187C70.3954 0.574004 70.6317 0.508621 70.8695 0.449038C71.1074 0.389456 71.3466 0.335744 71.5871 0.287905C71.8276 0.240065 72.0691 0.198155 72.3117 0.162174C72.5543 0.126194 72.7975 0.0961854 73.0416 0.0721499C73.2856 0.0481144 73.5301 0.0300806 73.775 0.0180484C74.0199 0.00601612 74.265 0 74.5102 0Z" fill="#ED1C24"/>
<path d="M69.9117 13.8462C68.007 13.8462 66.4629 12.3021 66.4629 10.3973C66.4629 8.49259 68.007 6.94849 69.9117 6.94849C71.8165 6.94849 73.3606 8.49259 73.3606 10.3973C73.3606 12.3021 71.8165 13.8462 69.9117 13.8462ZM69.9117 9.24772C69.2768 9.24772 68.7621 9.76243 68.7621 10.3973C68.7621 11.0323 69.2768 11.547 69.9117 11.547C70.5467 11.547 71.0614 11.0323 71.0614 10.3973C71.0614 9.76243 70.5467 9.24772 69.9117 9.24772Z" fill="#F5FBFF"/>
<path d="M79.1089 23.0437C77.2041 23.0437 75.66 21.4996 75.66 19.5949C75.66 17.6901 77.2041 16.146 79.1089 16.146C81.0136 16.146 82.5578 17.6901 82.5578 19.5949C82.5578 21.4996 81.0136 23.0437 79.1089 23.0437ZM79.1089 18.4452C78.474 18.4452 77.9593 18.9599 77.9593 19.5949C77.9593 20.2298 78.474 20.7445 79.1089 20.7445C79.7438 20.7445 80.2585 20.2298 80.2585 19.5949C80.2585 18.9599 79.7438 18.4452 79.1089 18.4452Z" fill="#F5FBFF"/>
<path d="M71.4338 23.3721L69.6065 22.4584C69.575 22.4427 69.5536 22.4181 69.5425 22.3847C69.5314 22.3512 69.5337 22.3188 69.5494 22.2873L77.3578 6.67048C77.3736 6.63897 77.3982 6.61765 77.4316 6.60652C77.465 6.59538 77.4974 6.59768 77.5289 6.61343L79.3563 7.52711C79.3878 7.54286 79.4091 7.56744 79.4203 7.60086C79.4314 7.63427 79.4291 7.66673 79.4133 7.69824L71.6049 23.315C71.5892 23.3465 71.5646 23.3679 71.5312 23.379C71.4978 23.3901 71.4653 23.3878 71.4338 23.3721Z" fill="#F5FBFF"/>
<path d="M3.94043 82.0168C4.59473 81.7385 5.29053 81.5994 6.02783 81.5994C6.76514 81.5994 7.46094 81.7385 8.11523 82.0168C8.76953 82.2903 9.33105 82.6663 9.7998 83.1448C10.2686 83.6184 10.6396 84.1873 10.9131 84.8513C11.1865 85.5154 11.3232 86.2209 11.3232 86.968C11.3232 87.9739 11.0913 88.8918 10.6274 89.7219C10.1636 90.552 9.52637 91.2063 8.71582 91.6848C7.90527 92.1584 7.00928 92.3953 6.02783 92.3953C5.04639 92.3953 4.15039 92.1584 3.33984 91.6848C2.5293 91.2063 1.89209 90.552 1.42822 89.7219C0.964355 88.8918 0.732422 87.9739 0.732422 86.968C0.732422 86.2209 0.869141 85.5154 1.14258 84.8513C1.41602 84.1873 1.78711 83.6184 2.25586 83.1448C2.72461 82.6663 3.28613 82.2903 3.94043 82.0168ZM7.64648 83.0203C7.13867 82.8005 6.59912 82.6907 6.02783 82.6907C5.45654 82.6907 4.91455 82.8005 4.40186 83.0203C3.89404 83.24 3.45703 83.5403 3.09082 83.9211C2.72461 84.2971 2.43408 84.7512 2.21924 85.2834C2.00928 85.8108 1.9043 86.3723 1.9043 86.968C1.9043 87.7688 2.08496 88.5012 2.44629 89.1653C2.80762 89.8293 3.30322 90.3518 3.93311 90.7327C4.56787 91.1135 5.26611 91.304 6.02783 91.304C6.78955 91.304 7.48535 91.1135 8.11523 90.7327C8.75 90.3518 9.24805 89.8293 9.60938 89.1653C9.9707 88.5012 10.1514 87.7688 10.1514 86.968C10.1514 86.3723 10.0439 85.8108 9.8291 85.2834C9.61914 84.7512 9.33105 84.2971 8.96484 83.9211C8.59863 83.5403 8.15918 83.24 7.64648 83.0203ZM16.4648 82.5881C15.4443 82.5881 14.9341 83.0886 14.9341 84.0896V84.9612H16.9922V85.9792H14.9341V92.2488H13.8428V85.9792H12.3999V84.9612H13.8428V84.075C13.8428 83.2498 14.0576 82.6272 14.4873 82.2073C14.917 81.7825 15.5103 81.5701 16.2671 81.5701C16.5161 81.5701 16.7578 81.5945 16.9922 81.6433V82.6467C16.8408 82.6077 16.665 82.5881 16.4648 82.5881ZM21.6943 82.5881C20.6738 82.5881 20.1636 83.0886 20.1636 84.0896V84.9612H22.2217V85.9792H20.1636V92.2488H19.0723V85.9792H17.6294V84.9612H19.0723V84.075C19.0723 83.2498 19.2871 82.6272 19.7168 82.2073C20.1465 81.7825 20.7397 81.5701 21.4966 81.5701C21.7456 81.5701 21.9873 81.5945 22.2217 81.6433V82.6467C22.0703 82.6077 21.8945 82.5881 21.6943 82.5881ZM29.6265 88.3816C29.6265 88.6013 29.6216 88.7405 29.6118 88.7991H23.5034C23.5571 89.5803 23.8257 90.2102 24.3091 90.6887C24.7925 91.1672 25.415 91.4065 26.1768 91.4065C26.7627 91.4065 27.2656 91.2747 27.6855 91.011C28.1104 90.7424 28.3716 90.386 28.4692 89.9417H29.5679C29.4263 90.679 29.0405 91.2722 28.4106 91.7214C27.7808 92.1707 27.0264 92.3953 26.1475 92.3953C25.0879 92.3953 24.2017 92.0291 23.4888 91.2966C22.7808 90.5642 22.4268 89.6511 22.4268 88.5574C22.4268 87.5076 22.7856 86.6213 23.5034 85.8987C24.2212 85.1711 25.0977 84.8074 26.1328 84.8074C26.7822 84.8074 27.373 84.9612 27.9053 85.2688C28.4375 85.5715 28.8574 85.9963 29.165 86.5432C29.4727 87.0901 29.6265 87.7029 29.6265 88.3816ZM23.5547 87.8689H28.4546C28.4009 87.2634 28.1543 86.7678 27.7148 86.3821C27.2803 85.9915 26.7383 85.7961 26.0889 85.7961C25.4443 85.7961 24.8926 85.9841 24.4336 86.3601C23.9746 86.7361 23.6816 87.239 23.5547 87.8689ZM34.4604 84.8074C34.6509 84.8074 34.8779 84.8367 35.1416 84.8953V85.9207C34.9023 85.8376 34.6655 85.7961 34.4312 85.7961C33.8599 85.7961 33.3789 85.9988 32.9883 86.4041C32.6025 86.8044 32.4097 87.3123 32.4097 87.9275V92.2488H31.311V84.9612H32.4097V86.1257C32.6245 85.7156 32.9102 85.3933 33.2666 85.1589C33.623 84.9246 34.021 84.8074 34.4604 84.8074ZM38.7524 92.3953C37.9321 92.3953 37.2534 92.1877 36.7163 91.7727C36.1792 91.3577 35.874 90.7961 35.8008 90.0881H36.8481C36.897 90.5032 37.0923 90.8352 37.4341 91.0842C37.7759 91.3284 38.2007 91.4504 38.7085 91.4504C39.2163 91.4504 39.624 91.3357 39.9316 91.1062C40.2441 90.8718 40.4004 90.5715 40.4004 90.2053C40.4004 89.9612 40.3369 89.7561 40.21 89.5901C40.083 89.4192 39.9146 89.2922 39.7046 89.2092C39.4995 89.1262 39.2651 89.0505 39.0015 88.9822C38.7378 88.9138 38.4668 88.8577 38.1885 88.8137C37.9102 88.7698 37.6392 88.7014 37.3755 88.6086C37.1118 88.5159 36.875 88.406 36.665 88.2791C36.46 88.1472 36.2939 87.9617 36.167 87.7224C36.04 87.4783 35.9766 87.1877 35.9766 86.8508C35.9766 86.2502 36.2134 85.7595 36.687 85.3787C37.1606 84.9978 37.7881 84.8074 38.5693 84.8074C39.2871 84.8074 39.9048 84.9978 40.4224 85.3787C40.9448 85.7546 41.2476 86.26 41.3306 86.8948H40.2246C40.1709 86.553 39.9878 86.2722 39.6753 86.0525C39.3628 85.8328 38.9844 85.7229 38.54 85.7229C38.0957 85.7229 37.7344 85.8206 37.4561 86.0159C37.1826 86.2063 37.0459 86.4578 37.0459 86.7703C37.0459 87.0339 37.1265 87.2488 37.2876 87.4148C37.4536 87.5808 37.666 87.7029 37.9248 87.781C38.1836 87.8591 38.4692 87.9275 38.7817 87.9861C39.0991 88.0398 39.4141 88.1082 39.7266 88.1912C40.0439 88.2742 40.332 88.384 40.5908 88.5208C40.8496 88.6575 41.0596 88.865 41.2207 89.1433C41.3867 89.4216 41.4697 89.7659 41.4697 90.176C41.4697 90.8206 41.2109 91.3528 40.6934 91.7727C40.1807 92.1877 39.5337 92.3953 38.7524 92.3953ZM44.8608 90.7913L43.8574 93.8381H42.9858L43.6304 90.7913H44.8608ZM53.7891 81.7458C54.5068 81.7458 55.1831 81.8777 55.8179 82.1414C56.4575 82.4001 57.0068 82.759 57.4658 83.218C57.9248 83.6721 58.2861 84.2239 58.5498 84.8733C58.8184 85.5178 58.9526 86.2112 58.9526 86.9534C58.9526 87.6956 58.8184 88.3962 58.5498 89.0554C58.2861 89.7097 57.9248 90.2712 57.4658 90.74C57.0068 91.2039 56.4575 91.5725 55.8179 91.8459C55.1831 92.1145 54.5068 92.2488 53.7891 92.2488H50.5371V81.7458H53.7891ZM53.8477 91.1721C54.9707 91.1721 55.9058 90.7717 56.6528 89.9709C57.4048 89.1653 57.7808 88.1594 57.7808 86.9534C57.7808 85.7571 57.4072 84.7708 56.6602 83.9944C55.918 83.218 54.9805 82.8298 53.8477 82.8298H51.6577V91.1721H53.8477ZM67.2876 88.3816C67.2876 88.6013 67.2827 88.7405 67.2729 88.7991H61.1646C61.2183 89.5803 61.4868 90.2102 61.9702 90.6887C62.4536 91.1672 63.0762 91.4065 63.8379 91.4065C64.4238 91.4065 64.9268 91.2747 65.3467 91.011C65.7715 90.7424 66.0327 90.386 66.1304 89.9417H67.229C67.0874 90.679 66.7017 91.2722 66.0718 91.7214C65.4419 92.1707 64.6875 92.3953 63.8086 92.3953C62.749 92.3953 61.8628 92.0291 61.1499 91.2966C60.4419 90.5642 60.0879 89.6511 60.0879 88.5574C60.0879 87.5076 60.4468 86.6213 61.1646 85.8987C61.8823 85.1711 62.7588 84.8074 63.7939 84.8074C64.4434 84.8074 65.0342 84.9612 65.5664 85.2688C66.0986 85.5715 66.5186 85.9963 66.8262 86.5432C67.1338 87.0901 67.2876 87.7029 67.2876 88.3816ZM61.2158 87.8689H66.1157C66.062 87.2634 65.8154 86.7678 65.376 86.3821C64.9414 85.9915 64.3994 85.7961 63.75 85.7961C63.1055 85.7961 62.5537 85.9841 62.0947 86.3601C61.6357 86.7361 61.3428 87.239 61.2158 87.8689ZM74.8901 84.9612H75.9888V92.2488H74.8901V90.5569C74.6216 91.1428 74.231 91.5969 73.7183 91.9192C73.2104 92.2366 72.6123 92.3953 71.9238 92.3953C71.2646 92.3953 70.6567 92.2268 70.1001 91.8899C69.5483 91.553 69.1113 91.0916 68.7891 90.5056C68.4668 89.9197 68.3057 89.28 68.3057 88.5867C68.3057 87.8933 68.4668 87.2561 68.7891 86.675C69.1113 86.094 69.5483 85.6375 70.1001 85.3054C70.6567 84.9734 71.2646 84.8074 71.9238 84.8074C72.6123 84.8074 73.2129 84.9685 73.7256 85.2908C74.2383 85.6082 74.6265 86.0574 74.8901 86.6384V84.9612ZM72.1289 91.3625C72.9248 91.3625 73.584 91.1013 74.1064 90.5789C74.6289 90.0515 74.8901 89.3875 74.8901 88.5867C74.8901 87.7908 74.6289 87.1316 74.1064 86.6091C73.584 86.0867 72.9248 85.8254 72.1289 85.8254C71.3574 85.8254 70.7056 86.094 70.1733 86.6311C69.646 87.1682 69.3823 87.8201 69.3823 88.5867C69.3823 89.3679 69.646 90.0271 70.1733 90.5642C70.7056 91.0964 71.3574 91.3625 72.1289 91.3625ZM79.1821 81.7458V92.2488H78.0835V81.7458H79.1821ZM83.6792 92.3953C82.8589 92.3953 82.1802 92.1877 81.6431 91.7727C81.106 91.3577 80.8008 90.7961 80.7275 90.0881H81.7749C81.8237 90.5032 82.019 90.8352 82.3608 91.0842C82.7026 91.3284 83.1274 91.4504 83.6353 91.4504C84.1431 91.4504 84.5508 91.3357 84.8584 91.1062C85.1709 90.8718 85.3271 90.5715 85.3271 90.2053C85.3271 89.9612 85.2637 89.7561 85.1367 89.5901C85.0098 89.4192 84.8413 89.2922 84.6313 89.2092C84.4263 89.1262 84.1919 89.0505 83.9282 88.9822C83.6646 88.9138 83.3936 88.8577 83.1152 88.8137C82.8369 88.7698 82.5659 88.7014 82.3022 88.6086C82.0386 88.5159 81.8018 88.406 81.5918 88.2791C81.3867 88.1472 81.2207 87.9617 81.0938 87.7224C80.9668 87.4783 80.9033 87.1877 80.9033 86.8508C80.9033 86.2502 81.1401 85.7595 81.6138 85.3787C82.0874 84.9978 82.7148 84.8074 83.4961 84.8074C84.2139 84.8074 84.8315 84.9978 85.3491 85.3787C85.8716 85.7546 86.1743 86.26 86.2573 86.8948H85.1514C85.0977 86.553 84.9146 86.2722 84.6021 86.0525C84.2896 85.8328 83.9111 85.7229 83.4668 85.7229C83.0225 85.7229 82.6611 85.8206 82.3828 86.0159C82.1094 86.2063 81.9727 86.4578 81.9727 86.7703C81.9727 87.0339 82.0532 87.2488 82.2144 87.4148C82.3804 87.5808 82.5928 87.7029 82.8516 87.781C83.1104 87.8591 83.396 87.9275 83.7085 87.9861C84.0259 88.0398 84.3408 88.1082 84.6533 88.1912C84.9707 88.2742 85.2588 88.384 85.5176 88.5208C85.7764 88.6575 85.9863 88.865 86.1475 89.1433C86.3135 89.4216 86.3965 89.7659 86.3965 90.176C86.3965 90.8206 86.1377 91.3528 85.6201 91.7727C85.1074 92.1877 84.4604 92.3953 83.6792 92.3953Z" fill="black"/>
</svg>
