<svg width="512" height="708" viewBox="0 0 512 708" fill="none" xmlns="http://www.w3.org/2000/svg">
<mask id="mask0_723_861" style="mask-type:luminance" maskUnits="userSpaceOnUse" x="0" y="0" width="512" height="708">
<path d="M511.972 0H-6.10352e-05V707.618H511.972V0Z" fill="white"/>
</mask>
<g mask="url(#mask0_723_861)">
<path d="M430.037 446.965H255.163C237.962 446.965 223.888 432.891 223.888 415.69V31.3053C223.888 14.1043 237.962 0.0303955 255.163 0.0303955H430.037C447.239 0.0303955 461.312 14.1043 461.312 31.3053V415.69C461.312 432.891 447.239 446.965 430.037 446.965Z" fill="black"/>
<path d="M449.546 34.2658V409.74C449.546 422.479 439.198 432.898 426.558 432.898H258.643C246.002 432.898 235.658 422.479 235.658 409.74V34.2658C235.658 21.5277 246.002 11.1085 258.643 11.1085H426.558C439.198 11.1085 449.546 21.5277 449.546 34.2658Z" fill="#F2F2F2"/>
<path d="M426.556 11.1085L260.719 432.898H258.641C246.001 432.898 235.657 422.479 235.657 409.74V34.2658C235.657 21.5277 246.001 11.1085 258.641 11.1085H426.556Z" fill="white"/>
<path d="M377.692 25.0714H307.513C301.797 25.0714 297.119 20.3942 297.119 14.6774V13.0434C297.119 7.327 301.797 2.64978 307.513 2.64978H377.692C383.409 2.64978 388.086 7.327 388.086 13.0434V14.6774C388.086 20.3942 383.409 25.0714 377.692 25.0714Z" fill="black"/>
</g>
</svg>
