<svg width="37" height="36" viewBox="0 0 37 36" fill="none" xmlns="http://www.w3.org/2000/svg">
<path d="M11.6528 10.5H25.9028V7.5C25.9028 4.5 24.7778 3 21.4028 3H16.1528C12.7778 3 11.6528 4.5 11.6528 7.5V10.5Z" stroke="white" stroke-width="1.2" stroke-miterlimit="10" stroke-linecap="round" stroke-linejoin="round"/>
<path d="M24.7778 22.5V28.5C24.7778 31.5 23.2778 33 20.2778 33H17.2778C14.2778 33 12.7778 31.5 12.7778 28.5V22.5H24.7778Z" stroke="white" stroke-width="1.5" stroke-miterlimit="10" stroke-linecap="round" stroke-linejoin="round"/>
<path d="M32.2778 15V22.5C32.2778 25.5 30.7778 27 27.7778 27H24.7778V22.5H12.7778V27H9.77777C6.77777 27 5.27777 25.5 5.27777 22.5V15C5.27777 12 6.77777 10.5 9.77777 10.5H27.7778C30.7778 10.5 32.2778 12 32.2778 15Z" stroke="white" stroke-width="1.5" stroke-miterlimit="10" stroke-linecap="round" stroke-linejoin="round"/>
<path d="M26.2778 22.5H24.4628H11.2778" stroke="white" stroke-width="1.5" stroke-miterlimit="10" stroke-linecap="round" stroke-linejoin="round"/>
<path d="M11.2778 16.5H15.7778" stroke="white" stroke-width="1.2" stroke-miterlimit="10" stroke-linecap="round" stroke-linejoin="round"/>
</svg>
