<svg width="26" height="20" viewBox="0 0 26 20" fill="none" xmlns="http://www.w3.org/2000/svg">
<path d="M15.5 0H10.5C5.78595 0 3.42893 0 1.96447 1.46447C0.91004 2.51889 0.614808 4.03603 0.532146 6.5625H25.4679C25.3852 4.03603 25.09 2.51889 24.0355 1.46447C22.5711 0 20.214 0 15.5 0Z" fill="#495057"/>
<path fill-rule="evenodd" clip-rule="evenodd" d="M15.5 20H10.5C5.78595 20 3.42893 20 1.96447 18.5355C0.5 17.0711 0.5 14.714 0.5 10C0.5 9.44759 0.5 8.92754 0.502357 8.4375H25.4976C25.5 8.92754 25.5 9.44759 25.5 10C25.5 14.714 25.5 17.0711 24.0355 18.5355C22.5711 20 20.214 20 15.5 20ZM18.0559 10.3125C18.597 10.3124 19.093 10.3124 19.4965 10.3666C19.9409 10.4264 20.4105 10.5669 20.7968 10.9532C21.1831 11.3395 21.3236 11.8091 21.3834 12.2535C21.4376 12.657 21.4376 13.153 21.4375 13.6941V13.8059C21.4376 14.347 21.4376 14.843 21.3834 15.2465C21.3236 15.6909 21.1831 16.1605 20.7968 16.5468C20.4105 16.9331 19.9409 17.0736 19.4965 17.1334C19.093 17.1876 18.597 17.1876 18.0559 17.1875L18 17.1875L17.9441 17.1875C17.403 17.1876 16.907 17.1876 16.5035 17.1334C16.0591 17.0736 15.5895 16.9331 15.2032 16.5468C14.8169 16.1605 14.6764 15.6909 14.6166 15.2465C14.5624 14.843 14.5624 14.347 14.5625 13.8059L14.5625 13.75L14.5625 13.6941C14.5624 13.153 14.5624 12.657 14.6166 12.2535C14.6764 11.8091 14.8169 11.3395 15.2032 10.9532C15.5895 10.5669 16.0591 10.4264 16.5035 10.3666C16.907 10.3124 17.403 10.3124 17.9441 10.3125H18.0559ZM4.5625 11.875C4.5625 11.3572 4.98223 10.9375 5.5 10.9375H8C8.51777 10.9375 8.9375 11.3572 8.9375 11.875C8.9375 12.3928 8.51777 12.8125 8 12.8125H5.5C4.98223 12.8125 4.5625 12.3928 4.5625 11.875ZM4.5625 15.625C4.5625 15.1072 4.98223 14.6875 5.5 14.6875H10.5C11.0178 14.6875 11.4375 15.1072 11.4375 15.625C11.4375 16.1428 11.0178 16.5625 10.5 16.5625H5.5C4.98223 16.5625 4.5625 16.1428 4.5625 15.625Z" fill="#495057"/>
<path d="M16.5291 12.279L16.5321 12.2773C16.5345 12.2761 16.5386 12.274 16.545 12.2714C16.5722 12.2602 16.6326 12.2411 16.7533 12.2249C17.0167 12.1895 17.3842 12.1875 18 12.1875C18.6158 12.1875 18.9833 12.1895 19.2467 12.2249C19.3674 12.2411 19.4278 12.2602 19.455 12.2714C19.4614 12.274 19.4655 12.2761 19.4679 12.2773L19.471 12.279L19.4727 12.2821C19.4739 12.2845 19.476 12.2887 19.4786 12.295C19.4898 12.3222 19.5089 12.3826 19.5251 12.5033C19.5605 12.7667 19.5625 13.1342 19.5625 13.75C19.5625 14.3658 19.5605 14.7333 19.5251 14.9967C19.5089 15.1174 19.4898 15.1778 19.4786 15.205C19.476 15.2114 19.4739 15.2155 19.4727 15.2179L19.471 15.221L19.4679 15.2227C19.4655 15.2239 19.4614 15.226 19.455 15.2286C19.4278 15.2398 19.3674 15.2589 19.2467 15.2751C18.9833 15.3105 18.6158 15.3125 18 15.3125C17.3842 15.3125 17.0167 15.3105 16.7533 15.2751C16.6326 15.2589 16.5722 15.2398 16.545 15.2286C16.5386 15.226 16.5345 15.2239 16.5321 15.2227L16.529 15.221L16.5273 15.2179C16.5261 15.2155 16.524 15.2114 16.5214 15.205C16.5102 15.1778 16.4911 15.1174 16.4749 14.9967C16.4395 14.7333 16.4375 14.3658 16.4375 13.75C16.4375 13.1342 16.4395 12.7667 16.4749 12.5033C16.4911 12.3826 16.5102 12.3222 16.5214 12.295C16.524 12.2887 16.5261 12.2845 16.5273 12.2821L16.5291 12.279Z" fill="#495057"/>
</svg>
