<svg width="76" height="77" viewBox="0 0 111 178" fill="none" xmlns="http://www.w3.org/2000/svg">
<path fill-rule="evenodd" clip-rule="evenodd" d="M5.89844 99.5616L54.3235 104.586L105.059 99.5616V41.8251L56.2036 32.6865L5.89844 41.8251L5.89844 99.5616Z" fill="#ED1C24"/>
<path fill-rule="evenodd" clip-rule="evenodd" d="M5.1582 99.562C2.39275 99.562 0.133301 101.821 0.133301 104.587V108.473C0.133301 109.099 0.645807 109.612 1.27235 109.612H109.686C110.312 109.612 110.819 109.099 110.819 108.473V104.587C110.819 101.821 108.559 99.562 105.8 99.562H5.1582Z" fill="#E8E8E8"/>
<path fill-rule="evenodd" clip-rule="evenodd" d="M95.2886 0.208008H15.6698C15.0749 0.208008 14.8282 0.745878 14.5876 1.29025L10.1196 11.2516L58.8617 17.0296L100.839 11.2516L96.3706 1.29025C96.1302 0.745879 95.8833 0.208008 95.2886 0.208008Z" fill="#1FB978"/>
<path fill-rule="evenodd" clip-rule="evenodd" d="M96.3705 1.29025C96.13 0.745879 95.8831 0.208008 95.2882 0.208008H84.707C85.3019 0.208008 85.5486 0.745879 85.7956 1.29025L90.2572 11.2516H98.2375H100.838L96.3705 1.29025Z" fill="#12A567"/>
<path fill-rule="evenodd" clip-rule="evenodd" d="M110.957 13.3394V39.7358C110.933 40.8883 109.977 41.824 108.818 41.824H2.13956C0.962575 41.824 0 40.8636 0 39.6866V13.3905C0 12.2135 0.962574 11.251 2.13956 11.251H108.818C109.977 11.251 110.933 12.1869 110.957 13.3394Z" fill="#E8E8E8"/>
<path fill-rule="evenodd" clip-rule="evenodd" d="M108.819 11.2515H100.839H98.2378C99.4022 11.2515 100.352 12.188 100.377 13.3399C100.472 22.1051 100.377 30.9209 100.377 39.686C100.364 40.8695 99.4276 41.8251 98.2378 41.8251H105.06H108.819C109.977 41.8251 110.933 40.8886 110.958 39.7367C111.053 30.9715 110.958 22.1557 110.958 13.3906C110.945 12.2071 110.009 11.2515 108.819 11.2515Z" fill="#DDDAEC"/>
<path d="M43.4202 34.3687C42.7433 34.3687 42.1062 33.9555 41.8529 33.2847L41.1223 31.3494H35.9977L35.2582 33.2897C34.9289 34.1543 33.9605 34.5883 33.0965 34.2583C32.232 33.929 31.7984 32.961 32.1279 32.0967L36.7541 19.9583C36.7582 19.9474 36.7624 19.9362 36.7669 19.9255C37.0676 19.1834 37.7787 18.7041 38.5787 18.7041C39.3784 18.7041 40.0895 19.1834 40.3902 19.9255C40.3954 19.9379 40.4002 19.9507 40.4049 19.9633L44.9869 32.1017C45.3136 32.9671 44.8768 33.9336 44.0113 34.2603C43.8167 34.3338 43.6166 34.3687 43.4202 34.3687ZM37.2744 27.9992H39.8575L38.5722 24.5938L37.2744 27.9992Z" fill="#365E7D"/>
<path d="M83.6755 34.3873C82.7502 34.3873 82.0005 33.6374 82.0005 32.7124V20.3841C82.0005 19.6511 82.4772 19.0031 83.1773 18.785C83.878 18.5669 84.6378 18.8296 85.0543 19.4325L90.6121 27.4848L90.5442 20.381C90.5355 19.456 91.2781 18.6989 92.2033 18.69C93.1271 18.6816 93.8853 19.4239 93.8944 20.3492L94.0082 32.2849C94.0082 33.1848 93.5041 33.9178 92.7239 34.1682C91.9577 34.4138 91.1426 34.1254 90.6478 33.4337C90.6424 33.4261 90.6372 33.4185 90.6318 33.4107L85.3508 25.7595V32.7119C85.3504 33.6374 84.6005 34.3873 83.6755 34.3873Z" fill="#365E7D"/>
<path d="M53.1886 34.3742C51.7998 34.3742 51.7122 34.3577 51.58 34.3323C50.79 34.1819 50.2183 33.4912 50.2183 32.6868V20.3776C50.2183 19.4523 50.9682 18.7026 51.8932 18.7026C52.8183 18.7026 53.5682 19.4525 53.5682 20.3776V31.0225C54.3393 31.0212 55.2919 31.0173 56.1927 31.0119H56.2031C57.1234 31.0119 57.8723 31.7553 57.8779 32.6767C57.8836 33.6019 57.1382 34.3562 56.2131 34.362C54.8111 34.3705 53.8513 34.3742 53.1886 34.3742Z" fill="#365E7D"/>
<path d="M22.9163 34.3684C20.7691 34.3684 18.7529 33.5039 17.3852 31.996C16.7636 31.311 16.815 30.2517 17.5003 29.6302C18.1849 29.0088 19.2446 29.06 19.8662 29.7453C20.5894 30.5424 21.7298 31.0183 22.9161 31.0183C24.0363 31.0183 24.8224 30.3636 24.9351 29.7303C25.084 28.8954 23.803 28.3545 23.4069 28.2086C21.4889 27.5004 19.7905 26.7418 19.7192 26.7099C19.6403 26.6746 19.564 26.6332 19.4914 26.5859C18.1468 25.7124 17.4528 24.178 17.6802 22.5817C17.9226 20.8827 19.1616 19.4988 20.9137 18.9703C24.35 17.9364 27.174 20.2689 27.2928 20.3688C28.0004 20.965 28.0906 22.0217 27.4948 22.7291C26.9019 23.433 25.8519 23.5265 25.1441 22.9392C25.0992 22.9032 23.545 21.6779 21.8807 22.178C21.1652 22.3937 21.0243 22.8629 20.997 23.0545C20.9786 23.1846 20.9693 23.4931 21.2379 23.7181C21.6845 23.9141 23.0733 24.5142 24.5663 25.0653C27.7513 26.2382 28.5493 28.5479 28.2339 30.3183C27.8152 32.6651 25.579 34.3684 22.9163 34.3684Z" fill="#365E7D"/>
<path d="M69.316 34.3678C64.997 34.3678 61.4834 30.854 61.4834 26.535C61.4834 22.216 64.997 18.7021 69.316 18.7021C73.635 18.7021 77.1489 22.216 77.1489 26.535C77.1489 30.854 73.635 34.3678 69.316 34.3678ZM69.316 22.0525C66.8446 22.0525 64.8336 24.0635 64.8336 26.5352C64.8336 29.0069 66.8446 31.0179 69.316 31.0179C71.7877 31.0179 73.7987 29.0069 73.7987 26.5352C73.7987 24.0635 71.7879 22.0525 69.316 22.0525Z" fill="#365E7D"/>
<path d="M110.958 24.8599V28.21H105.977C105.053 28.21 104.302 27.4618 104.302 26.535C104.302 25.6104 105.053 24.8601 105.977 24.8601L110.958 24.8599Z" fill="#365E7D"/>
<path d="M110.958 17.2217V20.5718H105.977C105.053 20.5718 104.302 19.8215 104.302 18.8969C104.302 17.9722 105.053 17.2219 105.977 17.2219L110.958 17.2217Z" fill="#365E7D"/>
<path d="M110.958 32.5044V35.8545H105.977C105.053 35.8545 104.302 35.1064 104.302 34.1796C104.302 33.2549 105.053 32.5046 105.977 32.5046L110.958 32.5044Z" fill="#365E7D"/>
<path fill-rule="evenodd" clip-rule="evenodd" d="M61.9309 57.0332C61.1905 57.0332 60.5894 57.4952 60.5894 58.0521V81.8479C60.5894 82.4111 61.1905 82.8668 61.9309 82.8668H105.06V57.0332H61.9309Z" fill="#9DC6FB"/>
<path fill-rule="evenodd" clip-rule="evenodd" d="M97.0479 57.0332H105.06V82.8668H97.0479V57.0332Z" fill="#80B4FB"/>
<path fill-rule="evenodd" clip-rule="evenodd" d="M98.2375 41.8252H5.89844V49.7233H97.0477V57.033H101.111H105.059V53.9129V41.8252H98.2375Z" fill="#ED1C24"/>
<path d="M6.64892 26.5346C6.64892 27.4614 5.89837 28.2095 4.97395 28.2095H0V24.8594H4.97373C5.89837 24.8596 6.64892 25.6101 6.64892 26.5346Z" fill="#365E7D"/>
<path d="M6.64892 18.8966C6.64892 19.8213 5.89837 20.5716 4.97395 20.5716H0V17.2217H4.97373C5.89837 17.2217 6.64892 17.972 6.64892 18.8966Z" fill="#365E7D"/>
<path d="M6.64892 34.1796C6.64892 35.1064 5.89837 35.8545 4.97395 35.8545H0V32.5044H4.97373C5.89837 32.5044 6.64892 33.2549 6.64892 34.1796Z" fill="#365E7D"/>
<path fill-rule="evenodd" clip-rule="evenodd" d="M16.2898 99.5619H46.6792V59.3811C46.6792 58.0901 45.6223 57.0332 44.3312 57.0332H18.6312C17.3464 57.0332 16.2896 58.0901 16.2896 59.3811L16.2898 99.5619Z" fill="#1FB978"/>
<path fill-rule="evenodd" clip-rule="evenodd" d="M44.3312 57.0332H18.6312C17.3464 57.0332 16.2896 58.0901 16.2896 59.3811V62.096H39.8251C41.1162 62.096 42.173 63.1466 42.173 64.4377V99.5616H46.6789V59.3811C46.6792 58.0901 45.6223 57.0332 44.3312 57.0332Z" fill="#12A567"/>
<path d="M24.0739 84.5414C23.1486 84.5414 22.3989 83.7915 22.3989 82.8664V79.3478C22.3989 78.4225 23.1488 77.6729 24.0739 77.6729C24.9992 77.6729 25.7489 78.4227 25.7489 79.3478V82.8664C25.7491 83.7915 24.9992 84.5414 24.0739 84.5414Z" fill="#365E7D"/>
<path fill-rule="evenodd" clip-rule="evenodd" d="M97.0479 82.8667H105.06V99.5617H97.0479V82.8667Z" fill="#FE4EB7"/>
<path fill-rule="evenodd" clip-rule="evenodd" d="M105.8 99.562H105.06H97.0479C99.8133 99.562 102.073 101.821 102.073 104.587V108.473C102.073 109.099 101.56 109.612 100.94 109.612H109.686C110.313 109.612 110.819 109.099 110.819 108.473V104.587C110.819 101.821 108.559 99.562 105.8 99.562Z" fill="#365E7D"/>
<path d="M9.37305 171.208V150.202H16.6533C18.2939 150.202 19.6953 150.72 20.8574 151.755C22.0195 152.78 22.6006 154.016 22.6006 155.461C22.6006 156.584 22.2588 157.59 21.5752 158.479C20.8916 159.367 20.042 159.909 19.0264 160.104C20.3447 160.241 21.4531 160.817 22.3516 161.833C23.2598 162.849 23.7139 164.045 23.7139 165.422C23.7139 167.033 23.1133 168.4 21.9121 169.523C20.7207 170.646 19.2705 171.208 17.5615 171.208H9.37305ZM11.6143 159.357H16.5947C17.6299 159.357 18.5088 159.011 19.2314 158.317C19.9541 157.614 20.3154 156.76 20.3154 155.754C20.3154 154.816 19.9492 154.021 19.2168 153.366C18.4941 152.702 17.6201 152.37 16.5947 152.37H11.6143V159.357ZM11.6143 169.055H17.4443C18.5771 169.055 19.5195 168.679 20.2715 167.927C21.0234 167.175 21.3994 166.247 21.3994 165.144C21.3994 164.05 21.0186 163.127 20.2568 162.375C19.5049 161.623 18.5771 161.247 17.4736 161.247H11.6143V169.055ZM40.3545 163.474C40.3545 163.913 40.3447 164.191 40.3252 164.309H28.1084C28.2158 165.871 28.7529 167.131 29.7197 168.088C30.6865 169.045 31.9316 169.523 33.4551 169.523C34.627 169.523 35.6328 169.26 36.4727 168.732C37.3223 168.195 37.8447 167.482 38.04 166.594H40.2373C39.9541 168.068 39.1826 169.255 37.9229 170.153C36.6631 171.052 35.1543 171.501 33.3965 171.501C31.2773 171.501 29.5049 170.769 28.0791 169.304C26.6631 167.839 25.9551 166.013 25.9551 163.825C25.9551 161.726 26.6729 159.953 28.1084 158.508C29.5439 157.053 31.2969 156.325 33.3672 156.325C34.666 156.325 35.8477 156.633 36.9121 157.248C37.9766 157.854 38.8164 158.703 39.4316 159.797C40.0469 160.891 40.3545 162.116 40.3545 163.474ZM28.2109 162.448H38.0107C37.9033 161.237 37.4102 160.246 36.5312 159.475C35.6621 158.693 34.5781 158.303 33.2793 158.303C31.9902 158.303 30.8867 158.679 29.9688 159.431C29.0508 160.183 28.4648 161.188 28.2109 162.448ZM55.5596 156.633H57.7568V171.208H55.5596V167.824C55.0225 168.996 54.2412 169.904 53.2158 170.549C52.2002 171.184 51.0039 171.501 49.627 171.501C48.3086 171.501 47.0928 171.164 45.9795 170.49C44.876 169.816 44.002 168.894 43.3574 167.722C42.7129 166.55 42.3906 165.271 42.3906 163.884C42.3906 162.497 42.7129 161.223 43.3574 160.061C44.002 158.898 44.876 157.985 45.9795 157.321C47.0928 156.657 48.3086 156.325 49.627 156.325C51.0039 156.325 52.2051 156.647 53.2305 157.292C54.2559 157.927 55.0322 158.825 55.5596 159.987V156.633ZM50.0371 169.436C51.6289 169.436 52.9473 168.913 53.9922 167.868C55.0371 166.813 55.5596 165.485 55.5596 163.884C55.5596 162.292 55.0371 160.974 53.9922 159.929C52.9473 158.884 51.6289 158.361 50.0371 158.361C48.4941 158.361 47.1904 158.898 46.126 159.973C45.0713 161.047 44.5439 162.351 44.5439 163.884C44.5439 165.446 45.0713 166.765 46.126 167.839C47.1904 168.903 48.4941 169.436 50.0371 169.436ZM73.0791 156.633H75.2764V171.208H73.0791V168.381C72.6104 169.367 71.9463 170.134 71.0869 170.681C70.2373 171.228 69.2412 171.501 68.0986 171.501C66.2236 171.501 64.7295 170.915 63.6162 169.743C62.5029 168.571 61.9463 166.999 61.9463 165.026V156.633H64.1436V164.792C64.1436 166.208 64.5439 167.336 65.3447 168.176C66.1455 169.016 67.2148 169.436 68.5527 169.436C69.9297 169.436 71.0283 169.016 71.8486 168.176C72.6689 167.336 73.0791 166.208 73.0791 164.792V156.633ZM86.9658 158.669H82.8936V166.286C82.8936 168.308 83.9141 169.318 85.9551 169.318C86.3652 169.318 86.7021 169.279 86.9658 169.201V171.208C86.5264 171.306 86.0576 171.354 85.5596 171.354C84.0361 171.354 82.8447 170.935 81.9854 170.095C81.126 169.245 80.6963 167.985 80.6963 166.315V158.669H77.8252V156.633H80.6963V152.604H82.8936V156.633H86.9658V158.669ZM100.369 156.633H102.713L94.2754 176.73H91.9316L94.4512 170.944L88.4307 156.633H90.8037L95.5645 168.381L100.369 156.633Z" fill="black"/>
</svg>
