<svg width="30" height="30" viewBox="0 0 30 30" fill="none" xmlns="http://www.w3.org/2000/svg">
<path fill-rule="evenodd" clip-rule="evenodd" d="M15.0645 2.5H14.9355C12.8352 2.49998 11.1716 2.49997 9.86969 2.67806C8.52978 2.86135 7.44527 3.24754 6.58999 4.11773C5.73472 4.98792 5.35516 6.09134 5.17501 7.45463C4.99997 8.77929 4.99998 10.4719 5 12.6088V17.3912C4.99998 19.5281 4.99997 21.2207 5.17501 22.5454C5.35516 23.9087 5.73472 25.0121 6.58999 25.8823C7.44527 26.7525 8.52978 27.1386 9.86969 27.3219C11.1716 27.5 12.8352 27.5 14.9355 27.5H15.0645C17.1647 27.5 18.8284 27.5 20.1303 27.3219C21.4702 27.1386 22.5547 26.7525 23.41 25.8823C24.2653 25.0121 24.6448 23.9087 24.825 22.5454C25 21.2207 25 19.5281 25 17.3912V12.6088C25 10.4719 25 8.77928 24.825 7.45463C24.6448 6.09134 24.2653 4.98792 23.41 4.11773C22.5547 3.24754 21.4702 2.86135 20.1303 2.67806C18.8284 2.49997 17.1648 2.49998 15.0645 2.5ZM10.7143 23.1395C10.7143 22.6579 11.098 22.2674 11.5714 22.2674H18.4286C18.902 22.2674 19.2857 22.6579 19.2857 23.1395C19.2857 23.6212 18.902 24.0116 18.4286 24.0116H11.5714C11.098 24.0116 10.7143 23.6212 10.7143 23.1395Z" fill="#09C27E"/>
</svg>
