<svg width="77" height="97" viewBox="0 0 77 97" fill="none" xmlns="http://www.w3.org/2000/svg">
<path d="M48.0226 7.66526V10.5397L46.1063 9.58154L44.19 10.5397L42.2737 9.58154L40.3574 10.5397V7.66526V0.00012207H48.0226V7.66526Z" fill="#E2DEDE"/>
<path d="M46.1063 0.00012207V7.13828C46.1063 7.46117 45.9242 7.75628 45.6349 7.90096L44.6183 8.40878C44.3481 8.54387 44.0309 8.54387 43.7617 8.40878L42.702 7.87892C42.4318 7.74383 42.1147 7.74383 41.8454 7.87892L40.3574 8.6234V10.5397L42.2737 9.58154L44.19 10.5397L46.1063 9.58154L48.0226 10.5397V8.6234V0.00012207H46.1063Z" fill="#D3BEBE"/>
<path d="M44.1903 47.9076V52.6983C44.1903 53.2253 43.7592 53.6564 43.2322 53.6564H33.6508C33.1238 53.6564 32.6926 53.2253 32.6926 52.6983V47.9076H35.5671H35.6533H44.1903Z" fill="#FFCA3A"/>
<path d="M44.1903 47.9076V52.6983C44.1903 53.2253 43.7592 53.6564 43.2322 53.6564H33.6508C33.1238 53.6564 32.6926 53.2253 32.6926 52.6983V51.7402H41.3159C41.8429 51.7402 42.274 51.309 42.274 50.782V47.9076H44.1903Z" fill="#FF9700"/>
<path d="M68.1435 48.8654V58.4468C68.1435 58.9738 67.7123 59.4049 67.1853 59.4049H9.69679C9.16981 59.4049 8.73865 58.9738 8.73865 58.4468V48.8654C8.73865 48.3384 9.16981 47.9072 9.69679 47.9072H12.485H32.6922V52.6979C32.6922 53.2249 33.1234 53.6561 33.6503 53.6561H43.2318C43.7587 53.6561 44.1899 53.2249 44.1899 52.6979V47.9072H59.5202H67.1853C67.7123 47.9072 68.1435 48.3384 68.1435 48.8654Z" fill="#E89A10"/>
<path d="M32.6922 47.9072V50.7817H9.69679C9.16981 50.7817 8.73865 51.2128 8.73865 51.7398V48.8654C8.73865 48.3384 9.16981 47.9072 9.69679 47.9072H32.6922Z" fill="#EFAB48"/>
<path d="M59.6167 50.7814H44.1906V47.907H61.6671C62.0676 47.907 62.3953 48.3382 62.3953 48.8651C61.9565 50.0187 60.8508 50.7814 59.6167 50.7814Z" fill="#EFAB48"/>
<path d="M68.1435 48.8654V58.4468C68.1435 58.9738 67.7123 59.4049 67.1853 59.4049H9.69679C9.16981 59.4049 8.73865 58.9738 8.73865 58.4468V56.5305H56.6457C61.3885 56.5305 65.269 52.65 65.269 47.9072H67.1853C67.7123 47.9072 68.1435 48.3384 68.1435 48.8654Z" fill="#C97700"/>
<path d="M37.4825 37.3679L36.601 47.0356C36.5627 47.5338 36.1411 47.9075 35.6525 47.9075H35.5662H32.6918H12.4846C11.9959 47.9075 11.5744 47.5338 11.536 47.0356L10.6545 37.3679H20.236V40.2423C20.236 40.7693 20.6671 41.2005 21.1941 41.2005H26.943C27.4699 41.2005 27.9011 40.7693 27.9011 40.2423V37.3679H37.4825Z" fill="#E89A10"/>
<path d="M27.9009 37.3679V40.2423C27.9009 40.7693 27.4697 41.2005 26.9427 41.2005H21.1939C20.6669 41.2005 20.2357 40.7693 20.2357 40.2423V37.3679H27.9009Z" fill="#FFCA3A"/>
<path d="M27.9009 37.3679V40.2423C27.9009 40.7693 27.4697 41.2005 26.9427 41.2005H21.1939C20.6669 41.2005 20.2357 40.7693 20.2357 40.2423V39.2842H25.0264C25.5534 39.2842 25.9846 38.853 25.9846 38.3261V37.3679H27.9009Z" fill="#FF9700"/>
<path d="M37.483 37.3677H35.3942H29.8178H27.9016V39.284V40.2421C27.9016 40.7691 27.4704 41.2002 26.9434 41.2002H22.1527C22.1527 41.7272 22.5839 42.1584 23.1108 42.1584H28.8597C29.3867 42.1584 29.8178 41.7272 29.8178 41.2002V39.284H34.1688C34.7321 39.284 35.1738 39.7678 35.1231 40.3293L34.6852 45.119C34.6469 45.6173 34.2253 45.991 33.7366 45.991H11.4407L11.5365 47.0353C11.5748 47.5336 11.9964 47.9072 12.485 47.9072H35.6529C36.1416 47.9072 36.5632 47.5336 36.6015 47.0353L37.3086 39.284H37.3105L37.483 37.3677Z" fill="#C97700"/>
<path d="M20.236 37.3679H10.6545L10.827 39.2842H20.236V37.3679Z" fill="#C97700"/>
<path d="M39.3612 36.1604C39.5337 36.7641 39.0642 37.3677 38.4222 37.3677H37.4832H27.9018H20.2367H10.6553H9.71629C9.07434 37.3677 8.60485 36.7641 8.77731 36.1604L11.1727 27.5371C11.2876 27.1156 11.6709 26.8281 12.1116 26.8281H24.625H36.0269C36.4676 26.8281 36.8509 27.1156 36.9659 27.5371L39.3612 36.1604Z" fill="#EFAB48"/>
<path d="M28.3899 28.7445H10.8376L11.1711 27.543C11.2889 27.1205 11.6731 26.8282 12.112 26.8282H28.3621C28.8009 26.8282 29.1851 27.1205 29.303 27.543C29.4706 28.1466 29.0165 28.7445 28.3899 28.7445Z" fill="#EFBD7B"/>
<path d="M38.4222 37.3677H9.71629C9.07434 37.3677 8.60485 36.7641 8.77731 36.1604L8.97852 35.4514H35.5478C36.1898 35.4514 36.6592 34.8478 36.4868 34.2441L34.4268 26.8281H36.0269C36.4676 26.8281 36.8509 27.1156 36.9659 27.5371L39.3612 36.1604C39.5337 36.7641 39.0642 37.3677 38.4222 37.3677Z" fill="#E89A10"/>
<path d="M66.2269 40.242L67.185 47.9071H59.5199L60.478 40.242L62.3943 7.66514H63.3525L65.2687 0L66.2269 40.242Z" fill="#D1800B"/>
<path d="M66.2269 40.242L67.185 47.9071H59.5199L60.478 40.242L62.3943 7.66514H63.3525L65.2687 0L66.2269 40.242Z" fill="#D1800B"/>
<path d="M66.2269 40.242L65.7449 20.0118C63.6821 27.9442 66.5469 37.3982 62.2152 43.5859L62.3943 42.1582L64.3106 9.58142H65.2687L65.4795 8.74784L65.2687 0L63.3525 7.66514H62.3943L60.478 40.242L59.5199 47.9071H61.6757H67.185L66.2269 40.242Z" fill="#AD6207"/>
<path d="M40.3573 0V7.66514H25.9851H25.027L26.9433 0H40.3573Z" fill="#EFAB48"/>
<path d="M40.3572 0.00012207V1.91641H26.4641L26.9432 0.00012207H40.3572Z" fill="#EFBD7B"/>
<path d="M65.2693 0.00012207L63.353 7.66526H62.3949H48.0228V0.00012207H65.2693Z" fill="#EFAB48"/>
<path d="M61.1388 1.19109C61.0324 1.61747 60.6492 1.91641 60.2094 1.91641H48.0228V0.00012207H60.2094C60.8331 0.00012207 61.2902 0.585547 61.1388 1.19109Z" fill="#EFBD7B"/>
<path d="M62.395 7.66516L60.4787 40.242L59.5205 47.9071H44.1903H35.6532C36.1419 47.9071 36.5634 47.5335 36.6018 47.0352L37.4833 37.3676H38.4222C39.0642 37.3676 39.5337 36.7639 39.3612 36.1603L36.9659 27.537C36.8509 27.1154 36.4676 26.828 36.0269 26.828H24.625L25.9856 7.66516H40.3577V10.5396L42.274 9.58145L44.1903 10.5396L46.1065 9.58145L48.0228 10.5396V7.66516L62.395 7.66516Z" fill="#E89A10"/>
<path d="M62.395 7.66516L60.4787 40.242L59.5205 47.9071H37.5695C38.0581 47.9071 38.4797 47.5335 38.5181 47.0352L39.3995 37.3676H40.3385C40.9805 37.3676 41.45 36.7639 41.2775 36.1603L38.8821 27.537C38.7672 27.1154 38.3839 26.828 37.9432 26.828H24.625L25.9856 7.66516H40.3577V10.5396L42.274 9.58145L44.1903 10.5396L46.1065 9.58145L48.0228 10.5396V7.66516L62.395 7.66516Z" fill="#DB8C0E"/>
<path d="M60.1802 13.3538L58.5619 37.3677C58.0148 41.7464 54.2924 45.0328 49.8792 45.0328H41.1793C39.8484 45.0328 38.805 43.8898 38.9257 42.5637L39.399 37.3677H40.338C40.98 37.3677 41.4495 36.7641 41.277 36.1604L38.8816 27.5372C38.7667 27.1156 38.3834 26.8281 37.9427 26.8281H36.0264C36.4671 26.8281 36.8504 27.1156 36.9654 27.5372L39.3607 36.1604C39.5332 36.7641 39.0637 37.3677 38.4217 37.3677H37.4828L36.7843 45.0328H36.7833L36.6013 47.0354C36.5629 47.5336 36.1414 47.9073 35.6527 47.9073H37.569H59.52L60.4782 40.2421L62.1635 11.5899C61.1326 11.5391 60.2501 12.3238 60.1802 13.3538Z" fill="#BC6D04"/>
<path d="M44.19 10.5397L42.2737 9.58154L40.3574 10.5397V10.9057C40.3574 11.6176 41.1067 12.0813 41.7439 11.7623L42.2737 11.4978L43.7617 12.2413C44.0309 12.3764 44.349 12.3764 44.6183 12.2413L46.1063 11.4978L46.6361 11.7623C47.2733 12.0813 48.0226 11.6176 48.0226 10.9057V10.5397L46.1063 9.58154L44.19 10.5397Z" fill="#C97700"/>
<path d="M62.3949 7.66528H49.9391H48.0228V9.58157V10.5397L48.705 10.8808C49.2722 11.1644 49.9391 10.7524 49.9391 10.1181V9.58157H62.2799L62.3949 7.66528Z" fill="#C97700"/>
<path d="M40.3571 7.66516H25.985L25.8508 9.58144H40.3571V7.66516Z" fill="#C97700"/>
<path d="M41.9413 3.18423V4.94051C41.9413 6.17363 43.8576 6.17555 43.8576 4.94051V3.18423C43.8576 1.9511 41.9413 1.94919 41.9413 3.18423Z" fill="#F9F4F4"/>
<path d="M8.45947 80.9589V82.0428H5.00977V91.4618H3.88184V82.0428H0.432129V80.9589H8.45947ZM14.4214 84.1742H15.52V91.4618H14.4214V89.7699C14.1528 90.3558 13.7622 90.8099 13.2495 91.1322C12.7417 91.4496 12.1436 91.6083 11.4551 91.6083C10.7959 91.6083 10.188 91.4398 9.63135 91.1029C9.07959 90.766 8.64258 90.3046 8.32031 89.7186C7.99805 89.1327 7.83691 88.493 7.83691 87.7997C7.83691 87.1063 7.99805 86.4691 8.32031 85.8881C8.64258 85.307 9.07959 84.8505 9.63135 84.5184C10.188 84.1864 10.7959 84.0204 11.4551 84.0204C12.1436 84.0204 12.7441 84.1815 13.2568 84.5038C13.7695 84.8212 14.1577 85.2704 14.4214 85.8514V84.1742ZM11.6602 90.5756C12.4561 90.5756 13.1152 90.3143 13.6377 89.7919C14.1602 89.2645 14.4214 88.6005 14.4214 87.7997C14.4214 87.0038 14.1602 86.3446 13.6377 85.8221C13.1152 85.2997 12.4561 85.0385 11.6602 85.0385C10.8887 85.0385 10.2368 85.307 9.70459 85.8441C9.17725 86.3812 8.91357 87.0331 8.91357 87.7997C8.91357 88.5809 9.17725 89.2401 9.70459 89.7772C10.2368 90.3094 10.8887 90.5756 11.6602 90.5756ZM23.855 91.4618H22.4048L18.7134 87.8949V91.4618H17.6147V80.9589H18.7134V87.4261L22.2363 84.1742H23.6206L19.8193 87.6532L23.855 91.4618ZM31.311 87.5946C31.311 87.8143 31.3062 87.9535 31.2964 88.0121H25.188C25.2417 88.7933 25.5103 89.4232 25.9937 89.9017C26.4771 90.3802 27.0996 90.6195 27.8613 90.6195C28.4473 90.6195 28.9502 90.4877 29.3701 90.224C29.7949 89.9554 30.0562 89.599 30.1538 89.1547H31.2524C31.1108 89.892 30.7251 90.4852 30.0952 90.9344C29.4653 91.3837 28.7109 91.6083 27.832 91.6083C26.7725 91.6083 25.8862 91.2421 25.1733 90.5096C24.4653 89.7772 24.1113 88.8641 24.1113 87.7704C24.1113 86.7206 24.4702 85.8344 25.188 85.1117C25.9058 84.3842 26.7822 84.0204 27.8174 84.0204C28.4668 84.0204 29.0576 84.1742 29.5898 84.4818C30.1221 84.7845 30.542 85.2094 30.8496 85.7562C31.1572 86.3031 31.311 86.9159 31.311 87.5946ZM25.2393 87.0819H30.1392C30.0854 86.4764 29.8389 85.9808 29.3994 85.5951C28.9648 85.2045 28.4229 85.0092 27.7734 85.0092C27.1289 85.0092 26.5771 85.1971 26.1182 85.5731C25.6592 85.9491 25.3662 86.452 25.2393 87.0819ZM38.9136 84.1742H40.0122V91.4618H38.9136V89.7699C38.645 90.3558 38.2544 90.8099 37.7417 91.1322C37.2339 91.4496 36.6357 91.6083 35.9473 91.6083C35.2881 91.6083 34.6802 91.4398 34.1235 91.1029C33.5718 90.766 33.1348 90.3046 32.8125 89.7186C32.4902 89.1327 32.3291 88.493 32.3291 87.7997C32.3291 87.1063 32.4902 86.4691 32.8125 85.8881C33.1348 85.307 33.5718 84.8505 34.1235 84.5184C34.6802 84.1864 35.2881 84.0204 35.9473 84.0204C36.6357 84.0204 37.2363 84.1815 37.749 84.5038C38.2617 84.8212 38.6499 85.2704 38.9136 85.8514V84.1742ZM36.1523 90.5756C36.9482 90.5756 37.6074 90.3143 38.1299 89.7919C38.6523 89.2645 38.9136 88.6005 38.9136 87.7997C38.9136 87.0038 38.6523 86.3446 38.1299 85.8221C37.6074 85.2997 36.9482 85.0385 36.1523 85.0385C35.3809 85.0385 34.729 85.307 34.1968 85.8441C33.6694 86.3812 33.4058 87.0331 33.4058 87.7997C33.4058 88.5809 33.6694 89.2401 34.1968 89.7772C34.729 90.3094 35.3809 90.5756 36.1523 90.5756ZM43.9819 91.4618L41.3159 84.1742H42.4878L44.436 89.9017L46.4868 84.1742H47.3877L49.4604 89.9017L51.4087 84.1742H52.5806L49.9072 91.4618H49.0063L46.9409 85.7343L44.8682 91.4618H43.9819ZM59.7876 84.1742H60.8862V91.4618H59.7876V89.7699C59.519 90.3558 59.1284 90.8099 58.6157 91.1322C58.1079 91.4496 57.5098 91.6083 56.8213 91.6083C56.1621 91.6083 55.5542 91.4398 54.9976 91.1029C54.4458 90.766 54.0088 90.3046 53.6865 89.7186C53.3643 89.1327 53.2031 88.493 53.2031 87.7997C53.2031 87.1063 53.3643 86.4691 53.6865 85.8881C54.0088 85.307 54.4458 84.8505 54.9976 84.5184C55.5542 84.1864 56.1621 84.0204 56.8213 84.0204C57.5098 84.0204 58.1104 84.1815 58.623 84.5038C59.1357 84.8212 59.5239 85.2704 59.7876 85.8514V84.1742ZM57.0264 90.5756C57.8223 90.5756 58.4814 90.3143 59.0039 89.7919C59.5264 89.2645 59.7876 88.6005 59.7876 87.7997C59.7876 87.0038 59.5264 86.3446 59.0039 85.8221C58.4814 85.2997 57.8223 85.0385 57.0264 85.0385C56.2549 85.0385 55.603 85.307 55.0708 85.8441C54.5435 86.3812 54.2798 87.0331 54.2798 87.7997C54.2798 88.5809 54.5435 89.2401 55.0708 89.7772C55.603 90.3094 56.2549 90.5756 57.0264 90.5756ZM68.1592 84.1742H69.3311L65.1123 94.223H63.9404L65.2002 91.33L62.1899 84.1742H63.3765L65.7568 90.0482L68.1592 84.1742Z" fill="black"/>
</svg>
