<svg width="96" height="97" viewBox="0 0 141 178" fill="none" xmlns="http://www.w3.org/2000/svg">
<path d="M65.0267 38.3373C64.4936 38.3373 63.9604 38.1339 63.5537 37.7272L53.8549 28.0284C53.0412 27.2147 53.0412 25.8957 53.8549 25.082C54.6683 24.2686 55.9876 24.2692 56.801 25.082L66.4998 34.7808C67.3135 35.5945 67.3135 36.9135 66.4998 37.7272C66.0931 38.1339 65.5596 38.3373 65.0267 38.3373Z" fill="#7B6C79"/>
<path d="M108.966 35.8594L114.23 41.1239L104.329 51.0251L99.0646 45.7606L108.966 35.8594Z" fill="#FFE559"/>
<path d="M104.329 31.2227L109.513 36.4069L99.6116 46.3081L94.4274 41.1239L104.329 31.2227Z" fill="#FFD500"/>
<path d="M126.417 53.0298L132.161 58.7734L122.26 68.6746L116.516 62.931L126.417 53.0298Z" fill="#FF7F87"/>
<path d="M122.259 48.8726L127.467 54.08L117.565 63.9812L112.358 58.7738L122.259 48.8726Z" fill="#FF636E"/>
<path d="M98.678 84.4651C98.1449 84.4651 97.6117 84.2617 97.205 83.855C96.3913 83.0413 96.3913 81.7223 97.205 80.9086L100.363 77.751C101.176 76.9378 102.495 76.9378 103.309 77.751C104.122 78.5647 104.122 79.8836 103.309 80.6974L100.151 83.855C99.7444 84.2614 99.2112 84.4651 98.678 84.4651Z" fill="#DBEDFF"/>
<path d="M80.8861 66.6722C80.3529 66.6722 79.8197 66.4688 79.413 66.0621C78.5993 65.2486 78.5993 63.9294 79.413 63.116L82.8485 59.6805C83.6619 58.8668 84.9811 58.8671 85.7946 59.6803C86.6083 60.4937 86.6083 61.8129 85.7946 62.6264L82.3591 66.0618C81.9524 66.4685 81.4192 66.6722 80.8861 66.6722Z" fill="#DBEDFF"/>
<path d="M133.351 49.7923C132.818 49.7923 132.284 49.589 131.878 49.182C131.064 48.3686 131.064 47.0493 131.878 46.2359L135.022 43.0914C135.836 42.2782 137.155 42.278 137.968 43.0916C138.782 43.9051 138.782 45.2243 137.968 46.0377L134.824 49.1822C134.417 49.589 133.884 49.7923 133.351 49.7923Z" fill="#DBEDFF"/>
<path d="M115.587 31.9706C115.054 31.9706 114.52 31.7673 114.114 31.3606C113.3 30.5471 113.3 29.2279 114.114 28.4145L117.229 25.2987C118.043 24.485 119.362 24.4853 120.175 25.2984C120.989 26.1119 120.989 27.4311 120.175 28.2445L117.06 31.3603C116.653 31.7673 116.12 31.9706 115.587 31.9706Z" fill="#DBEDFF"/>
<path d="M89.8931 54.9399L99.4623 45.3707L104.727 50.6352L95.1576 60.2044L89.8931 54.9399Z" fill="#FFD500"/>
<path d="M85.2573 50.3022L94.8265 40.733L100.011 45.9172L90.4415 55.4864L85.2573 50.3022Z" fill="#FBC700"/>
<path d="M107.238 72.2183L116.772 62.6837L122.516 68.4273L112.981 77.9619L107.238 72.2183Z" fill="#FF636E"/>
<path d="M103.081 68.0615L112.616 58.527L117.823 63.7344L108.288 73.2689L103.081 68.0615Z" fill="#FF4654"/>
<path d="M139.461 53.0065L104.357 17.9024L104.283 17.5061L101.795 15.0757L101.128 15.6056H100.765L95.0098 21.6264L95.0618 22.6038L132.463 60.0047C133.36 60.9018 134.815 60.9021 135.713 60.0047L139.461 56.2561C140.359 55.3589 140.359 53.9036 139.461 53.0065Z" fill="#7B6C79"/>
<path d="M136.49 56.9494L98.0254 18.4712L95.0098 21.6264L95.0618 22.6038L132.463 60.0047C133.36 60.9018 134.815 60.9021 135.713 60.0047L138.096 57.6213C137.514 57.6166 136.934 57.393 136.49 56.9494Z" fill="#665E68"/>
<path d="M114.118 78.3477L78.7993 43.0288H77.8131L71.8008 48.9514V50.0273L107.12 85.3464C108.017 86.2439 109.472 86.2439 110.37 85.3464L114.118 81.5981C115.016 80.7001 115.016 79.2451 114.118 78.3477Z" fill="#7B6C79"/>
<path d="M111.148 82.291L74.8843 45.9141L71.8008 48.9516V50.0275L107.12 85.3466C108.017 86.2441 109.472 86.2441 110.37 85.3466L112.753 82.9633C112.172 82.9583 111.591 82.735 111.148 82.291Z" fill="#665E68"/>
<path d="M2.08332 110.667C1.55016 110.667 1.017 110.463 0.610279 110.057C-0.203426 109.243 -0.203426 107.924 0.610279 107.11L13.2239 94.4966C14.0374 93.6834 15.3566 93.6834 16.17 94.4966C16.9837 95.3103 16.9837 96.6292 16.17 97.443L3.55637 110.057C3.14965 110.463 2.61649 110.667 2.08332 110.667Z" fill="#DBEDFF"/>
<path d="M75.8027 34.8574L99.0545 11.6057L102.553 15.1043L79.3013 38.356L75.8027 34.8574Z" fill="#B5DCFF"/>
<path d="M72.3032 31.3584L95.555 8.10667L99.4653 12.017L76.2136 35.2687L72.3032 31.3584Z" fill="#8BCAFF"/>
<path d="M109.824 9.37329L105.204 4.75244L104.131 4.85535L98.4717 10.5844V12.0175L104.356 17.9017L109.824 12.4332C110.67 11.5883 110.669 10.2182 109.824 9.37329Z" fill="#DBEDFF"/>
<path d="M99.3564 10.0311L103.691 5.69682C104.176 5.21156 104.819 4.98192 105.454 5.00327L101.293 0.841688C100.448 -0.00321898 99.078 -0.00321898 98.2329 0.841688L94.2943 4.78021C93.4494 5.62512 93.4494 6.99525 94.2943 7.84016L98.7274 12.2733C98.5405 11.4938 98.7482 10.639 99.3564 10.0311Z" fill="#B5DCFF"/>
<path d="M80.0699 38.1721L76.3129 34.415L74.0989 34.5664L62.3633 46.2325L61.7891 47.3207L67.4557 53.092H68.738L80.0699 41.76C81.0566 40.7731 81.0566 39.1585 80.0699 38.1721Z" fill="#DBEDFF"/>
<path d="M73.7738 35.4773C74.5253 34.7257 75.5805 34.4531 76.554 34.6559L72.495 30.5969C71.5084 29.6103 69.8938 29.6103 68.9071 30.5969L57.5752 41.9289V43.0286L61.8591 47.3916L73.7738 35.4773Z" fill="#B5DCFF"/>
<path d="M58.9064 21.0111L55.1143 17.2192C54.2289 16.3338 52.7934 16.3338 51.9079 17.2192L49.1203 20.0069L49.0303 21.7306L54.412 27.0776L56.2592 26.8646L58.9064 24.2174C59.7921 23.332 59.7918 21.8965 58.9064 21.0111Z" fill="#938493"/>
<path d="M53.8789 26.128L49.9968 22.2459C49.2698 21.5189 49.1272 20.4304 49.5663 19.5601L45.9912 23.1351C45.1058 24.0205 45.1058 25.4561 45.9912 26.3415L49.7833 30.1333C50.6687 31.0187 52.1043 31.0187 52.9897 30.1333L56.5645 26.5585C55.6938 26.9973 54.6059 26.8547 53.8789 26.128Z" fill="#7B6C79"/>
<path d="M14.0308 95.5813C14.0308 95.5813 14.0412 97.3481 14.0379 98.1637L14.1723 98.2983C15.5772 99.7032 17.8546 99.703 19.2595 98.2983L31.3742 86.1836V85.281L27.8279 81.7524L14.0308 95.5813Z" fill="#B5DCFF"/>
<path d="M15.1462 94.8793L28.076 82.0002L25.535 79.4718L24.4823 79.2925L12.3676 91.4072C10.9627 92.8121 10.9627 95.0895 12.3676 96.4944L14.1724 98.2992C14.1858 98.3126 14.2003 98.3236 14.2137 98.3367C13.9006 97.1409 14.2091 95.8162 15.1462 94.8793Z" fill="#8BCAFF"/>
<path d="M69.1321 53.4862L60.0951 44.4492H57.2234L29.5522 72.5392L41.8536 84.9569L43.1871 85.0926L69.132 59.1476C70.6891 57.5908 70.6891 55.043 69.1321 53.4862Z" fill="#7B6C79"/>
<path d="M56.5561 45.7698C57.5781 44.7475 59.0208 44.3917 60.3397 44.6936L57.1802 41.534C55.6231 39.9769 53.0755 39.9769 51.5187 41.534L25.5737 67.479V68.5226L29.6691 72.6568L56.5561 45.7698Z" fill="#665E68"/>
<path d="M25.1191 77.0405L25.3723 80.1809L33.9054 88.7138C35.4622 90.2706 38.0101 90.2708 39.5671 88.7138L43.1882 85.0927L30.0901 71.9946L25.1191 77.0405Z" fill="#938493"/>
<path d="M26.5857 75.7392L30.2095 72.1155L25.573 67.479L21.952 71.1C20.3949 72.6571 20.3949 75.2047 21.952 76.7618L26.1626 80.9723C25.0278 79.3893 25.166 77.1589 26.5857 75.7392Z" fill="#7B6C79"/>
<path d="M42.9189 150.202V152.37H36.0195V171.208H33.7637V152.37H26.8643V150.202H42.9189ZM54.8428 156.633H57.04V171.208H54.8428V167.824C54.3057 168.996 53.5244 169.904 52.499 170.549C51.4834 171.184 50.2871 171.501 48.9102 171.501C47.5918 171.501 46.376 171.164 45.2627 170.49C44.1592 169.816 43.2852 168.894 42.6406 167.722C41.9961 166.55 41.6738 165.271 41.6738 163.884C41.6738 162.497 41.9961 161.223 42.6406 160.061C43.2852 158.898 44.1592 157.985 45.2627 157.321C46.376 156.657 47.5918 156.325 48.9102 156.325C50.2871 156.325 51.4883 156.647 52.5137 157.292C53.5391 157.927 54.3154 158.825 54.8428 159.987V156.633ZM49.3203 169.436C50.9121 169.436 52.2305 168.913 53.2754 167.868C54.3203 166.813 54.8428 165.485 54.8428 163.884C54.8428 162.292 54.3203 160.974 53.2754 159.929C52.2305 158.884 50.9121 158.361 49.3203 158.361C47.7773 158.361 46.4736 158.898 45.4092 159.973C44.3545 161.047 43.8271 162.351 43.8271 163.884C43.8271 165.446 44.3545 166.765 45.4092 167.839C46.4736 168.903 47.7773 169.436 49.3203 169.436ZM68.7295 158.669H64.6572V166.286C64.6572 168.308 65.6777 169.318 67.7188 169.318C68.1289 169.318 68.4658 169.279 68.7295 169.201V171.208C68.29 171.306 67.8213 171.354 67.3232 171.354C65.7998 171.354 64.6084 170.935 63.749 170.095C62.8896 169.245 62.46 167.985 62.46 166.315V158.669H59.5889V156.633H62.46V152.604H64.6572V156.633H68.7295V158.669ZM79.2764 158.669H75.2041V166.286C75.2041 168.308 76.2246 169.318 78.2656 169.318C78.6758 169.318 79.0127 169.279 79.2764 169.201V171.208C78.8369 171.306 78.3682 171.354 77.8701 171.354C76.3467 171.354 75.1553 170.935 74.2959 170.095C73.4365 169.245 73.0068 167.985 73.0068 166.315V158.669H70.1357V156.633H73.0068V152.604H75.2041V156.633H79.2764V158.669ZM82.6602 158.522C84.1152 157.058 85.9023 156.325 88.0215 156.325C90.1406 156.325 91.9277 157.058 93.3828 158.522C94.8477 159.978 95.5801 161.774 95.5801 163.913C95.5801 166.052 94.8477 167.854 93.3828 169.318C91.9277 170.773 90.1406 171.501 88.0215 171.501C85.9023 171.501 84.1152 170.773 82.6602 169.318C81.2148 167.854 80.4922 166.052 80.4922 163.913C80.4922 161.774 81.2148 159.978 82.6602 158.522ZM88.0215 158.405C86.5078 158.405 85.2334 158.933 84.1982 159.987C83.1631 161.042 82.6455 162.351 82.6455 163.913C82.6455 165.466 83.1631 166.774 84.1982 167.839C85.2334 168.903 86.5078 169.436 88.0215 169.436C89.5352 169.436 90.8145 168.903 91.8594 167.839C92.9043 166.765 93.4268 165.456 93.4268 163.913C93.4268 162.36 92.9043 161.057 91.8594 160.002C90.8242 158.938 89.5449 158.405 88.0215 158.405ZM99.7402 158.522C101.195 157.058 102.982 156.325 105.102 156.325C107.221 156.325 109.008 157.058 110.463 158.522C111.928 159.978 112.66 161.774 112.66 163.913C112.66 166.052 111.928 167.854 110.463 169.318C109.008 170.773 107.221 171.501 105.102 171.501C102.982 171.501 101.195 170.773 99.7402 169.318C98.2949 167.854 97.5723 166.052 97.5723 163.913C97.5723 161.774 98.2949 159.978 99.7402 158.522ZM105.102 158.405C103.588 158.405 102.313 158.933 101.278 159.987C100.243 161.042 99.7256 162.351 99.7256 163.913C99.7256 165.466 100.243 166.774 101.278 167.839C102.313 168.903 103.588 169.436 105.102 169.436C106.615 169.436 107.895 168.903 108.939 167.839C109.984 166.765 110.507 165.456 110.507 163.913C110.507 162.36 109.984 161.057 108.939 160.002C107.904 158.938 106.625 158.405 105.102 158.405Z" fill="black"/>
</svg>
