<svg width="22" height="24" viewBox="0 0 22 24" fill="none" xmlns="http://www.w3.org/2000/svg">
<g clip-path="url(#clip0_342_12430)">
<path d="M6.01118 20.6C7.51118 21.5 9.31118 22 11.1112 22C16.6112 22 21.1112 17.5 21.1112 12C21.1112 6.5 16.6112 2 11.1112 2C5.61118 2 1.11118 6.5 1.11118 12C1.11118 13.8 1.61118 15.5 2.41118 17L1.55162 20.306C1.3569 21.0549 2.0501 21.7317 2.79416 21.5191L6.01118 20.6Z" stroke="white" stroke-miterlimit="10" stroke-linecap="round" stroke-linejoin="round"/>
<path d="M15.6112 14.8485C15.6112 15.0105 15.5751 15.177 15.4985 15.339C15.4219 15.501 15.3227 15.654 15.192 15.798C14.9712 16.041 14.7279 16.2165 14.4529 16.329C14.1825 16.4415 13.8896 16.5 13.5741 16.5C13.1144 16.5 12.6232 16.392 12.1049 16.1715C11.5866 15.951 11.0684 15.654 10.5546 15.2805C10.0363 14.9025 9.54508 14.484 9.07637 14.0205C8.61218 13.5525 8.19305 13.062 7.81899 12.549C7.44943 12.036 7.15199 11.523 6.93566 11.0145C6.71934 10.5015 6.61118 10.011 6.61118 9.543C6.61118 9.237 6.66526 8.9445 6.77342 8.6745C6.88158 8.4 7.05284 8.148 7.2917 7.923C7.58013 7.6395 7.8956 7.5 8.2291 7.5C8.35529 7.5 8.48148 7.527 8.59415 7.581C8.71133 7.635 8.81498 7.716 8.8961 7.833L9.94167 9.3045C10.0228 9.417 10.0814 9.5205 10.1219 9.6195C10.1625 9.714 10.185 9.8085 10.185 9.894C10.185 10.002 10.1535 10.11 10.0904 10.2135C10.0318 10.317 9.94618 10.425 9.83802 10.533L9.4955 10.8885C9.44593 10.938 9.42339 10.9965 9.42339 11.0685C9.42339 11.1045 9.4279 11.136 9.43691 11.172C9.45043 11.208 9.46395 11.235 9.47297 11.262C9.55409 11.4105 9.6938 11.604 9.8921 11.838C10.0949 12.072 10.3112 12.3105 10.5456 12.549C10.7889 12.7875 11.0233 13.008 11.2622 13.2105C11.4965 13.4085 11.6903 13.5435 11.8435 13.6245C11.8661 13.6335 11.8931 13.647 11.9246 13.6605C11.9607 13.674 11.9968 13.6785 12.0373 13.6785C12.1139 13.6785 12.1725 13.6515 12.2221 13.602L12.5646 13.2645C12.6773 13.152 12.7854 13.0665 12.8891 13.0125C12.9927 12.9495 13.0964 12.918 13.2091 12.918C13.2947 12.918 13.3848 12.936 13.484 12.9765C13.5831 13.017 13.6868 13.0755 13.7995 13.152L15.2912 14.2095C15.4084 14.2905 15.4895 14.385 15.5391 14.4975C15.5841 14.61 15.6112 14.7225 15.6112 14.8485Z" stroke="white" stroke-miterlimit="10"/>
</g>
<defs>
<clipPath id="clip0_342_12430">
<rect width="21.3333" height="24" fill="white" transform="translate(0.444519)"/>
</clipPath>
</defs>
</svg>
