<svg width="30" height="30" viewBox="0 0 30 30" fill="none" xmlns="http://www.w3.org/2000/svg">
<path fill-rule="evenodd" clip-rule="evenodd" d="M21.875 3.4375C22.3928 3.4375 22.8125 3.85723 22.8125 4.375V7.1875H25.625C26.1428 7.1875 26.5625 7.60723 26.5625 8.125C26.5625 8.64277 26.1428 9.0625 25.625 9.0625H22.8125V11.875C22.8125 12.3928 22.3928 12.8125 21.875 12.8125C21.3572 12.8125 20.9375 12.3928 20.9375 11.875V9.0625H18.125C17.6072 9.0625 17.1875 8.64277 17.1875 8.125C17.1875 7.60723 17.6072 7.1875 18.125 7.1875H20.9375V4.375C20.9375 3.85723 21.3572 3.4375 21.875 3.4375Z" fill="#09C27E"/>
<path d="M2.5 8.125C2.5 5.47335 2.5 4.14752 3.32376 3.32376C4.14752 2.5 5.47335 2.5 8.125 2.5C10.7767 2.5 12.1025 2.5 12.9262 3.32376C13.75 4.14752 13.75 5.47335 13.75 8.125C13.75 10.7767 13.75 12.1025 12.9262 12.9262C12.1025 13.75 10.7767 13.75 8.125 13.75C5.47335 13.75 4.14752 13.75 3.32376 12.9262C2.5 12.1025 2.5 10.7767 2.5 8.125Z" fill="#09C27E"/>
<path d="M16.25 21.875C16.25 19.2233 16.25 17.8975 17.0738 17.0738C17.8975 16.25 19.2233 16.25 21.875 16.25C24.5267 16.25 25.8525 16.25 26.6762 17.0738C27.5 17.8975 27.5 19.2233 27.5 21.875C27.5 24.5267 27.5 25.8525 26.6762 26.6762C25.8525 27.5 24.5267 27.5 21.875 27.5C19.2233 27.5 17.8975 27.5 17.0738 26.6762C16.25 25.8525 16.25 24.5267 16.25 21.875Z" fill="#09C27E"/>
<path d="M2.5 21.875C2.5 19.2233 2.5 17.8975 3.32376 17.0738C4.14752 16.25 5.47335 16.25 8.125 16.25C10.7767 16.25 12.1025 16.25 12.9262 17.0738C13.75 17.8975 13.75 19.2233 13.75 21.875C13.75 24.5267 13.75 25.8525 12.9262 26.6762C12.1025 27.5 10.7767 27.5 8.125 27.5C5.47335 27.5 4.14752 27.5 3.32376 26.6762C2.5 25.8525 2.5 24.5267 2.5 21.875Z" fill="#09C27E"/>
</svg>
