<svg width="56" height="15" viewBox="0 0 56 15" fill="none" xmlns="http://www.w3.org/2000/svg">
<path d="M15.9649 0.382568L12.3727 11.3987H10.4937L8.46275 4.59625L6.41796 11.3987H4.53897L0.946777 0.382568H3.21262L5.54754 7.50175L7.5647 0.382568H9.33316L11.3503 7.51552L13.7129 0.382568H15.9649ZM24.1164 3.42578L20.5242 12.8859C20.2571 13.5928 19.9071 14.1023 19.4742 14.4144C19.0413 14.7265 18.5255 14.8826 17.9268 14.8826C17.8347 14.8826 17.7334 14.8757 17.6228 14.8619C17.5123 14.8481 17.4064 14.8275 17.3051 14.8L16.6419 12.9547C16.7985 13.0282 16.9597 13.0856 17.1255 13.1269C17.2912 13.1682 17.4478 13.1888 17.5952 13.1888C17.9084 13.1888 18.1939 13.1177 18.4518 12.9754C18.7097 12.8331 18.9077 12.5692 19.0459 12.1836L19.3222 11.3849L16.2412 3.42578H18.4103L20.2479 8.54829L21.9749 3.42578H24.1164ZM32.3646 3.43955L29.3665 11.4125H27.4046L24.3927 3.43955H26.5757L28.3856 8.78238L30.1955 3.43955H32.3646ZM39.7562 11.3987H37.7529V10.9718C37.4029 11.2105 37.0322 11.3758 36.6407 11.4676C36.2493 11.5594 35.8463 11.6053 35.4318 11.6053C35.045 11.6053 34.6949 11.5479 34.3818 11.4331C34.0686 11.3184 33.7969 11.1531 33.5666 10.9374C33.3364 10.7217 33.1591 10.4669 33.0347 10.1732C32.9104 9.87941 32.8482 9.55351 32.8482 9.19549C32.8482 8.74566 32.9472 8.35321 33.1452 8.01814C33.3433 7.68306 33.6127 7.40307 33.9535 7.17815C34.2943 6.95324 34.6926 6.78571 35.1486 6.67554C35.6045 6.56538 36.095 6.5103 36.62 6.5103H37.7667C37.7667 6.04211 37.6147 5.67032 37.3108 5.39492C37.0068 5.11951 36.5693 4.98181 35.9983 4.98181C35.7219 4.98181 35.4364 5.0323 35.1417 5.13328C34.8469 5.23426 34.5522 5.41787 34.2574 5.68409L33.0831 4.49985C33.5068 4.09593 33.9972 3.7838 34.5545 3.56348C35.1117 3.34316 35.6851 3.233 36.2746 3.233C36.8272 3.233 37.32 3.32021 37.7529 3.49463C38.1858 3.66905 38.5358 3.89397 38.8029 4.16937C39.1529 4.51821 39.3993 4.90837 39.5421 5.33984C39.6849 5.7713 39.7562 6.32211 39.7562 6.99226V11.3987ZM37.7529 9.41581V7.9424H36.841C36.5647 7.9424 36.3045 7.96076 36.0604 7.99748C35.8164 8.0342 35.6045 8.09617 35.4249 8.18338C35.2453 8.27059 35.1025 8.38305 34.9966 8.52075C34.8907 8.65845 34.8377 8.82369 34.8377 9.01648C34.8377 9.29188 34.9459 9.51679 35.1624 9.69121C35.3788 9.86564 35.6575 9.95285 35.9983 9.95285C36.293 9.95285 36.5855 9.90695 36.8756 9.81515C37.1657 9.72334 37.4582 9.59023 37.7529 9.41581ZM45.7248 11.2197C45.5222 11.3482 45.2873 11.4446 45.0202 11.5089C44.7531 11.5731 44.486 11.6053 44.2189 11.6053C43.7491 11.6053 43.353 11.5479 43.0307 11.4331C42.7083 11.3184 42.4504 11.1417 42.257 10.903C42.0635 10.6643 41.9231 10.3614 41.8356 9.99416C41.7481 9.62695 41.7043 9.19549 41.7043 8.69976V5.2159H40.6543V4.32084C41.299 4.05462 41.8218 3.65987 42.2224 3.13661C42.6231 2.61334 42.8971 1.93401 43.0445 1.09862H43.6938V3.42578H45.711V5.2159H43.6938V8.83746C43.6938 9.03943 43.7192 9.20467 43.7698 9.33319C43.8205 9.46171 43.8873 9.56269 43.9702 9.63613C44.0531 9.70957 44.1475 9.76007 44.2534 9.78761C44.3593 9.81515 44.4722 9.82892 44.5919 9.82892C44.7485 9.82892 44.9373 9.80138 45.1584 9.74629C45.3794 9.69121 45.5682 9.59941 45.7248 9.47089V11.2197ZM55.1474 7.40536C55.1474 7.53388 55.1405 7.667 55.1267 7.8047C55.1129 7.9424 55.0967 8.08469 55.0783 8.23157H48.6953C48.769 8.46108 48.8726 8.67911 49.0061 8.88566C49.1397 9.09221 49.3032 9.27122 49.4966 9.4227C49.69 9.57417 49.9088 9.69351 50.1529 9.78072C50.397 9.86793 50.6664 9.91154 50.9611 9.91154C51.3203 9.91154 51.6796 9.84957 52.0388 9.72564C52.398 9.60171 52.6973 9.43417 52.9368 9.22303L54.1941 10.4761C53.6414 10.8892 53.1003 11.1807 52.5707 11.3505C52.0411 11.5204 51.4815 11.6053 50.892 11.6053C50.2933 11.6053 49.7338 11.4951 49.2134 11.2748C48.693 11.0545 48.2416 10.7561 47.8594 10.3797C47.4772 10.0033 47.1755 9.5604 46.9544 9.0509C46.7334 8.5414 46.6229 7.99748 46.6229 7.41913C46.6229 6.84079 46.7334 6.29686 46.9544 5.78737C47.1755 5.27787 47.4795 4.83493 47.8663 4.45854C48.2532 4.08216 48.7045 3.7838 49.2203 3.56348C49.7361 3.34316 50.2887 3.233 50.8782 3.233C51.4401 3.233 51.9789 3.33627 52.4947 3.54283C53.0105 3.74938 53.4664 4.03626 53.8625 4.40346C54.2586 4.77067 54.5717 5.20902 54.802 5.71852C55.0323 6.22801 55.1474 6.79029 55.1474 7.40536ZM53.0612 6.63423C52.9046 6.12933 52.626 5.72311 52.2253 5.41557C51.8246 5.10804 51.371 4.95427 50.8644 4.95427C50.367 4.95427 49.9203 5.10804 49.5242 5.41557C49.1282 5.72311 48.8519 6.12933 48.6953 6.63423H53.0612Z" fill="#17B978"/>
</svg>
