<svg width="185" height="70" viewBox="0 0 185 70" fill="none" xmlns="http://www.w3.org/2000/svg">
<path d="M52.7855 6.21945H15.966C11.9526 6.21945 8.69904 9.70867 8.69904 14.0128V53.4994C8.69904 57.8035 11.9526 61.2928 15.966 61.2928H52.7855C56.7989 61.2928 60.0525 57.8035 60.0525 53.4994V14.0128C60.0525 9.70867 56.7989 6.21945 52.7855 6.21945Z" fill="black"/>
<path d="M26.1868 21.1461V22.9375L11.5987 21.1461H26.1868ZM26.1868 24.9678V26.7592L11.5987 24.9678H26.1868ZM26.1868 28.7894V30.5808L11.5987 28.7894H26.1868ZM26.1868 32.611V34.4024L11.5987 32.611H26.1868ZM26.1868 36.4327V38.2241L11.5987 36.4327H26.1868ZM26.1868 40.2543V42.0457L11.5987 40.2543H26.1868ZM26.1868 44.1158V45.9071L11.5987 44.1158H26.1868ZM39.3643 46.0266V36.8706H38.956L35.8751 46.0266H27.3004V21.1461H34.6872L34.0191 35.0394H34.2418L39.0674 21.1461H44.6725V35.0394H44.8952L48.867 21.1461H56.2539L48.7185 46.0266H39.3643Z" fill="#00CF84"/>
<path d="M99.5439 20.5242L92.241 44.622H88.4211L84.2922 29.7416L80.1352 44.622H76.3153L69.0125 20.5242H73.6189L78.3657 36.0974L82.4665 20.5242H86.0618L90.1626 36.1275L94.9656 20.5242H99.5439ZM116.116 27.1812L108.813 47.8752C108.27 49.4215 107.558 50.536 106.678 51.2188C105.798 51.9016 104.749 52.243 103.532 52.243C103.345 52.243 103.139 52.2279 102.914 52.1978C102.69 52.1677 102.474 52.1225 102.268 52.0622L100.92 48.0258C101.238 48.1865 101.566 48.312 101.903 48.4024C102.24 48.4927 102.559 48.5379 102.858 48.5379C103.495 48.5379 104.075 48.3823 104.6 48.071C105.124 47.7598 105.527 47.1824 105.807 46.339L106.369 44.5919L100.106 27.1812H104.515L108.251 38.3867L111.762 27.1812H116.116ZM132.884 27.2113L126.789 44.6521H122.8L116.677 27.2113H121.115L124.795 38.8988L128.474 27.2113H132.884ZM147.911 44.622H143.838V43.6882C143.127 44.2104 142.373 44.5718 141.577 44.7726C140.781 44.9735 139.962 45.0739 139.119 45.0739C138.333 45.0739 137.621 44.9484 136.985 44.6973C136.348 44.4463 135.796 44.0848 135.328 43.6129C134.859 43.141 134.499 42.5838 134.246 41.9411C133.993 41.2985 133.867 40.5856 133.867 39.8025C133.867 38.8185 134.068 37.96 134.471 37.227C134.874 36.494 135.421 35.8815 136.114 35.3895C136.807 34.8975 137.617 34.5311 138.544 34.2901C139.471 34.0491 140.468 33.9286 141.535 33.9286H143.866C143.866 32.9045 143.557 32.0912 142.939 31.4887C142.321 30.8863 141.432 30.585 140.271 30.585C139.709 30.585 139.129 30.6955 138.53 30.9164C137.93 31.1373 137.331 31.5389 136.732 32.1213L134.345 29.5308C135.206 28.6472 136.203 27.9644 137.336 27.4824C138.469 27.0005 139.634 26.7595 140.833 26.7595C141.956 26.7595 142.958 26.9503 143.838 27.3318C144.718 27.7134 145.43 28.2054 145.973 28.8078C146.684 29.5709 147.185 30.4244 147.476 31.3682C147.766 32.3121 147.911 33.5169 147.911 34.9829V44.622ZM143.838 40.2844V37.0613H141.984C141.423 37.0613 140.894 37.1015 140.397 37.1818C139.901 37.2621 139.471 37.3977 139.105 37.5885C138.74 37.7792 138.45 38.0252 138.235 38.3265C138.019 38.6277 137.912 38.9892 137.912 39.4109C137.912 40.0133 138.132 40.5053 138.572 40.8869C139.012 41.2684 139.578 41.4592 140.271 41.4592C140.87 41.4592 141.465 41.3588 142.055 41.158C142.644 40.9571 143.239 40.666 143.838 40.2844ZM160.045 44.2304C159.633 44.5116 159.155 44.7224 158.612 44.863C158.069 45.0036 157.526 45.0739 156.983 45.0739C156.028 45.0739 155.223 44.9484 154.568 44.6973C153.912 44.4463 153.388 44.0597 152.995 43.5376C152.602 43.0155 152.316 42.3528 152.138 41.5496C151.96 40.7463 151.871 39.8025 151.871 38.7181V31.0971H149.737V29.1392C151.047 28.5568 152.11 27.6933 152.925 26.5487C153.739 25.404 154.296 23.918 154.596 22.0906H155.916V27.1812H160.017V31.0971H155.916V39.0193C155.916 39.4611 155.967 39.8225 156.07 40.1037C156.173 40.3848 156.309 40.6057 156.478 40.7664C156.646 40.927 156.838 41.0375 157.053 41.0977C157.269 41.158 157.498 41.1881 157.742 41.1881C158.06 41.1881 158.444 41.1278 158.893 41.0074C159.343 40.8869 159.726 40.686 160.045 40.4049V44.2304ZM179.201 35.8866C179.201 36.1677 179.187 36.4589 179.158 36.7601C179.13 37.0613 179.098 37.3726 179.06 37.6939H166.084C166.233 38.1959 166.444 38.6729 166.716 39.1247C166.987 39.5765 167.319 39.9681 167.713 40.2995C168.106 40.6308 168.551 40.8919 169.047 41.0827C169.543 41.2734 170.091 41.3688 170.69 41.3688C171.42 41.3688 172.151 41.2333 172.881 40.9622C173.611 40.6911 174.22 40.3246 174.707 39.8627L177.263 42.6038C176.139 43.5075 175.039 44.1451 173.962 44.5166C172.886 44.8881 171.748 45.0739 170.55 45.0739C169.332 45.0739 168.195 44.8329 167.137 44.3509C166.079 43.869 165.161 43.2163 164.384 42.393C163.607 41.5696 162.994 40.6007 162.545 39.4862C162.095 38.3717 161.87 37.1818 161.87 35.9167C161.87 34.6516 162.095 33.4617 162.545 32.3472C162.994 31.2327 163.612 30.2637 164.398 29.4404C165.185 28.6171 166.102 27.9644 167.151 27.4824C168.2 27.0005 169.323 26.7595 170.521 26.7595C171.664 26.7595 172.759 26.9854 173.808 27.4373C174.856 27.8891 175.783 28.5166 176.588 29.3199C177.394 30.1232 178.03 31.0821 178.498 32.1966C178.967 33.3111 179.201 34.5411 179.201 35.8866ZM174.959 34.1997C174.641 33.0952 174.075 32.2066 173.26 31.5339C172.445 30.8612 171.523 30.5248 170.493 30.5248C169.482 30.5248 168.574 30.8612 167.769 31.5339C166.964 32.2066 166.402 33.0952 166.084 34.1997H174.959Z" fill="#17B978"/>
</svg>
