<svg width="22" height="24" viewBox="0 0 22 24" fill="none" xmlns="http://www.w3.org/2000/svg">
<g clip-path="url(#clip0_342_12429)">
<path d="M16.0001 20H6.00006C3.00006 20 1.00006 18 1.00006 15V9C1.00006 6 3.00006 4 6.00006 4H16.0001C19.0001 4 21.0001 6 21.0001 9V15C21.0001 18 19.0001 20 16.0001 20Z" stroke="white" stroke-miterlimit="10" stroke-linecap="round" stroke-linejoin="round"/>
<path d="M10.4001 9.50006L12.9001 11.0001C13.8001 11.6001 13.8001 12.5001 12.9001 13.1001L10.4001 14.6001C9.40007 15.2001 8.60007 14.7001 8.60007 13.6001V10.6001C8.60007 9.30006 9.40007 8.90006 10.4001 9.50006Z" stroke="white" stroke-miterlimit="10" stroke-linecap="round" stroke-linejoin="round"/>
</g>
<defs>
<clipPath id="clip0_342_12429">
<rect width="21.3333" height="24" fill="white" transform="translate(0.333405)"/>
</clipPath>
</defs>
</svg>
