<svg width="202" height="178" viewBox="0 0 202 178" fill="none" xmlns="http://www.w3.org/2000/svg">
<path d="M75.0422 48.7436L108.957 37.4512C111.32 36.6758 112.552 35.5825 111.701 33.2461C110.929 31.1247 108.701 29.9645 106.568 30.463C106.359 30.512 106.15 30.5768 105.944 30.6585L71.6309 44.2407C69.979 44.8947 70.168 47.724 70.7756 49.3935C70.7758 49.3934 73.3591 49.296 75.0422 48.7436Z" fill="#EA9F6C"/>
<path d="M111.153 34.0647L75.519 45.7606C74.0048 46.2576 72.3847 45.5905 71.6329 44.24L71.0745 44.461C69.4226 45.115 68.5909 46.9648 69.1987 48.6346C69.8046 50.2992 71.6224 51.1824 73.3057 50.6301L108.939 38.9342C111.129 38.2153 112.362 35.9489 111.853 33.7607C111.631 33.8789 111.4 33.9838 111.153 34.0647Z" fill="#DD9162"/>
<path d="M113.688 28.6486L114.352 21.3447H120.992L121.656 28.6486L117.672 38.8298L113.688 28.6486Z" fill="#EA9F6C"/>
<path d="M124.587 13.9949C124.588 14.0282 124.588 14.0617 124.588 14.095V16.3805C124.588 19.3323 123.041 22.0455 120.551 23.5615L119.885 23.5587L117.257 23.2856L114.46 19.7961V14.7151L114.465 13.3777L117.323 12.271L124.587 13.9949Z" fill="#EA9F6C"/>
<path d="M116.513 16.3803V14.0947C116.513 14.0612 116.514 14.0279 116.514 13.9946L113.783 12.2705L110.759 13.9946C110.759 14.0279 110.759 14.0614 110.759 14.0947V16.3803C110.759 19.5902 112.586 22.5201 115.469 23.9324C116.859 24.6139 118.488 24.6139 119.878 23.9324C120.111 23.8188 120.334 23.6938 120.552 23.5612C118.062 22.0453 116.513 19.3318 116.513 16.3803Z" fill="#DD9162"/>
<path d="M122.629 12.7177H112.716V5.01922C112.716 2.36203 114.87 0.208008 117.528 0.208008H117.818C120.475 0.208008 122.629 2.36203 122.629 5.01922L122.629 12.7177Z" fill="#626272"/>
<path d="M114.951 13.2084C114.951 11.2871 116.194 8.9513 116.194 8.9513C116.665 8.63119 119.676 7.40529 120.552 7.80705C122.906 8.88578 124.549 11.2461 124.588 13.9954H116.515L114.951 13.2084Z" fill="#73737F"/>
<path d="M120.551 7.80547C119.674 7.40371 118.7 7.1792 117.673 7.1792C113.887 7.1792 110.813 10.221 110.759 13.9938H116.513C116.552 11.2445 118.197 8.8842 120.551 7.80547Z" fill="#626272"/>
<path d="M103.467 97.182L99.4939 102.018L96.314 101.465L95.3711 99.8921L98.259 92.9883L100.417 93.497L103.467 97.182Z" fill="#EA9F6C"/>
<path d="M99.7497 94.9051L98.4044 93.2772L96.6224 92.9897L94.3281 99.058L95.3738 100.36L96.9335 100.551L99.7497 94.9051Z" fill="#DD9162"/>
<path d="M99.748 94.9033L98.8975 92.2212C100.19 88.8033 106.548 78.7385 106.548 78.7385L109.656 75.7247C110.695 71.6377 115.923 62.5678 117.976 58.8841L122.145 58.772C122.145 58.772 125.719 58.9671 125.769 60.0767C125.893 62.8383 125.321 65.5791 124.129 68.055C123.377 69.6147 120.773 69.6916 119.545 70.9781L113.959 79.8956L112.552 83.4504C111.199 86.871 109.32 90.0597 106.985 92.9019L103.468 97.182L99.748 94.9033Z" fill="#7A7C89"/>
<path d="M112.149 59.042C111.498 60.215 106.292 75.47 106.292 75.47L103.894 78.4948C101.623 81.358 99.8098 84.5553 98.5175 87.9731L96.6211 92.989L99.7484 94.9042L102.073 89.9625C103.542 86.617 105.52 83.5189 107.937 80.7786L110.491 77.8834L115.063 78.7393L121.155 72.3569C122.383 71.07 123.379 69.6158 124.129 68.0555C123.688 65.7617 122.389 61.3655 121.622 59.1541L112.149 59.042Z" fill="#73737F"/>
<path d="M99.4971 102.019L96.9341 100.55L92.1544 104.475C90.2739 106.621 91.9142 109.349 91.9142 109.349C92.3239 109.688 94.2412 110.148 94.5757 110.035C95.4188 109.753 96.1297 109.138 96.5226 108.308L99.4971 102.019Z" fill="#1FB978"/>
<path d="M93.2604 104.737L96.9315 100.549L94.3261 99.0562L89.3812 104.699C87.5007 106.845 89.0246 110.207 91.8781 110.207H93.5189C93.8837 110.207 94.2386 110.146 94.5731 110.034C92.525 109.266 91.6614 106.562 93.2604 104.737Z" fill="#12A567"/>
<path d="M119.215 97.0704L122.427 105.374L126.732 106.204L124.867 96.3428L120.44 96.3754L119.215 97.0704Z" fill="#EA9F6C"/>
<path d="M123.286 103.79L120.878 97.4105L118.661 96.5967L116.595 98.5578L121.183 106.677L123.286 103.79Z" fill="#DD9162"/>
<path d="M124.866 96.3428L124.073 92.1465C123.394 88.5562 122.163 85.0925 120.424 81.8786L119.489 80.1492C118.895 79.0509 118.54 77.8396 118.447 76.5943L118.226 73.6239C117.912 69.4186 117.054 65.2719 115.673 61.2878L114.102 56.7578H108.77C108.77 56.7578 104.852 61.8625 109.448 71.8459L113.517 81.038C114.149 81.9871 114.592 83.0498 114.821 84.167L115.238 86.2C115.98 89.8167 117.283 93.2952 119.099 96.5095L120.879 97.4106L124.866 96.3428Z" fill="#7A7C89"/>
<path d="M116.889 84.2387C116.471 81.7626 115.578 79.3907 114.26 77.2535L110.785 71.6188C108.853 68.4861 108.042 64.8585 108.374 61.3C108.518 59.7577 108.875 58.2282 109.452 56.7578H103.149C102.667 57.8353 102.307 58.9481 102.064 60.0776C101.13 64.4368 101.969 69.0458 104.494 72.8367L109.314 80.0737C109.946 81.0229 110.389 82.0855 110.618 83.2027L111.035 85.2364C111.776 88.8529 113.079 92.3312 114.895 95.5453L116.598 98.5576L120.882 97.4103C120.882 97.4108 117.504 87.879 116.889 84.2387Z" fill="#73737F"/>
<path d="M124.061 103.789H123.286C122.382 103.789 121.521 105.773 121.521 108.218C121.521 109.318 122.186 110.208 123.286 110.208H126.496C127.596 110.208 128.488 109.316 128.488 108.216C128.487 105.771 126.506 103.789 124.061 103.789Z" fill="#12A567"/>
<path d="M122.514 103.79C120.069 103.79 118.087 105.771 118.087 108.216C118.087 109.316 118.979 110.208 120.079 110.208H123.289V103.79H122.514V103.79Z" fill="#1FB978"/>
<path d="M125.77 60.0781C120.085 61.6017 114.179 62.0093 108.373 61.3001L106.549 56.9087L110.425 47.2461L108.922 36.3958L110.166 31.0275L113.689 28.6494C115.317 30.9274 120.03 30.9274 121.657 28.6494L129.829 31.7979L120.854 46.7984L124.842 55.7868C125.197 56.586 125.446 57.4282 125.582 58.2919C125.683 58.9306 125.737 59.5296 125.77 60.0781Z" fill="#1FB978"/>
<path d="M109.254 58.1007C109.423 57.615 109.604 57.167 109.787 56.7573C110.523 55.1071 111.257 53.4558 111.99 51.8041C113.428 48.5673 113.717 44.9368 112.805 41.5148L112.023 38.5809C111.288 35.8259 111.061 32.7754 112.554 30.3466L113.689 28.6484L106.571 30.4615C105.078 32.8903 104.648 35.8262 105.383 38.5811L106.97 44.5336C107.361 45.9986 107.238 47.553 106.623 48.9389C105.466 51.5456 104.309 54.1528 103.147 56.7573C102.964 57.167 102.783 57.615 102.615 58.1007C102.369 58.8082 102.192 59.4734 102.063 60.0771L102.616 60.218C104.515 60.7025 106.439 61.063 108.373 61.2993C108.501 60.6956 109.009 58.8082 109.254 58.1007Z" fill="#12A567"/>
<path d="M124.197 34.5988L119.689 47.6217C119.657 47.7154 119.566 47.776 119.467 47.7702L106.631 47.0255L105.362 49.5244L107.642 51.3514L124.078 52.5341L125.566 51.4719L132.426 38.1151C133.734 35.5686 132.348 32.6108 129.829 31.7974C129.396 31.6575 128.929 31.5811 128.436 31.5811C126.524 31.5811 124.823 32.7926 124.197 34.5988Z" fill="#EA9F6C"/>
<path d="M106.629 47.0251C106.025 46.934 103.51 47.2872 103.038 50.0188L103.013 50.2473C102.886 52.0297 104.4 53.6197 106.169 53.76L120.734 54.9176C122.515 55.0592 124.206 54.1165 125.022 52.5273L125.565 51.4713L109.828 50.1421C108.153 50.0009 106.813 48.6949 106.629 47.0251Z" fill="#DD9162"/>
<path d="M1.55273 150.203H16.2891V151.829L3.83789 169.055H16.4062V171.208H0.864258V169.553L13.374 152.371H1.55273V150.203ZM29.9268 156.633H32.124V171.208H29.9268V168.381C29.458 169.368 28.7939 170.134 27.9346 170.681C27.085 171.228 26.0889 171.501 24.9463 171.501C23.0713 171.501 21.5771 170.916 20.4639 169.744C19.3506 168.572 18.7939 167 18.7939 165.027V156.633H20.9912V164.792C20.9912 166.208 21.3916 167.336 22.1924 168.176C22.9932 169.016 24.0625 169.436 25.4004 169.436C26.7773 169.436 27.876 169.016 28.6963 168.176C29.5166 167.336 29.9268 166.208 29.9268 164.792V156.633ZM53.335 156.326C55.1514 156.326 56.5918 156.877 57.6562 157.981C58.7305 159.075 59.2676 160.574 59.2676 162.478V171.208H57.085V162.874C57.085 161.477 56.7188 160.383 55.9863 159.592C55.2637 158.801 54.2676 158.406 52.998 158.406C52.4805 158.406 51.9873 158.489 51.5186 158.655C51.0498 158.821 50.6104 159.075 50.2002 159.417C49.7998 159.758 49.4775 160.227 49.2334 160.823C48.999 161.418 48.8818 162.102 48.8818 162.874V171.208H46.6992V162.874C46.6992 161.477 46.333 160.383 45.6006 159.592C44.8779 158.801 43.8818 158.406 42.6123 158.406C42.1045 158.406 41.6162 158.489 41.1475 158.655C40.6885 158.811 40.2539 159.06 39.8438 159.402C39.4434 159.734 39.1211 160.198 38.877 160.793C38.6328 161.389 38.5107 162.083 38.5107 162.874V171.208H36.3135V156.633H38.5107V159.153C38.9893 158.196 39.6582 157.488 40.5176 157.029C41.377 156.56 42.2949 156.326 43.2715 156.326C45.7812 156.326 47.4561 157.375 48.2959 159.475C48.7061 158.479 49.3701 157.708 50.2881 157.161C51.2061 156.604 52.2217 156.326 53.335 156.326ZM71.6016 156.326C72.9199 156.326 74.1309 156.658 75.2344 157.322C76.3477 157.986 77.2266 158.899 77.8711 160.061C78.5156 161.223 78.8379 162.498 78.8379 163.884C78.8379 165.271 78.5156 166.55 77.8711 167.722C77.2266 168.894 76.3477 169.817 75.2344 170.491C74.1309 171.165 72.9199 171.501 71.6016 171.501C70.2246 171.501 69.0234 171.184 67.998 170.549C66.9824 169.905 66.2061 168.997 65.6689 167.825V171.208H63.4717V150.203H65.6689V159.988C66.1963 158.826 66.9727 157.927 67.998 157.292C69.0234 156.648 70.2246 156.326 71.6016 156.326ZM71.1914 169.436C72.7344 169.436 74.0332 168.904 75.0879 167.839C76.1426 166.765 76.6699 165.447 76.6699 163.884C76.6699 162.351 76.1426 161.047 75.0879 159.973C74.0332 158.899 72.7344 158.362 71.1914 158.362C69.5996 158.362 68.2812 158.884 67.2363 159.929C66.1914 160.974 65.6689 162.292 65.6689 163.884C65.6689 165.486 66.1914 166.814 67.2363 167.869C68.2812 168.914 69.5996 169.436 71.1914 169.436ZM93.999 156.633H96.1963V171.208H93.999V167.825C93.4619 168.997 92.6807 169.905 91.6553 170.549C90.6396 171.184 89.4434 171.501 88.0664 171.501C86.748 171.501 85.5322 171.165 84.4189 170.491C83.3154 169.817 82.4414 168.894 81.7969 167.722C81.1523 166.55 80.8301 165.271 80.8301 163.884C80.8301 162.498 81.1523 161.223 81.7969 160.061C82.4414 158.899 83.3154 157.986 84.4189 157.322C85.5322 156.658 86.748 156.326 88.0664 156.326C89.4434 156.326 90.6445 156.648 91.6699 157.292C92.6953 157.927 93.4717 158.826 93.999 159.988V156.633ZM88.4766 169.436C90.0684 169.436 91.3867 168.914 92.4316 167.869C93.4766 166.814 93.999 165.486 93.999 163.884C93.999 162.292 93.4766 160.974 92.4316 159.929C91.3867 158.884 90.0684 158.362 88.4766 158.362C86.9336 158.362 85.6299 158.899 84.5654 159.973C83.5107 161.047 82.9834 162.351 82.9834 163.884C82.9834 165.447 83.5107 166.765 84.5654 167.839C85.6299 168.904 86.9336 169.436 88.4766 169.436ZM103.784 168.293L101.777 174.387H100.034L101.323 168.293H103.784ZM123.208 150.203C124.976 150.203 126.45 150.784 127.632 151.946C128.823 153.098 129.419 154.529 129.419 156.238C129.419 157.966 128.823 159.412 127.632 160.574C126.45 161.726 124.976 162.302 123.208 162.302H117.378V171.208H115.137V150.203H123.208ZM123.208 160.134C124.321 160.134 125.254 159.763 126.006 159.021C126.758 158.269 127.134 157.341 127.134 156.238C127.134 155.144 126.758 154.226 126.006 153.484C125.254 152.742 124.321 152.371 123.208 152.371H117.378V160.134H123.208ZM133.696 150.261C134.116 150.261 134.487 150.417 134.81 150.73C135.132 151.042 135.293 151.409 135.293 151.829C135.293 152.258 135.132 152.634 134.81 152.957C134.487 153.269 134.116 153.425 133.696 153.425C133.267 153.425 132.9 153.269 132.598 152.957C132.295 152.644 132.144 152.268 132.144 151.829C132.144 151.409 132.295 151.042 132.598 150.73C132.9 150.417 133.267 150.261 133.696 150.261ZM132.583 156.633H134.78V171.208H132.583V156.633ZM141.255 150.203V171.208H139.058V150.203H141.255ZM157.31 156.633H159.507V171.208H157.31V167.825C156.772 168.997 155.991 169.905 154.966 170.549C153.95 171.184 152.754 171.501 151.377 171.501C150.059 171.501 148.843 171.165 147.729 170.491C146.626 169.817 145.752 168.894 145.107 167.722C144.463 166.55 144.141 165.271 144.141 163.884C144.141 162.498 144.463 161.223 145.107 160.061C145.752 158.899 146.626 157.986 147.729 157.322C148.843 156.658 150.059 156.326 151.377 156.326C152.754 156.326 153.955 156.648 154.98 157.292C156.006 157.927 156.782 158.826 157.31 159.988V156.633ZM151.787 169.436C153.379 169.436 154.697 168.914 155.742 167.869C156.787 166.814 157.31 165.486 157.31 163.884C157.31 162.292 156.787 160.974 155.742 159.929C154.697 158.884 153.379 158.362 151.787 158.362C150.244 158.362 148.94 158.899 147.876 159.973C146.821 161.047 146.294 162.351 146.294 163.884C146.294 165.447 146.821 166.765 147.876 167.839C148.94 168.904 150.244 169.436 151.787 169.436ZM171.196 158.669H167.124V166.287C167.124 168.308 168.145 169.319 170.186 169.319C170.596 169.319 170.933 169.28 171.196 169.202V171.208C170.757 171.306 170.288 171.355 169.79 171.355C168.267 171.355 167.075 170.935 166.216 170.095C165.356 169.246 164.927 167.986 164.927 166.316V158.669H162.056V156.633H164.927V152.605H167.124V156.633H171.196V158.669ZM186.812 163.474C186.812 163.914 186.802 164.192 186.782 164.309H174.565C174.673 165.872 175.21 167.131 176.177 168.088C177.144 169.045 178.389 169.524 179.912 169.524C181.084 169.524 182.09 169.26 182.93 168.733C183.779 168.196 184.302 167.483 184.497 166.594H186.694C186.411 168.069 185.64 169.255 184.38 170.154C183.12 171.052 181.611 171.501 179.854 171.501C177.734 171.501 175.962 170.769 174.536 169.304C173.12 167.839 172.412 166.013 172.412 163.826C172.412 161.726 173.13 159.954 174.565 158.508C176.001 157.053 177.754 156.326 179.824 156.326C181.123 156.326 182.305 156.633 183.369 157.249C184.434 157.854 185.273 158.704 185.889 159.797C186.504 160.891 186.812 162.117 186.812 163.474ZM174.668 162.449H184.468C184.36 161.238 183.867 160.247 182.988 159.475C182.119 158.694 181.035 158.303 179.736 158.303C178.447 158.303 177.344 158.679 176.426 159.431C175.508 160.183 174.922 161.189 174.668 162.449ZM195.044 171.501C193.403 171.501 192.046 171.086 190.972 170.256C189.897 169.426 189.287 168.303 189.141 166.887H191.235C191.333 167.717 191.724 168.381 192.407 168.879C193.091 169.368 193.94 169.612 194.956 169.612C195.972 169.612 196.787 169.382 197.402 168.923C198.027 168.455 198.34 167.854 198.34 167.122C198.34 166.633 198.213 166.223 197.959 165.891C197.705 165.549 197.368 165.295 196.948 165.129C196.538 164.963 196.069 164.812 195.542 164.675C195.015 164.539 194.473 164.426 193.916 164.338C193.359 164.25 192.817 164.114 192.29 163.928C191.763 163.743 191.289 163.523 190.869 163.269C190.459 163.005 190.127 162.634 189.873 162.156C189.619 161.667 189.492 161.086 189.492 160.413C189.492 159.211 189.966 158.23 190.913 157.468C191.86 156.707 193.115 156.326 194.678 156.326C196.113 156.326 197.349 156.707 198.384 157.468C199.429 158.22 200.034 159.231 200.2 160.5H197.988C197.881 159.817 197.515 159.255 196.89 158.816C196.265 158.376 195.508 158.157 194.619 158.157C193.73 158.157 193.008 158.352 192.451 158.743C191.904 159.124 191.631 159.626 191.631 160.251C191.631 160.779 191.792 161.208 192.114 161.541C192.446 161.873 192.871 162.117 193.389 162.273C193.906 162.429 194.478 162.566 195.103 162.683C195.737 162.791 196.367 162.927 196.992 163.093C197.627 163.259 198.203 163.479 198.721 163.752C199.238 164.026 199.658 164.441 199.98 164.998C200.312 165.554 200.479 166.243 200.479 167.063C200.479 168.352 199.961 169.417 198.926 170.256C197.9 171.086 196.606 171.501 195.044 171.501Z" fill="black"/>
</svg>
